<?xml version="1.0" encoding="utf-8"?>
<!-- Generator: Adobe Illustrator 13.0.0, SVG Export Plug-In . SVG Version: 6.00 Build 14948)  -->
<!DOCTYPE svg PUBLIC "-//W3C//DTD SVG 1.1//EN" "http://www.w3.org/Graphics/SVG/1.1/DTD/svg11.dtd">
<svg version="1.1" id="Layer_1" xmlns="http://www.w3.org/2000/svg" xmlns:xlink="http://www.w3.org/1999/xlink" x="0px" y="0px"
	 width="1153.131px" height="1117.86px" viewBox="0 0 1153.131 1117.86" enable-background="new 0 0 1153.131 1117.86"
	 xml:space="preserve">
<path fill-rule="evenodd" clip-rule="evenodd" fill="#628B2F" d="M576.204,0c192.68,237.587,387.729,478.175,576.928,715.911
	c-94.32,0-188.645,0-282.965,0c-2.332,131.984-0.334,268.297-1,401.949c-195.641,0-391.286,0-586.926,0
	c0-133.982,0-267.969,0-401.949c-93.989,0-187.976,0-281.965,0c-1.534-4.748,3.739-8.167,5.999-10.999
	c162.777-203.961,329.29-410.533,494.938-613.923C525.934,60.634,552.23,26.839,576.204,0z"/>
<g>
	<path fill="#FFFFFF" d="M602.673,604.403c0,34-23.6,67.6-75.999,67.6c-52.799,0-75.599-30.399-75.599-64.799
		c0-39.199,35.6-57.199,57.199-65.999c-28.399-12-53.199-26.8-53.199-59.599c0-40.799,32.399-67.199,71.999-67.199
		c39.199,0,71.599,23.6,71.599,64.799c0,34.399-30,53.599-51.199,63.599C576.274,555.604,602.673,570.803,602.673,604.403z
		 M467.475,604.803c0,31.6,19.6,52.799,59.6,52.799c41.599,0,59.199-22.398,59.199-50.799c0-33.6-32-45.999-64.8-59.599
		C494.675,556.404,467.475,574.803,467.475,604.803z M582.274,481.605c0-29.6-22-52.799-55.199-52.799
		c-35.2,0-55.6,25.2-55.6,50.799c0,31.199,31.199,43.599,63.199,57.199C559.074,527.205,582.274,510.005,582.274,481.605z"/>
	<path fill="#FFFFFF" d="M658.073,604.604c-20.399,0-33.199-15.2-33.199-33c0-18.2,12.8-33.399,33.199-33.399
		c20.6,0,33.199,15.2,33.199,33.399C691.272,589.404,678.672,604.604,658.073,604.604z M658.073,545.004c-16.2,0-26,11.8-26,26.6
		c0,14,9.8,26.199,26,26.199c16.199,0,25.999-12.199,25.999-26.199C684.072,556.804,674.272,545.004,658.073,545.004z
		 M649.273,671.002h-9.2l103.198-130.798h9L649.273,671.002z M734.072,673.002c-20.6,0-33.2-15.199-33.2-33.399
		c0-17.8,12.601-32.999,33.2-32.999c20.399,0,33.199,15.199,33.199,32.999C767.271,657.803,754.471,673.002,734.072,673.002z
		 M734.072,613.403c-16.2,0-26,12.2-26,26.2c0,14.8,9.8,26.6,26,26.6c16.199,0,25.999-11.8,25.999-26.6
		C760.071,625.603,750.271,613.403,734.072,613.403z"/>
</g>
</svg>
