<?xml version="1.0" encoding="utf-8"?>
<!-- Generator: Adobe Illustrator 17.1.0, SVG Export Plug-In . SVG Version: 6.00 Build 0)  -->
<!DOCTYPE svg PUBLIC "-//W3C//DTD SVG 1.1//EN" "http://www.w3.org/Graphics/SVG/1.1/DTD/svg11.dtd">
<svg version="1.1" id="Layer_1" xmlns="http://www.w3.org/2000/svg" xmlns:xlink="http://www.w3.org/1999/xlink" x="0px" y="0px"
	 viewBox="321.8 0 336.5 550" enable-background="new 321.8 0 336.5 550" xml:space="preserve">
<path fill="#EDEDED" fill-opacity="0.3" d="M654,145c-1.4-0.2-2.9-0.5-4.3-0.8c-0.3-0.1-0.7-0.5-0.8-0.8c-1.1-3.9-2.3-7.7-3.1-11.6
	c-0.6-2.7-0.7-5.5-1.1-8.3c-1-6.6-2.1-13.1-3.1-19.6c-0.8-5.3-1.5-10.6-2.4-15.8c-0.4-2.4-1.2-4.7-1.8-7.1c-0.2-0.6-0.4-1.2-0.6-1.9
	c3-1.3,5.9-2.4,8.7-3.6c2.2-1,3.1-4.4,1.9-7.3c-0.9-2.1-4.1-3.4-6.4-2.5c-2.7,1.2-5.4,2.6-8.2,3.5c-1.9,0.6-3.9,0.9-5.9,1
	c-8.5,0.3-16.9-0.8-25.1-3c-1.1-0.3-1.9-0.8-1.9-2c0.1-4.6-0.2-9.2,0.5-13.6c0.7-4.4,2.8-8.5,5.4-12.2c2.2-3.1,4.5-6.3,6.2-9.7
	c1-2,0.8-4.5,1.2-6.7c0.2-1.3,0.2-2.6,0.6-3.9c0.4-1.6,0.6-3-0.2-4.6c-0.4-0.8-0.5-1.9-0.3-2.8c0.4-2.2-0.6-4.8-2.8-5.6
	c-1.4-0.5-2.3-1.4-3-2.6c-1-1.7-2.6-2.9-4.7-3c-0.4,0-0.8-0.3-1.2-0.4c-0.1,0-0.2,0-0.4,0c-0.4,0.5-1,1.4-1.1,1.3
	c-1.4-0.8-2.1,0.3-2.9,1c-1.8,1.4-3.4,2.9-5.1,4.4c-1,0.8-2.2,1.5-2.8,2.6c-1.9,3-3.6,6.1-5.3,9.2c-1.7,3.2-2.5,6.6-2.4,10.1
	c0.1,3.6,0.8,7.3,0.9,10.9c0,2.6,0,5.6-1,7.9c-3.2,7.3-5.9,14.9-10.4,21.6c-1.4,2-2.8,3.5-5.1,3.9c-0.6,0.1-1.4-0.2-2-0.6
	c-1.4-1-2.5-2.3-4-3.2c-3.3-1.9-6.6-3.9-10.7-1.3c-3.2,2-4,4.9-1.6,7.8c0.9,1.1,1.9,2.3,3,3.1c3,2.1,3.1,6.4,2,8.9
	c-1,2.1-1.7,2.4-3.8,1.3c-0.6-0.3-1.3-0.5-1.8-0.9c-2-1.7-3.9-1.1-5.8,0.2c-1.8,1.2-3.6,2.3-5.5,3.2c-1.8,0.9-3,2.3-3,4.3
	c0,0.6-0.1,1.2-0.2,1.6c-2.1-0.3-4-0.8-5.9-0.7c-5.3,0.1-10.6,0.6-15.9,0.7c-3,0.1-5.9,0-8.8,1.1c-4.5,1.8-9,3.6-12.4,7.2
	c-1.4,1.5-2.7,1.7-4.5,0.9c-0.7-0.3-1.3-0.6-2-1c-2.9-1.4-3.4-4.3-3.2-6.9c0.2-1.9,1.3-3.9,3.5-5c3.5-1.8,6.2-4.2,6.5-8.5
	c0.1-0.9,0.6-1.8,0.5-2.7c-0.1-2.7,1.3-4.2,3.6-5.1c1.1-0.4,1.4-1.1,1.3-2.3c-0.2-2.6,0-5.2,1.3-7.6c0.5-0.9,0.5-2.2,0.4-3.2
	c-0.5-3.3-1.1-6.6-1.7-9.8c-0.3-1.7-0.5-3.5-1.3-4.9c-1.2-2.2-1.6-4.4-1.2-6.7c0.3-2.1-0.2-3.9-1.4-5.5c-1.7-2.3-3.3-4.7-5.1-6.9
	c-1.1-1.4-2.2-2.8-3.6-3.8c-1.9-1.4-4-2.7-6.2-3.8c-2.8-1.4-5.7-2.7-9-1.9c-1.8,0.5-3.4,1.1-5.1-0.2c-0.3-0.3-1.1-0.1-1.6,0
	c-1.6,0.5-3.2,1.3-4.8,1.6c-5.1,0.9-8.3,4.2-11.1,8.2c-0.9,1.3-1.7,2.3-3.5,1.9c-0.6-0.1-1.6,0.3-1.8,0.7c-0.6,1.4-1.1,3-1.3,4.5
	c-0.2,2.3,0,4.7-0.1,7.1c0,0.6-0.1,1.3-0.5,1.7c-1.4,1.5-1.8,4-4.6,4c-0.3,0-0.7,0.5-0.8,0.8c-0.7,2.6-1.7,5.3-1.8,8
	c-0.1,1.9-0.6,3-1.9,4.2c-1.9,1.7-2.2,4.1-1.2,6.4c0.5,1.1,0.9,2.4,1,3.7c0.2,4.1,1.7,7.3,5.3,9.4c1.8,1.1,3.2,2.6,3.8,4.9
	c1.1,4,3.7,6.4,7.9,7.2c0.6,0.1,1.4,0.6,1.5,1.1c0.4,2.8,0.7,5.7,1,8.5c0,0.4-0.2,0.9-0.5,1.1c-3.2,2.6-6,6-10.9,4.5
	c-0.4-0.1-0.8-0.1-1.3-0.2c-3.2-0.5-6.1-0.5-7.8,3c-0.3,0.6-1.5,1.2-2.3,1.1c-2.4-0.1-4,1.2-5.6,2.6c-3.5,3-5.5,7.2-7.8,11
	c-3.8,6.4-6,13.3-5,21c0.2,1.6,0,3.5-0.6,5c-2,5.1-4.3,10.1-6.4,15.2c-1.2,2.9-2.2,6-3.4,8.9c-2,4.8-5.2,8.9-8.6,12.9
	c-7.1,8.7-9.6,19.4-12.3,29.8c-1.3,5-1.1,10.4-1.6,15.6c-0.7,8-2,15.9-5.7,23.3c-0.8,1.6-1.8,3.4-1.9,5.1
	c-0.2,6.1-0.3,12.2,0.1,18.3c0.2,3.1,1.4,6.2,2.2,9.5c-0.7-0.3-1.5-0.6-2.3-0.9c-2.6-1.3-5.1-1.8-7.6,0.4c-2.2,2-4.6,3.8-6.8,5.8
	c-2,1.8-1.2,5.9,1.4,6.5c1.1,0.3,2.4,0.2,3.6,0.2c2.8,0,5.5-1.3,8.4,0.2c2.9,1.5,6,2.5,9.2,3.6c1.7,0.6,2.3,1.4,1.5,3
	c-0.1,0.3-0.2,0.6-0.3,0.9c-6.1,16.8-12.2,33.7-18.3,50.5c-5.6,15.2-11.2,30.4-16.7,45.7c-2.7,7.5-5.4,15-8.1,22.5
	c-2.6,7.5-5.2,15.1-7.8,22.6c-0.6,1.8-1.7,3.5-2.6,5.2c0,0.6,0,1.2,0,1.8c0.7,2.5,1.3,4.9,2,7.4c0.4,1.7,0.8,3.3,1.3,5.3
	c4.5-3,8.6-5.8,12.9-8.5c1.5-0.9,2.4-2.1,3-3.7c0.9-2.7,1.8-5.3,2.8-7.9c3.4-9.9,6.9-19.8,10.4-29.7c5.2-14.5,10.5-29,15.6-43.5
	c3.3-9.2,6.3-18.6,9.4-27.9c0.6-1.9,1.4-3.8,2.2-6.1c0.4,0.8,0.6,1.2,0.8,1.6c1.1,2.7,2.2,5.4,3.3,8.1c2.8,6.9,7,13.1,8.3,20.6
	c0.5,3.2,2.4,5.8,6.2,6c1.7,0.1,2.4,1.1,2.1,2.7c-0.6,3.2-0.7,6.3-0.4,9.6c0.4,4.3-2.3,7.4-4.9,10.5c-2.4,2.9-5.2,5.5-7.4,8.6
	c-2.1,2.9-3.1,6.4-2.3,10c0.5,2.3,1.7,4.4,2.3,6.7c0.9,2.9,1.6,5.8,2.3,8.8c0.1,0.3,0.1,0.8,0,1.1c-1.1,3.7-2.2,7.4-5,10.3
	c-1.2,1.2-2.2,2.6-3.1,4c-1.2,2-2.2,4.1-3.4,6c-1.6,2.6-1.2,5.8,0.6,8.4c1.8,2.5,4.4,4.7,4.6,8.1c0,0.4,0.3,0.8,0.5,1.2
	c1.3,3.5,6.1,3.3,8.4,1.3c0.8-0.7,1.7-1.3,2.7-1.7c1.7-0.5,3.4-0.9,5.2-1.1c0.5-0.1,1.5,0.4,1.6,0.9c1.3,3.7,4.5,5.1,7.8,6.3
	c0.6,0.2,1.3,0.2,1.9,0c3.6-0.9,7.2-1.9,10.8-2.7c0.7-0.2,1.7-0.2,2.2,0.2c3.6,3,7.9,4.5,12.2,6.2c4.1,1.6,8.5,2.8,11.4,6.5
	c2.8,3.4,6.2,4.8,10.6,4c0.1,0,0.2,0.1,0.4,0.2c0.1,0.7,0.4,1.5,0.4,2.3c0.5,5-0.8,9.7-3.2,14c-3.6,6.4-5.5,13.1-4.1,20.5
	c0.4,2.4,1.3,4.6,3.6,5.9c1.8,1.1,3.6,2.1,4.9,3.9c0.7,1,2.4,1.7,3.6,1.8c2.1,0.1,3.7,0.9,5,2.6c0.2,0.2,0.4,0.5,0.6,0.6
	c3.4,1.6,6.5-0.1,8.3-2.6c2.6-3.6,4.4-7.7,5-12.2c0.6-4.1,1.5-8.2,0.6-12.3c-0.9-4.4-1.9-8.9-2.9-13.3c-0.6-2.7-0.5-5.4,0.6-8
	c0.2-0.4,0.1-1,0.1-1.5c0-1-0.1-2-0.1-3c0-0.4,0.5-0.8,0.6-1.3c0.7-3.2,2.2-4.4,5.4-4.4c3.5,0,8.8-3.5,10.1-6.8
	c1.4-3.2,2.8-6.4,4.2-9.7c0.7,1,1.4,2.2,2.3,3.2c1.7,1.9,3.5,3.7,5.1,5.7c1.5,1.8,2.4,3.7,2.5,6.1c0.1,4,0.3,7.9,3.4,11
	c1.9,1.9,3.6,4,5.3,6.1c2.1,2.6,4.4,4.8,7.4,6.3c2.6,1.2,4.5,0.2,4.9-2.8c0.1-0.5,0-1.1,0-1.6c0.1,0.1,0.3,0.3,0.4,0.4
	c1.5-0.8,3.3-1.4,4.4-2.5c1.3-1.4,2.3-3.2,2.9-5c0.7-2.4,0.8-4.9,1.4-7.3c0.6-2.3-0.2-4.2-1.4-6c-0.6-1-1.6-1.7-2.2-2.7
	c-1-1.4-1.8-3-2.7-4.5c-1.1-1.7-1.9-3.6-3.3-4.9c-2.1-2.1-4.4-4-6-6.7c-1.4-2.4-3.4-4.4-5.1-6.7c-1.2-1.6-1.9-3.2-0.6-5.2
	c0.6-0.9,0.8-2,1-3.1c1-5.7,2.2-11.3,2.8-17c0.4-4.3,0.4-8.7,0-13c-0.6-6.2-1.8-12.4-2.4-18.6c-0.5-5.3-0.5-10.7-0.7-16.1
	c0-0.5,0.2-1.1,0.4-1.6c1.6-4.8,2.7-9.5-0.4-14.2c-0.3-0.4-0.3-0.9-0.4-1.4c0.1-0.1,0.3-0.2,0.4-0.3c1.7,1,3.5,1.9,5.1,3.1
	c3.3,2.4,6.5,2.2,9.9,0.2c1.4-0.8,3-1.2,4.4-1.9c0.8-0.4,1.4-0.9,2.1-1.3c1.8-1,3.7-1.8,5.6-2.8c0.6,0.4,1.5,1.2,2.4,1.4
	c4,0.6,7.7,0.2,10.5-3.4c1.9-2.5,3.6-5,4.2-8.2c0.4-2.1,1.3-4.1,1.8-6.2c0.5-1.7,1.4-3.6,1.1-5.1c-1.2-6-0.7-12.4-4.7-17.6
	c-0.1-0.2-0.2-0.4-0.3-0.7c-1-4.9-3.1-9.3-5.8-13.3c-2.2-3.2-3.7-6.9-7.2-9.1c-4.3-2.7-8.3-5.7-12.5-8.7c-4.6-3.3-6.9-7.5-5.4-13.4
	c0.7-2.8,1.2-5.7,1.8-8.6c0.4-2.1,1.1-4.3,1-6.4c-0.2-5.9-3.5-10.4-7.1-14.8c-1.1-1.4-2-3-3-4.5c-0.5-0.8-0.8-1.8-1.2-2.6
	c-2.1-3.9-3.2-8.1-3.2-12.5c0.1-5.7,0.4-11.5,1.1-17.1c1-7.7,3.5-14.9,8-21.4c2.1-3,4.3-6.1,5.5-9.4c2.2-6.4,3.8-13.1,5.4-19.7
	c0.3-1.2-0.2-3.1-1.1-3.8c-1.8-1.4-1.5-3.4-2.8-5.3c0.9,0.2,1.2,0.3,1.5,0.4c3.4,1,6.7,2.2,10.1,3c2.4,0.5,5.1,0.8,7.6,0.4
	c6.1-0.8,11.8-2.8,17.3-5.8c4.1-2.2,7.4-5.2,9.6-9.7c-1.4-0.7-2.7-1.8-4.1-2c-2-0.4-2.6-1.6-3-3.3c-1.7-5.7-3.5-11.4-5.1-17.1
	c-0.2-0.6,0-1.4,0.3-2c1.4-3.4,4.4-5.5,7-7.9c3-2.8,5.8-5.7,7.4-9.6c2-5,3.9-9.9,6.1-14.8c1.3-3.1,1.9-6.4,2.2-9.7
	c0.1-0.5,0.8-1.1,1.4-1.4c2.1-1.1,4.1-2.2,6.3-3.2c0.9-0.4,2-0.9,3-0.8c2.2,0.4,4.4,1.2,6.5,1.9c5.1,1.7,10.3,2.5,15.6,2.7
	c0.9,0,1.7,0.3,2.6,0.4c-2.7,8.6-5.3,16.9-7.9,25.2c-2,6.3-4.1,12.6-6,19c-1.6,5.1-3.3,10.2-4.6,15.4c-1,4.2-1.9,8-7.1,9.1
	c-2.9,0.6-2.6,2.2-1,4.3c1.1,1.3,2.4,2.5,3.8,3.4c6.2,4.2,13.1,6.5,20.6,7.5c6.6,0.9,12.5-0.8,18.2-3.6c2-1,4-2.5,5.5-4.2
	c2.2-2.5,4-5.4,5.9-8.1c0-0.1,0-0.2,0-0.4C657.6,145.7,655.9,145.3,654,145z M601,38.8c-0.3,0-0.5-0.1-0.8-0.1
	c0.3-2.8,0.6-5.7,0.9-8.6c0.1-0.1,0.2-0.2,0.4-0.3c0.4,0.7,1.1,1.4,1,2C602.1,34.2,601.5,36.5,601,38.8z M599.3,10.3
	c2.1-1.1,4.3-2.2,6.5-2.8c0.7-0.2,2.4,0.9,2.6,1.6c0.3,1.2-0.9,2.1-2.2,2.4c-2,0.4-3.9,0.8-6.1,1.3c-0.4-0.3-1.2-0.5-1.4-0.9
	C598.5,11.5,598.9,10.5,599.3,10.3z M552.8,71c2.8-0.8,7.7,1.5,8.3,4c0.2,0.8-0.3,2-0.8,2.7c-0.2,0.2-1.5-0.2-2.3-0.5
	c-2-1-3.9-2.1-4.7-4.5C553.2,72.1,553,71.5,552.8,71z M566.7,118.8c-1.5,0.7-2.9,1.2-4.2,2c-1.3,0.8-2.3,1.9-3.5,2.8
	c-0.2-0.1-0.4-0.2-0.6-0.3c0.2-11.2,0.5-22.3,0.7-33.5c0.2,0,0.4,0,0.7,0C562,99.5,564.4,109.2,566.7,118.8z M555.5,98.2
	c0.2,0,0.3,0.1,0.5,0.1c0,2.8,0.1,5.7,0,8.5c-0.1,4-0.4,8-0.5,12c-0.2,4.3-0.3,8.6-0.5,12.9c-0.2,3.5-0.3,6.9-0.6,10.4
	c-0.1,0.7-0.6,1.8-1.2,1.9c-2.3,0.6-4.7,0.8-7.3,1.2c0.6-1.7,1.1-3.2,2.9-3.7c1.8-0.5,2.9-1.4,3.1-3.5c0.2-2.7,0.9-5.4,1.3-8.1
	c0.1-0.5,0-1.1,0-2.1c-2.1,1-3.9,1.8-6.1,2.9C549.4,119.5,551.6,108.6,555.5,98.2z M497.6,106.4c-1.8,3.1-6.5,7-9.4,8
	C489.1,112.3,494.6,107.5,497.6,106.4z M487.4,119.7c-1.7,1.2-3.1,2.2-4.6,3.2C484.1,119.5,484.7,119.1,487.4,119.7z M491.2,66.2
	c-0.9-2.2-1.7-4.1-2.5-6c0.1-0.1,0.2-0.3,0.3-0.4c0.6,0.3,1.4,0.4,1.7,0.9C491.8,62.2,493.1,63.8,491.2,66.2z M479.7,33.1
	c0.1,0.4,0.1,0.9,0,1.3c-0.2,1.5,0.2,2.7,1.6,3.5c0.4,0.3,0.4,1.2,0.6,1.9c-0.8,0-1.9,0.3-2.2,0c-0.9-0.9-1.7-2.1-2.1-3.3
	c-0.9-2.4-1.6-4.9-2.4-7.4C477.5,28.9,479.4,30.7,479.7,33.1z M445.2,35.8c0.9-0.3,1.8-0.9,2.6-1.5c2.5-2,5-4,7.6-6
	c0.9-0.7,1.6-0.5,2.4,0.5c0.9,1.1,2.3,1.8,3.5,2.6c0.4,0.3,0.9,0.6,1.3,0.9c0.5,0.2,1,0.4,1.5,0.6c0.1-0.2,0.3-0.4,0.4-0.5
	c-0.6-0.7-1.1-1.4-1.8-2c-0.3-0.3-0.8-0.3-1.2-0.5c-1.1-0.6-2.6-1.5-1.9-2.7c0.5-0.8,2.3-1.1,3.5-1.1c1.6,0,3.3,0.5,4.9,0.9
	c0.6,0.2,1.3,0.6,1.5,1.1c0.6,1.6,1.1,3.2,1.5,4.9c0.4,1.7-0.7,2.5-2.3,2.1c-1.3-0.4-2.7-0.9-4-1.2c-6.6-1.4-11.6,1.5-15.9,6.1
	c-1,1.1-1.7,1.6-3.2,0.8c-0.8-0.4-2,0.2-3.2,0.3C441.2,38.1,441.8,36.8,445.2,35.8z M438.6,115.6c0.2-0.5,0.8-0.9,1.2-1.2
	c3.2-2.4,6.5-4.7,9.6-7.1c0.4-0.3,0.6-1,0.6-1.5c-0.2-2.9-0.4-5.8-0.8-8.7c-0.5-4.1-1.1-8.2-1.8-12.2c-0.3-2.2-0.7-4.3-2.1-6.2
	c-1.9-2.6-2.8-5.7-2-9.1c0.4-1.7,0.3-3.5,0.4-5.3c-0.1,0-0.3-0.1-0.4-0.1c-0.3,0.6-0.6,1.3-0.9,1.9c-0.2,0-0.4-0.1-0.7-0.1
	c0.1-1.1,0.1-2.3,0.2-3.8c-0.5-0.5-1-0.2-1.8,0.6c-1.1,1.1-1.2,3.4-3.8,2.6c0.9,3.7-0.1,6.6-2.2,9.6c-0.4-0.6-0.8-1.2-1.2-1.8
	c-0.5-1-0.9-2-1.5-2.9c-1.5-2.4-1.6-3,0.1-5.2c0.3-0.4,1.3-0.3,2.3-0.6c-0.1-1.5-0.2-3.5-0.4-5.5c-0.2-2.1,0.4-3.2,2.3-4.1
	c0.8-0.4,1.5-1.1,1.9-1.9c1.5-2.5,3-4.6,5.8-6c2.1-1,3.7-3.2,5.4-5.1c4.2-4.7,9.3-7.1,15.5-5.6c3,0.7,6.4,1.1,8.1,4.5
	c0.1,0.3,1,0.3,1.4,0.2c3-1,3-1,4.6,1.7c0.2,0.3,0.3,0.6,0.5,0.7c2,0.9,3.9,1.8,5.9,2.7c0.7,0.3,1.5,0.7,1.9,1.3
	c1,1.5,1.7,3.1,2.5,4.7c-0.1,0.1-0.3,0.3-0.4,0.4c-0.8-0.3-1.6-0.5-2.2-0.9c-1.2-0.8-1.8-0.6-1.9,1.3c-0.7-0.8-1.1-1.3-1.6-1.8
	c-0.9-1.1-1.9-2.1-3.5-1.8c-2.7,0.5-4.9,1.9-6.7,3.9c0.1,0.2,0.1,0.4,0.2,0.6c1-0.3,2-0.6,3-0.8c1.5-0.4,3-0.8,4.5-1
	c0.4,0,1.1,0.7,1.3,1.3c1.3,4.2,2.3,8.6,1.9,13.1c-0.2,2.2-0.2,4.5-0.5,6.7c-0.1,1.3-0.5,2.6-1,3.9c-1,2.4-2.1,4.7-3.2,7
	c-2.9,5.9-7.3,10.3-13.6,12.6c-2.2,0.8-4.2,0.7-6.2-0.8c-2.6-1.9-5.4-3.7-8.5-5.5c0.3,0.6,0.4,1.4,0.8,1.8c1.7,1.7,3.5,3.2,5.2,4.8
	c1.9,1.9,3.7,4,5.6,5.9c1.2,1.3,2.5,2.5,3.7,3.8c0.9,1,1.9,2,2.7,3.2c1.8,2.5,2.6,2.9,5.5,1.9c3.5-1.1,7.1-2.1,11.1-2.2
	c-0.2,0.5-0.2,0.7-0.3,0.8c-2.3,3.7-4.6,7.4-6.8,11.2c-0.5,0.8-0.9,1-1.9,0.9c-4.2-0.2-8.5-0.6-12.7-0.2c-5.2,0.5-10.3,1.7-15.4,2.8
	c-3.1,0.6-6.2,1.5-9.3,2.3c-2.4,0.7-3.6-0.3-3-2.8C436.6,121.6,437.6,118.6,438.6,115.6z M435.2,114.2c0.2,0,0.4,0.1,0.6,0.1
	c-0.2,1.1-0.2,2.3-0.5,3.3c-0.6,1.8-1.7,3.5-2.1,5.4c-0.4,2-0.1,4-0.3,6.1c0,0.6-0.4,1.2-0.7,1.8c-0.6-0.4-1.6-0.8-1.6-1.2
	c0-2.3,0-4.6,0.3-6.9C431.5,119.5,433.1,116.7,435.2,114.2z M382.2,328.5c-0.8,2.9-1.7,5.7-2.6,8.6c-2.2,7-4.3,14.1-6.6,21.1
	c-3.1,9.5-6.2,19-9.5,28.4c-3.6,10.2-7.4,20.4-11.1,30.6c-3.8,10.5-7.6,21.1-11.5,31.6c-1.5,4.2-3.1,8.3-4.7,12.5
	c-0.1,0.2-0.1,0.4-0.2,0.5c-2.9,2.4-5.8,4.8-8.7,7.2c-0.2,0.1-0.4,0.1-0.7,0.2c-0.8-3.5-1.8-7-2.4-10.5c-0.2-1.1,0.3-2.4,0.7-3.5
	c3.4-9.3,6.9-18.6,10.3-27.9c3-8,6-16,8.8-24c5-14,10-28,15-42c4.5-12.5,8.9-25,13.3-37.5c1.6-4.4,3.1-8.8,4.7-13.3
	c0.1-0.4,0.4-0.7,0.5-1c1,0.6,1.9,1.2,2.9,1.6c1.7,0.7,2.3,1.9,1.9,3.6c-1,3.7-0.2,7.4,0.2,11C382.7,326.7,382.4,327.7,382.2,328.5z
	 M382.4,308.7c-0.6-0.2-1.1-0.4-1.6-0.6c-5.3-2.3-10.7-4.5-16-6.8c-2.5-1.1-4.8-0.9-7.3,0.1c-0.8,0.3-1.7,0.6-2.6,0.7
	c-0.6,0-1.5-0.2-1.7-0.7c-0.2-0.5,0-1.4,0.4-1.8c1.8-1.7,3.7-3.4,5.7-4.8c0.6-0.4,1.9-0.2,2.8,0c0.9,0.2,1.8,0.6,2.7,1
	c1.6,0.6,3.2,1.2,4.7,1.9c3.1,1.4,6.2,2.8,9.3,4.3c1.7,0.8,3.3,1.8,5.1,2.7C383.5,306.1,383,307.3,382.4,308.7z M481.1,525.3
	c-0.8,4.7-1.7,9.4-2.9,14.1c-0.4,1.7-1.5,3.2-2.5,4.6c-0.7,1-1.7,1.8-3.1,1.1c-1.2-0.6-1.6-1.5-1.2-2.8c0.9-3.1,1.7-6.3,2.5-9.4
	c-0.2-0.1-0.3-0.3-0.5-0.4c-0.4,0.5-0.9,0.9-1.1,1.4c-1.1,2.7-2.1,5.5-3.1,8.2c-0.8,2.1-1.7,2.7-3.1,2.2c-1.3-0.5-1.8-2.3-1-4
	c1.2-2.6,1.8-5.3,1.7-8.1c0-0.1-0.2-0.3-0.6-0.8c-0.4,1.1-0.8,1.9-1.1,2.7c-0.6,1.6-1.1,3.3-1.9,4.9c-0.5,1-1.4,1.7-2.7,0.9
	c-1.2-0.8-1.3-1.6-0.8-2.9c0.7-1.9,1.1-3.9,1.6-5.9c0.1-0.3-0.4-0.7-0.6-1c-0.4,0.2-1,0.4-1.1,0.8c-0.4,1.2-0.7,2.5-1,3.8
	c-0.2,0-0.5,0-0.7,0c-0.3-1.9-0.5-3.8-0.8-5.7c-0.4-2.8,1-5.2,2-7.6c0.7-1.8,1.4-3.6,2-5.5c0.3-0.8,0.4-1.7,0.9-2.4
	c1.8-2.2,1.9-4.8,2.4-7.4c0.1-0.6,0.2-1.4,0.6-1.6c2-1.2,4.1-2.4,6.2-3.4c1-0.5,1.6,0.1,1.8,1.1c1,4,1.8,8.1,3,12
	c0.6,2.1,1.6,4.4,3.1,5.8C480.9,521.5,481.5,523.2,481.1,525.3z M503.7,461.3c-1.2,0.3-2.5,1.1-3.6,0.8c-5.4-1.3-9.9-4.1-12.1-9.5
	c-0.2-0.4-0.3-0.8-0.4-1.2c0.1-0.1,0.2-0.3,0.3-0.4c0.7,0.4,1.5,0.7,2,1.3c3.6,3.5,7.1,7.1,12.5,7.8c0.3,0,0.5,0.2,0.8,0.4
	c0.2,0.1,0.3,0.2,0.5,0.2C503.7,460.9,503.7,461.1,503.7,461.3z M497.2,448.6c-3.8-1.3-7.4-3.1-11-4.8c-0.6-0.3-1.2-0.9-1.4-1.5
	c-1.8-5.1-2.9-10.4-3.1-15.9c-0.1-3.7-0.8-7.3-2.6-10.5c-0.6-1-1.7-2-2.8-2.5c-1.7-0.7-2.3-2-2.9-3.5c-1.6-3.6-3.1-7.1-4.8-10.6
	c-2.6-5.5-5.4-10.9-8.1-16.3c-1.9-3.7-4.3-7.2-5.6-11c-1.6-4.7-2.4-9.8-3.5-14.7c-1.1-5.2-2.3-10.4-3.1-15.6
	c-0.6-4.3-1.8-8.5-1.1-13c0.5-3.5,0.1-7.1,0.1-10.6c0-1.7,0.2-3.4,0.4-5.6c-3.4,8.4-4.3,16.8-3.8,25.3c0.2,3.5,1.3,7,1.9,10.5
	c1,5,2,10,2.8,15.1c0.6,3.7,0.6,7.4,1.1,11.1c0.6,5,2.2,9.8,4.8,14.1c2.6,4.4,5.1,8.9,8.2,12.9c2.3,3,2.8,6.1,2.8,9.5
	c0,0.5-0.1,1-0.2,1.6c-3-1.1-4.5-3.4-6.2-5.5c-0.4-0.5-0.8-1.2-1.3-1.5c-3.9-1.9-5.2-5.9-7-9.2c-2.4-4.5-4.5-9.2-6.7-13.8
	c-0.3-0.7-0.7-1.5-0.8-2.2c-0.4-3.2-1.7-6.1-3.4-8.8c-2-3-4-6-6.1-8.8c-0.7-0.9-1.7-1.5-2.8-2.4c1.3,5.2,2.3,9.9,3.7,14.6
	c0.6,2.1,1.6,4.1,2.7,5.9c1.6,2.5,3.3,5,3.6,8.1c0,0.4,0.2,0.8,0.4,1.2c2.2,4.4,4.4,8.8,6.6,13.1c0.4,0.8,1.4,1.3,1.9,2.1
	c0.5,0.9,1.1,1.9,1.1,2.9c0.1,3.9,2.5,5.6,5.7,6.7c0.5,0.2,1.1,0.2,1.6,0c1.8-0.8,2.6-0.1,3.2,1.6c2.3,6.2,6.7,11,11,15.8
	c1.3,1.5,2.8,2.9,4.1,4.6c-0.8-0.4-1.7-0.8-2.5-1.3c-2.9-1.6-5.8-3.1-8.6-4.8c-1.4-0.9-2.4-2.2-3.7-3.2c-1.9-1.6-3.7-3.3-5.7-4.5
	c-4.1-2.5-7.6-5.7-11-9.1c-2.4-2.4-4.8-4.7-7.2-7.1c-0.1-0.1-0.2-0.2-0.3-0.3c-2.6-3.3-5.1-6.6-7.7-10c-2.2-2.9-4.6-5.8-6.5-8.8
	c-3.7-5.9-7.3-11.9-10.8-17.8c-2.3-3.8-4.4-7.6-6.8-11.6c-0.6,2.3-0.5,3.8,0.9,5.5c3.6,4.3,5.2,9.8,7.9,14.6
	c2.6,4.8,4.9,9.7,7.2,14.6c1.1,2.3,1.9,4.7,3,6.9c1.2,2.1,2.7,4,4,6.1c0.5,0.8,0.5,1.8,0.8,2.7c0.2,0.6,0.3,1.2,0.7,1.6
	c2.9,3.7,5.7,7.5,9,10.8c2.7,2.7,5.8,4.9,9,7.1c3.1,2.1,6.4,4,9.7,5.9c1.5,0.9,3.3,1.3,4.9,2c3.9,1.9,7.8,3.8,11.6,5.8
	c0.5,0.3,0.9,1.1,1,1.7c0.3,1.9,0.5,3.8,0.8,6.2c-2.5,0.9-5.3,1.9-8.1,2.8c-2.8,0.9-5.6,1.6-8.3,2.6c-2.4,0.9-2.9,0.8-4.4-1.2
	c-3.5-4.8-7.1-9.6-10.6-14.4c-0.5-0.7-0.9-1.4-1.4-2.2c-1.1,0.1-1.8,0.4-1.3,1.9c0.4,1.3,0.3,2.6,0.5,4c0.3,2.6,1.4,4.7,3.5,6.4
	c0.8,0.6,1.5,1.5,2,2.3c1.1,2.1,2.1,4.3,3.1,6.4c0.3,0.7,0.5,1.5,0.4,2.3c-0.2,1.3,0.4,1.9,1.4,2.5c1,0.6,1.7,0.1,2.6-0.4
	c2.8-1.6,5.7-2.9,8.5-4.3c1-0.5,2.1-0.9,3.2-1.4c3.1-1.5,6.1-3,9.2-4.4c0.3-0.1,0.7-0.1,1.1-0.1c0.6,4,1.6,7.8,0.7,11.8
	c-0.1,0.3,0.2,0.9,0.5,1.2c4.6,3.5,9.8,4.5,15.4,3.2c0.9-0.2,1.8-0.6,3.2-1c-1.9,4.7-2.6,9.4-6.4,12.5c-1.3,1.1-2.8,2.1-4.2,1.2
	c-0.6-0.4-0.3-2.4-0.2-3.6c0.1-0.7,0.5-1.6,1-2c0.4-0.3,1.3,0.1,2,0c0.8-0.1,1.5-0.2,2.3-0.3c-0.7-3.1-2.5-3.6-5.1-1.8
	c-2.4,1.7-4,3.6-4.5,6.5c-0.1,0.4-0.6,1-1.1,1.1c-3.1,0.5-6.1,0.9-9.3,1.3c0-3.3-0.2-6.5,0-9.6c0.2-3.3,0.8-6.5,1.1-9.7
	c0-0.6-0.8-1.9-1.3-1.9c-5.9-0.1-11.6,0.7-16.8,3.8c-0.1,0.1-0.1,0.2-0.3,0.6c1.7,0,3.3,0,4.9,0c0.1,0.2,0.1,0.5,0.2,0.7
	c-2.9,0.9-5.7,1.9-8.6,2.8c0,0.3,0.1,0.5,0.1,0.8c1.9-0.2,3.9-0.2,5.8-0.5c3.6-0.7,7-0.3,10.5,0.4c0.8,4.2-0.3,5.5-4.6,8.1
	c-3.2,2-6.7,2.5-10.6,1.4c-3.8-1.1-7.7-2.1-12-1.1c1.1,0.6,2.2,1.3,3.3,1.8c1.8,0.8,3.7,1.2,5.4,2.1c4.6,2.4,9.3,1.9,14,0.5
	c0.4-0.1,0.8-0.2,1.2-0.3c0.8,3.8,1.4,7.5,4.1,10.5c-3.4,1.9-7,2.2-10.7,1.7c-3.8-0.5-6-3.6-8.2-6.3c-1.8-2.1-3.7-3.6-6.5-4.2
	c-6.3-1.4-10.8-5-13.2-11.3c-2.5-6.5-6.6-11.8-13.8-13.8c-2.9-0.8-5.3-2.3-6.9-4.8c-1.2-1.8-2.7-1.7-4.4-1.5
	c-1.8,0.2-3.7,0.4-5.5,0.7c-1.1,0.2-2,0.9-3.1,1.1c-1.1,0.3-2.4,0.5-3.5,0.3c-1.5-0.3-2.6,0-3.4,1.3c-0.8,1.2-0.1,2.1,0.5,3.1
	c1.8,2.8,4.2,4.9,6.7,6.9c1.5,1.2,2.9,1.3,4.6,0.6c1.7-0.8,3.4-1.7,5.2-2.3c1-0.4,2.3-0.6,3.2-0.3c3,0.9,7.5,6.2,6,9.9
	c-0.8,2.1-3.5,3.7-5.6,2.9c-0.6-0.2-1-0.9-1.5-1.4c0.5-0.4,1-0.8,1.5-1.1c0.3-0.2,0.8-0.2,1.4-0.3c-4.4-2-8.6-2.1-12.9-1.1
	c-1.8,0.4-3.6,0.7-5.4,0.9c-0.4,0-1-0.2-1.2-0.6c-0.2-0.3-0.1-0.9,0.1-1.2c0.5-1,1.1-1.9,1.8-2.9c-0.5-0.3-1-0.9-1.5-0.9
	c-2.9-0.4-4.5-2.6-6.2-4.5c-0.9-1.1-1.2-2.4-0.5-3.9c0.9-2,1.7-3.8,3.4-5.5c3.6-3.6,5.5-8.2,6.7-13.1c0.4-1.4,1.1-2.8,1.5-4.2
	c0.7-2.5,0.1-4.9-1.2-7c-1.8-3.1-3.1-6.4-3.7-10c-0.4-2,0.4-3.5,1.5-4.9c3.5-4.6,7-9.2,10.6-13.8c0.1-0.1,0.3-0.2,0.4-0.3
	c1.2,3.7-1.2,9.5-4.6,11.3c-1.3,0.7-2.6,1.5-3.8,2.4c-0.4,0.3-0.7,0.9-0.7,1.4c0.2,2.1,0.6,4.2,0.9,6.2c0.4,2.4,1.3,3.4,3.8,3.9
	c1.2,0.2,2.3,0.6,3.7,1c-0.7-0.8-1.3-1.3-1.7-1.9c-0.9-1.5-1.9-3-2.6-4.5c-0.6-1.2,0-2.2,1.2-2.9c0.3-0.2,0.7-0.3,1-0.5
	c2.2-1,3.9-2.4,4.4-5c0.3-1.2,0.8-2.4,1.3-3.5c0.2,0,0.4-0.1,0.5-0.1c0.3,0.7,0.9,1.4,0.8,2.1c-0.2,2.2-0.4,4.4-0.9,6.5
	c-0.7,2.8-0.2,4.1,2.4,5.4c0.3,0.2,0.7,0.6,0.7,0.9c0.2,3.2,0.4,6.4,0.4,9.6c0,1.6-0.8,2.4-2.6,2.5c-4.1,0.3-8.1,1.1-10.5,4.8
	c-0.9,1.4-1.1,3.1-1.7,4.7c-0.5,1.3-1.1,2.6-1.6,3.9c0.2,0.1,0.3,0.2,0.5,0.3c1.2-1.3,2.5-2.4,3.5-3.8c1.2-1.6,2.6-2.6,4.4-3.4
	c4.2-1.7,8.5-2.7,12.9-3.2c1.1-0.1,1.5,0.3,2,1.3c0.5,1,0.2,1.5-0.4,2.2c-1.1,1.1-2.8,1.8-2.8,3.6c0,0.9,0.1,2.3,0.7,2.8
	c2.2,1.6,4.5,3,6.9,4.4c1.1,0.7,2.4,1.1,3.4,2c3.7,3.5,6,8,8.3,12.4c1.5,2.9,3.8,5,6.4,7c1.7,1.3,3.4,2.3,5.5,2.3
	c0.8,0,1.5,0.1,2.3,0.1c0-0.2,0-0.3,0-0.5c-1.6-0.8-3.2-1.5-4.6-2.4c-1.3-0.9-2.6-2-3.7-3.1c-3.7-3.6-5.3-8.4-7.9-12.7
	c-2.3-4-5.2-7.4-9.7-9.1c-0.8-0.3-1.6-0.7-2.2-1.3c-0.4-0.4-0.7-1.5-0.4-1.8c2.1-2.8,0.7-5.5-0.6-7.8c-1.8-3-3.6-5.9-4-9.5
	c-0.5-4.4-1.4-8.8-0.5-13.3c0.1-0.5,0.3-1,0.5-1.5c2.6,1.7,2.3,4.4,2.6,6.8c0.6,4.1,1.2,8.2,1.9,12.2c0.3,1.8,1.5,3,3.1,3.9
	c0.6,0.4,1,1.1,1.4,1.8c1.1,1.9,1.8,4,3.9,5.2c0.5,0.3,0.7,1.3,0.8,2.1c0.4,1.9,0.3,3.8,2.1,5.5c2,1.8,3.3,4.5,5.2,6.5
	c1.2,1.3,3,2.2,4.7,2.9c1.2,0.4,1.1-0.9,0.8-1.6c-0.5-1.5-1-3-1.9-4.3c-4.1-6.8-8.2-13.5-12.5-20.2c-1.4-2.3-1.8-7,0-9.2
	c2.2,1.5,4.3,3,6.5,4.5c2,1.3,4.2,2.4,5.8,4.1c2.9,2.9,6.9,3.5,10.2,5.4c0.8,0.4,1.9,0.6,2.8,0.6c3.7,0.1,7,1.5,10.4,2.8
	c0.6,0.2,1.2,0.3,1.9,0.4c0.1-0.1,0.2-0.3,0.2-0.4c-0.4-0.4-0.8-0.9-1.4-1.2c-5-2.5-10-5.1-15.1-7.5c-4.6-2.3-9-4.8-12.7-8.5
	c-3.6-3.7-7.8-7-11.1-10.9c-4.7-5.5-8.8-11.3-13.2-17.1c-1.5-2-2.8-4.3-4.3-6.4c-1.5-2.1-1.8-4.4-0.8-6.6c0.8-1.9,0-3.2-1.1-4
	c-4.4-3.5-7.1-8.2-9.3-13.1c-2-4.4-3.4-9.1-5.3-13.6c-1-2.3-2.5-4.4-3.7-6.7c-0.5-0.9-0.6-2.1-0.9-3.1c-0.6-2.3-1.3-4.5-1.9-6.8
	c-0.2-0.6-0.2-1.3,0.1-2c2.3,4.3,4.9,8.4,7,12.8c3.1,6.4,5.1,13.2,7.2,20c0.3,1.1,1,2.1,1.6,3c1.7,2.4,3.7,4.5,5.2,7
	c2.5,4.1,4.6,8.5,7,12.6c1.1,1.9,2.6,3.7,3.9,5.5c0.1,0.1,0.3,0.1,0.9,0.1c-0.5-1.8-0.7-3.6-1.4-5.1c-1.6-3.7-3.2-7.4-5.3-10.8
	c-3.5-5.7-5.1-12-6.8-18.2c-1.4-5.2-3-10.3-4.7-15.4c-0.5-1.5-1.5-2.9-2.4-4.3c-1.6-2.6-3.4-5.2-5-7.9c-3.2-5.6-4-11.8-4.5-18.1
	c-0.4-5.1,0.7-10,1.4-15c0.4-2.8,2.2-5.3,3.4-8c0.6-1.4,1.2-2.9,1.5-4.4c0.3-1.5,0.3-3.1,0.7-4.7c2.5,8.3,4.3,16.9,9.6,24
	c0.3-0.1,0.6-0.2,0.9-0.3c-0.5-2.6-0.9-5.3-1.6-7.9c-1.8-7-3.7-14-5.4-21c-0.8-3.2-0.4-6.5,0.5-9.8c0.9-3.5,3.2-6,5.3-8.7
	c1.7-2.1,3.8-3.9,5.6-5.9c1.1-1.3,2-2.6,1.5-4.6c-0.8-3.2-1.3-6.6-1.9-9.8c-0.5-2.8-1.3-5.7-1.6-8.6c-0.5-4.7-0.3-9.4,1.9-13.7
	c0.3-0.5,0.4-1,0.8-1.4c1.4-1.6,2.6-3.2,1.8-5.5c-0.1-0.4,0.2-1.3,0.5-1.5c3-1.3,6-3,9.2-3.7c2.2-0.4,4.7,0.3,6.9,1.1
	c2.1,0.8,4,1.2,6.1,0.3c0.1-1.7-2.7-3.3-8.1-4.8c-2.9-0.8-5.5-0.3-6.2,1.1c-1.7-0.1-3.5-0.5-5.1-0.2c-1.5,0.3-2.9,1.4-4.5,2.2
	c-0.5-2.2-0.8-4.5,0.3-6.5c1.4-2.5,3-5,4.8-7.2c1.9-2.3,4.4-4.1,6.3-6.3c1.8-2,2.7-4.2,2.5-7.2c-0.3-5.3-3.7-8.7-6.7-12.5
	c-2.8-3.5-3.3-7.6-3.3-12c0-5.7,2.8-10.4,5.3-15.1c1.9-3.7,3.4-7.3,3.3-11.6c-0.1-2.1,0.2-4.2,0.4-6.3c-0.3-0.1-0.5-0.1-0.8-0.2
	c-0.3,0.8-0.5,1.5-0.9,2.3c-0.7,1.7-1,3.7-2.2,4.9c-2.8,3.1-4.6,6.7-5.6,10.8c-0.3,1.1-0.8,2.2-1.5,3.1c-2.3,3.5-3.1,7.4-3.6,11.4
	c-0.8,5.7,1,10.8,4.4,15.4c2.5,3.4,3.6,7.3,5.1,11.1c0.2,0.4,0.1,1,0,1.4c-0.9,2.8-2.4,5.3-5,6.7c-4.8,2.6-6.7,7-7.7,12
	c-0.7,3.7-0.6,7.4,0.9,11c0.2,0.4,0,0.9-0.2,1.4c-0.4,1.1-0.8,2.3-1.5,3.3c-2.5,3.8-2.7,8-2.6,12.3c0.1,1.9-0.5,3.4-1.5,4.9
	c-4.3,6.2-8.3,12.6-12.8,18.7c-4.3,5.8-3.6,11.7-1.3,17.9c0.2,0.5,0.7,0.9,0.9,1.3c0.2,0.4,0.4,0.8,0.8,1.6
	c-2.4-0.4-4.6,0.4-6.4-1.7c-0.8-1-2.2-1.4-3.6-1.9c1.6,2.7,3.7,5,3.7,8.4c0,3.5-2.2,5.5-4.6,7.4c1,1.4,2,2.7,3.2,4.4
	c0.2-0.1,0.8-0.4,1.3-0.8c1.6-1.3,3.4-2,5.4-1.6c0.8,0.2,1.4,0.9,2.2,1.4c-3,2.5-5.6,4.8-8.3,7c-0.4,0.3-1.2,0.3-1.7,0.2
	c-3.7-0.9-6.7-2.8-8.5-6.3c-1.7-3.4-3.3-6.8-3.2-10.7c0.1-3.2,0.3-6.5,0.3-9.7c-0.1-2.4,0.8-4.3,1.8-6.5c1.8-3.8,3-7.8,4-11.9
	c1-4.1,1.5-8.3,2.1-12.4c0.5-3.6,0.9-7.2,0.9-10.7c0.1-4,1.2-7.7,2-11.5c1.2-6,3.7-11.5,6.3-16.9c1.6-3.4,3.8-6.6,6.3-9.4
	c4.4-4.9,7-10.8,9.4-16.7c2-4.8,4-9.5,5.7-14.5c1.2-3.5,1.7-7.3,2.4-11c0.6-3.3,0.6-6.8,1.7-9.9c1.3-3.7,3.4-7.2,5.3-10.8
	c0.9-1.8,2.1-3.4,3.2-5.1c1.1-1.7,2.4-3.1,4.6-3.3c1.1-0.1,2.3-0.3,3.4-0.7c1.6-0.5,3.3-1,3.9-3c0.1-0.5,0.4-0.9,0.5-1.3
	c0.2,0.2,0.5,0.4,0.7,0.6c-0.3,0.6-0.4,1.3-0.8,1.9c-2.2,3.8-3.3,8-4.1,12.2c-0.3,1.6,0,3.4,0.3,5.1c0.4,1.9,3.5,3,5.6,2.1
	c2.3-1,4.5-2.4,6.8-3.5c1.9-1,3.8-2.1,5.8-3c2.1-1,4.2-0.7,6.4-0.4c2.3,0.4,4.7,0,7,0.1c3.2,0,6.3,0.1,9.5,0.2c1.5,0,3,0.2,4.5,0.2
	c0.1-0.2,0.1-0.4,0.2-0.6c-0.5-0.3-0.9-0.9-1.4-1c-2.7-0.4-5.4-0.7-8.1-1.2c-1.1-0.2-2.1-0.7-3.1-1.5c0.9-0.2,1.7-0.6,2.5-0.6
	c4.1,0.1,8.1,0.4,12.2,0.7c0.4,0,0.8,0.9,0.9,1.4c0.1,0.6-0.4,1.1-0.5,1.7c-0.1,0.8,0,1.6,0,2.4c1.1-0.1,2.4,0.1,3.2-0.5
	c2.1-1.7,4-3.7,6-5.6c1.2-1.1,2.6-2.2,4-3.5c-0.3-0.4-0.6-1-1.2-1.9c0.9-0.6,1.8-1.3,2.9-1.7c3.7-1.2,6.5-3.6,8.9-6.5
	c1.4-1.6,2.3-3.5,3.4-5.4c1.3-2.5,3-4,6.1-3.7c2.2,0.2,4.4,0,6.5,0c0.1,0.2,0.1,0.3,0.2,0.5c-0.7,0.4-1.4,0.9-2.2,1.1
	c-3.3,1.2-6.4,2.8-8.6,5.7c-1.1,1.4-1.9,3.1-2.7,4.7c-0.2,0.4,0.3,1.1,0.4,1.6c0.5-0.2,1.1-0.2,1.4-0.6c4.3-5.9,10.5-8.6,17.1-10.9
	c3-1,6-1.9,9.3-2.9c-0.2,2.1-0.7,3.7-2,5.1c-1.1,1.2-2.2,2.3-3.3,3.4c-3.3,3.2-6.7,6.4-10.2,9.8c-0.4-0.6-0.8-1.5-1.5-2.5
	c-0.5,0.5-1.1,0.8-1.5,1.4c-2.7,3.5-5.1,7.2-6.6,11.5c-0.3,0.9-1.7,1.9-2.7,2.2c-1.7,0.4-2.8,1.1-3.1,2.9
	c-0.9,5.2-1.5,10.6-4.6,15.1c-1.9,2.9-4,5.7-6.1,8.4c-0.5,0.6-1.5,0.9-2.5,1.5c0.2,0.4,0.3,1,0.6,1.2c4.1,3.1,4.6,7.6,4.5,12.3
	c-0.1,4.1-0.8,8.3-0.6,12.4c0.2,7.6,1.1,15.1,4.7,22c0.2,0.4,0,1.1,0,1.6c-0.5-0.1-1.1-0.1-1.4-0.4c-2.7-1.9-5.5-2.4-8.7-1.2
	c-0.3,0.1-1.5-0.8-1.6-1.4c-0.4-2.3-1.9-3.9-4.1-3.3c-3.6,1-6.8,0.5-10.1-1.1c-3.3-1.6-6.3-0.5-8.9,1.6c-2.9,2.3-6.1,2.4-9.5,2
	c-1.9-0.3-3.2-1.4-4.1-3c-0.7-1.3-1.2-1.1-2.2-0.1c-1.6,1.6-3.3,3-4.9,4.6c-2.3,2.2-4.7,4.3-6.7,6.7c-0.9,1.1-1.3,2.8-1.7,4.3
	c-0.9,3.3-1.8,6.7-2.6,10.1c-0.4,1.6-0.6,3.2-0.8,4.8c-0.2,1.7-0.3,3.4-0.3,5.1c0,0.8,0.2,1.6,0.3,2.5c0.2,0,0.4,0.1,0.6,0.1
	c0.7-2.1,1.6-4.1,2.1-6.2c1.7-6.1,2.1-12.5,5.1-18.2c1-1.8,2.5-3.4,4.1-4.6c2.3-1.8,5.1-2.9,6.1-5.6c2.4,1.1,4.7,2.2,6.9,3.3
	c-1.3,1.5-2.8,3-4.2,4.6c-3.4,4-5.2,8.7-6.4,13.8c-1,4.1-2.5,8.1-3.6,12.3c-0.7,2.6-1,5.4-1.4,8.1c-0.1,0.7,0.2,1.5,0.7,2.3
	c0.7-1.4,1.6-2.7,2.1-4.2c2.3-6.4,4.7-12.8,6.8-19.2c1.9-6,4.9-11.5,9.2-16.1c0.8-0.8,2.5-0.8,3.8-1.1c1.1-0.3,2.2-0.6,3.3-0.9
	c0.6-0.2,1.2-0.5,1.7-0.5c2,0,4.1,0.2,6.1,0.3c1.2,0,1.8,0.7,1.9,1.8c0.1,2.4,0.1,4.7,0.3,7.1c0.4,5.2-1.7,9.8-3,14.6
	c-1.6,6-4.4,11.5-7.6,16.8c-0.6,0.9-0.9,2-1.2,3c-0.1,0.4,0.2,1,0.4,1.2c0.3,0.2,0.9,0,1.2-0.3c2.7-2.6,5.1-5.3,6.2-9.1
	c1.5-5,4.5-9.1,8.6-12.4c2.5-2,2.8-4.8,2.4-7.6c-0.7-4.8-1.8-9.5-2.7-14.3c3.1-0.4,4.8,0.6,5.6,4.1c0.8,3.4,1.1,6.8,1.7,10.3
	c0.7,4.1-1.6,6.9-3.9,9.8c-3.9,4.8-7.9,9.6-11.5,14.6c-4.3,5.8-8.3,11.9-12.4,17.8c-0.3,0.4-0.5,0.8-0.7,1.2
	c0.1,0.1,0.2,0.3,0.4,0.4c1.6-1.5,3.4-2.8,4.8-4.5c1.8-2.1,3-4.7,4.9-6.8c1.8-2.1,4.2-3.7,6.2-5.6c3.1-3,6.2-6.1,9.3-9.2
	c1.6-1.6,3.3-3.2,4.8-4.9c1.9-2,1.4-4.6,1.3-7c-0.2-2.4-0.4-4.7-0.6-7.1c-0.3-2.3-0.6-4.6-0.9-6.8c-0.1-1.3-0.2-2.6-0.3-3.9
	c0.3-0.1,0.5-0.2,0.8-0.2c1.8,3.2,3.7,6.3,5.3,9.7c2.4,5.3,1.9,10.8-0.4,15.8c-2.1,4.6-4.7,9.2-9,12.5c-2.2,1.7-3.8,4.1-5.3,5.9
	c0.7-0.4,1.8-1.2,2.9-2c3.1-2.3,6.3-4.5,9.2-7c2.6-2.2,4.9-4.8,7.1-7.3c0.7-0.8,1-1.9,1.5-2.9c0.3-0.6,0.5-1.3,0.7-2
	c0.2,0,0.3,0,0.5,0c0.2,0.6,0.6,1.2,0.5,1.7c-0.4,3.1-0.6,6.3-1.3,9.3c-0.6,2.3-2.8,3.5-4.7,4.7c-3.1,2-6.1,4-9.4,5.7
	c-4.1,2.1-8.3,4-12.5,5.9c-0.6,0.3-1.1,0.6-1.6,0.8c-2.1,1-4.3,2-6.4,3c-0.4,0.2-0.7,0.4-1.1,0.6c0.1,0.1,0.1,0.3,0.2,0.4
	c2.1-0.2,4.3-0.5,6.4-0.6c4-0.2,8-0.2,12-0.4c2.5-0.1,4.9-0.6,7.3-1c1.3-0.2,2.5-0.6,3.4,0.8c1.2,1.9,2.5,3.7,3.5,5.7
	c2.8,5.5,3.2,11.5,3.6,17.6c0.3,3.9,0.8,7.8,1.2,11.6c0.2,2.1,0.1,4.1,0.3,6.2c0.1,1.3,0.4,2.7,0.8,3.9c0.2,0.5,1,0.7,1.5,1.1
	c0.2-0.5,0.6-1,0.7-1.5c0.5-3.7,0.9-7.3,0.2-11c0-0.2,0.1-0.4,0.4-0.7c1,2.1,2,4.2,1.8,6.7c-0.5,4.9-1,9.8-1.7,14.7
	c-0.6,3.7-0.8,7.5-2.9,10.8c-0.2,0.3-0.3,0.5-0.6,0.8c-2.3-3.3-4.2-6.8-6.8-9.7c-2.5-2.9-5.1-5.9-9-7c-0.2,0.1-0.3,0.3-0.5,0.4
	c0.5,0.7,1,1.4,1.6,1.9c6.1,5.1,9.7,11.8,12.1,19.2c0.3,0.9,0,2,0,3.4c-0.8-0.6-1-0.7-1.1-0.9c-1.8-2.7-3.5-5.5-5.4-8.2
	c-2.3-3.4-4.5-6.8-7.1-9.9c-4-4.9-9.3-8-15.2-10.1c-1.1-0.4-2.4-0.4-3.7-0.3c3.1,2.1,6.2,4.1,9.2,6.2c6,4.1,10.4,9.7,13.9,16
	c2.6,4.7,4.9,9.6,7.6,14.3c1,1.7,2.6,3,4.1,4.4c4.9,4.8,10.4,9.1,11.3,17.1c-0.5-0.8-0.8-1.3-1.2-1.8c-1.4-2-2.7-4.1-4.4-5.8
	c-3.3-3.3-6.9-6.3-10.4-9.4c-1.7-1.5-3.7-2-6.1-2c0.2,0.8,0.2,1.6,0.5,2c2,2.5,4,5.1,6.3,7.3c3.8,3.5,6.9,7.6,7.8,12.6
	c0.5,3.1-0.1,6.6-1,9.7c-1.9,6.2-4.3,12.3-6.5,18.4c-0.6,1.5-1,3.1-1.5,4.7c-0.1,0.4,0.1,0.9,0.2,1.3c0.4-0.2,0.8-0.3,1.2-0.5
	c0.6-0.3,1.1-0.7,1.8-1.2c0,1.4,0,2.5,0,3.7c-3.4,1.8-6.7,2.4-10.3,0.2c-2.5-1.5-5.3-2.6-8.1-3.8c-3.2-1.4-4.4-4.3-5.3-7.3
	c-0.6-2-1.1-4.1-1.4-6.2c-0.2-1.7,0.1-3.5,0.2-5.3c0-0.7-0.2-1.4-0.2-2.1c-0.2,0-0.4,0-0.6-0.1c-0.6,2.5-1.7,5-1.7,7.4
	c0,3.6,0.6,7.3,1.2,10.8c0.5,2.8,2.5,4.7,4.7,6.2c3.2,2.2,6.4,4.5,9.8,6.3c3.7,1.9,7.5,3.7,10.3,6.8c2.1,2.4,4.3,5,5.7,7.9
	c1.5,3.2-2.4,8.5-5.9,8.9c-0.9,0.1-1.8,0.3-2.7,0.3c-0.8,0-1.7-0.2-2.3-0.7c-2.2-1.5-4.2-3.2-6.3-4.8c0.6,2.3,1.7,4.3,3.9,5.7
	c0.9,0.6,1.9,1.1,2.8,1.8c4.5,3.8,7.8,1.9,11.3-1.1c1.6-1.4,2.4-3.6,3.5-5.5c2.5-4.1,4.7-8.6,9-11.2c1-0.6,1.8-1.6,2.7-2.4
	c0.1,0.2,0.2,0.5,0.2,0.9c-0.1,4.5,0.3,9.1-1.4,13.5c-1.1,2.9-1.7,6-3.3,8.8C511,449.2,504.5,451.1,497.2,448.6z M386.8,281.2
	c-1-0.7-1-1.7-0.2-2.7c0.8-0.9,1.6-1.1,2.7-0.5c2.9,1.5,3.2,2.5,1.8,5.9C389.6,282.9,388.1,282.1,386.8,281.2z M387.6,284.5
	c0,0.2-0.1,0.4-0.1,0.6c-1.6,0.3-3.1,0.6-4.7,0.9c-0.1-0.1-0.3-0.2-0.4-0.3c0.7-0.8,1.3-2,2.1-2.1
	C385.4,283.4,386.6,284.2,387.6,284.5z M395.5,261.3c0.6-0.3,1.8,0.3,2.5,0.4c-1.4,3.1-2.7,5.9-4,8.8c-2.5-1.5-2.3-4.1-2-6.1
	C392.3,263.2,394.1,262.1,395.5,261.3z M394.8,255.6c1.6-5.6,5-10.6,8.5-15.7c0.3,0.3,0.6,0.4,0.6,0.5c0.8,3.9,1.6,7.7,2.3,11.6
	c0.3,1.8-0.4,3.2-1.9,4.2c-1.1,0.7-2.1,1.7-2.8,2.3C399.2,257.5,397.1,256.6,394.8,255.6z M393.9,275.3c-0.1,1-0.2,1.7-0.3,2.4
	c-0.9-0.3-1.8-0.5-2.7-0.8c0-0.3,0.1-0.5,0.1-0.8C391.8,275.9,392.6,275.7,393.9,275.3z M385,296.1c2.9-2.9,2.9-2.9,5-1.7
	C388.9,297.2,387.2,297.9,385,296.1z M506.7,240.1c0-1.5,0.2-3,0.8-4.6c0.7,2.5,1.6,4.9,2.2,7.5c0.9,3.9,1.6,7.8,2.4,11.8
	c0.1,0.3,0.1,0.7,0.2,0.9c1.6,1.8,1.5,3.8,1.1,6c-0.5,2.5,0.1,5.3-2.2,7.4c0.1-2,0.3-4.1,0.3-6.1c0-1.4,0-2.8-0.3-4.1
	c-0.4-1.8-1-3.6-1.6-5.4c-0.2-0.6-0.3-1.4-0.8-1.8C505.6,248.2,506.8,244,506.7,240.1z M527.3,476.7c2.4,1.8,4,4.6,6,7
	c0.8,1,1.6,1.9,2.3,2.9c1,1.4,2.2,2.7,2.9,4.2c0.3,0.8-0.2,1.9-0.4,2.9c-0.8-0.2-1.5-0.5-2.3-0.7c-0.6-0.2-1.3-0.3-1.9-0.5
	c0.1,0.7,0,1.5,0.4,1.9c0.6,0.7,1.4,1.3,2.2,1.8c2.3,1.3,2.4,2,0.7,4.4c-1.8-1.2-3.6-2.4-5.5-3.6c-1.1,1.3-0.8,2.4,0.1,3.2
	c1.1,0.9,2.3,1.6,3.4,2.4c0.5,0.4,0.9,1,1.4,1.6c-0.4,0.3-0.8,0.9-1.3,0.9c-0.7,0-1.6-0.1-2.1-0.5c-1.4-1.4-2.6-2.9-3.9-4.4
	c-0.4-0.5-1-0.8-1.5-1.3c-0.2,0.1-0.3,0.1-0.5,0.2c0.2,0.7,0.2,1.5,0.6,2.1c1.1,2,2.3,4,3.4,6.1c0.3,0.6,0.1,1.3,0.1,2
	c-0.6-0.1-1.3-0.1-1.8-0.3c-0.6-0.2-1.3-0.5-1.7-1c-2.5-2.5-5.1-5-7.5-7.7c-3.2-3.6-4.3-8.2-4.7-12.9c-0.3-3.8-2.2-6.5-5-8.7
	c-2.3-1.8-3.9-4.2-4.9-6.9c-0.4-1.2,0.2-1.7,1.3-2.1c3.8-1.4,7.8-1.4,11.7-1.4c0.5,0,1.2,0.7,1.5,1.3
	C521.8,473,524.6,474.7,527.3,476.7z M542,365.2c-2.6,0.1-4.6,1.2-5.8,3.5c-0.6,1.1-1.2,1.3-2.1,0.3c-3.6-4.3-7.3-8.6-10.8-12.9
	c-1.7-2.1-2.3-8.5-1-10.6c1.7,2.7,3.3,5.4,5,8.1c1.3,2,2.9,3.7,5.4,4.1c1.3,0.2,2.5,0.4,2.7-1.5c0-0.4,0.6-0.8,0.9-1.1
	c2.3,3.4,4.4,6.6,6.7,10C542.5,365,542.3,365.2,542,365.2z M527.6,278c1.5,1.6,1.2,3.8,1.1,5.9c-0.1,2.1,0.1,4.2,0.3,6.3
	c0.5,4.2,2.5,7.8,5,11c1.8,2.2,4,4.1,6.2,5.9c4.7,3.7,7.6,8.6,10.2,13.9c0.7,1.5,1.7,2.8,2.4,4.3c0.4,0.7,0.9,1.6,0.7,2.3
	c-0.9,4.1-2,8.1-3.1,12.2c-1.2,4.2-4.7,6.6-7.7,9.3c-1.1,1-2.8-0.1-2.9-1.7c-0.1-1.5-0.2-3-0.4-4.5c-0.5-4.1-2.9-6-7-5.4
	c-0.4,0.1-0.8,0.1-1.2,0.2c-0.1-0.2-0.2-0.3-0.2-0.5c0.9-0.6,1.8-1.2,2.8-1.8c3.2-1.8,6.6-3.2,9-6.1c0.5-0.5,0.7-1.6,0.5-2.2
	c-1.3-4.3-2.8-8.6-4.2-12.8c-0.2-0.6-0.4-1.3-0.8-1.6c-2.6-2.3-5.2-4.7-8.6-5.8c-0.2,0.2-0.4,0.3-0.6,0.5c0.6,1,1.1,2.1,1.9,2.9
	c2.9,2.8,3.6,6.6,4.4,10.3c0.3,1.2-1,2.7-1.5,4.1c-0.2,0-0.4,0-0.5,0c-0.3-0.6-0.6-1.1-0.8-1.7c-2-4.8-4-9.7-6-14.5
	c-0.5-1.2-1.5-1.4-2.6-1.1c-1.5,0.4-2.9,0.9-4.3,1.4c-1.3,0.5-1.9,0.1-1.9-1.2c0-1.5,0-2.9,0-4.4c-0.3-5.9,0-11.6,2.1-17.2
	c0.5-1.3,0.1-3,0.1-4.5c0-3.3,0-6.6,0-10c0.2-0.1,0.3-0.2,0.5-0.2C522.9,273.4,525.4,275.6,527.6,278z M528.8,172.4
	c0.2,0,0.4,0,0.7,0c0.2-1.5,0.4-3,0.6-4.5c0.9-6.2,1.9-12.5,1.6-18.8c-0.1-1.4,0.3-2.9,0.4-4.3c0.2,0,0.3,0,0.4,0
	c0.1,0.9,0.4,1.9,0.4,2.9c0,2.5,0.6,4.8,1.8,7c0.4,0.8,0.4,2,0.1,2.9c-0.6,1.9-0.5,3.7,1.1,5c1.5,1.3,1.7,2.4,0.9,4.4
	c-4.4,9.9-8.5,19.8-12.8,29.7c-2.3,5.4-4.8,10.8-7.2,16.2c-0.1,0.2-0.3,0.4-0.5,0.7c-0.8-1.4-1.8-1-2.6-0.1c-0.8,1-1.4,2.1-2.1,3.1
	c-0.3,0.4-0.6,0.8-0.9,1.3c-0.2-0.1-0.4-0.1-0.6-0.2c0.4-1.8,0.7-3.7,1.4-5.4c1.1-2.6,2.5-5.1,3.8-7.6c3.8-7.5,6.4-15.3,5.8-23.8
	c-0.1-1-0.1-2-0.2-2.9c0-0.3-0.2-0.6-0.7-1c-0.6,3.7-0.7,7.5-1.9,11.1c-1.1,3.5-3.2,6.8-4.9,10.2c-1.7,3.3-3.5,6.6-7.2,8.5
	c0-0.3-0.1-0.6-0.1-0.6c3.2-3.8,5-8.3,7-12.7c1.1-2.5,1.6-5.2,2.3-7.9c1-3.7,2.2-7.4,3-11.1c0.6-2.8,0.6-5.7,0.8-8.5
	c0.2-1.8,0.4-3.7,0.5-5.5c0.1-2.2,0-4.4,0-6.6c-0.2,0-0.4-0.1-0.7-0.1c-0.3,0.3-0.6,0.5-0.8,0.9c-1.1,2.3-1.8,4.5-1.8,7.2
	c-0.1,4.5-1.1,8.9-2.1,13.3c-1.5,6.5-4,12.6-9.1,17.2c-1.4,1.3-3,2.4-4.6,3.7c-0.8-2.3-0.7-3.5,1-5.1c4.9-4.6,7.2-10.6,8.3-17.2
	c0.5-3.2-0.3-6.7,1.7-9.7c0.6-0.9,0.3-2.5,0.5-3.7c0.6-4.2,1.2-8.4,1.9-12.6c-0.2-0.1-0.5-0.1-0.7-0.2c-0.4,1.5-0.8,2.9-1.2,4.4
	c-1.1,3.9-2.1,7.9-3.2,11.8c-0.6,2.4-1.3,4.8-1.9,7.2c-1.1,4.6-3.3,8.6-6.7,12c1-2.8,2.2-5.5,2.9-8.4c0.6-2.3,0.6-4.7,0.9-7
	c0.9-6,1.3-12,2.8-17.8c1-4,3.3-7.7,5.1-11.5c2.2-4.8,4.6-9.5,5.1-14.9c0-0.5,0.2-1.1,0.5-1.5c3.7-4,7.4-8,11.1-12.1
	c0.1,0.1,0.3,0.2,0.4,0.2c-0.2,0.5-0.2,1.1-0.5,1.6c-1.2,1.9-2.2,3.9-3.7,5.4c-2.8,2.7-3.8,6.2-4.6,9.8c-1.3,5.9-2.5,11.8-3.5,17.7
	c-0.3,1.9-0.2,3.9-0.2,5.8c0,0.4,0.4,0.8,0.7,1.5c2-3.1,2.3-6.3,3-9.5c1-5.1,2.1-10.2,2.9-15.4c0.6-3.4,3-5.6,4.7-8.3
	c3.6-5.4,7.4-10.6,11.2-15.8c0.2-0.3,0.5-0.6,0.8-0.9c0.1,0.1,0.3,0.1,0.4,0.2c-2.2,6.6-4.4,13.3-6.8,20.4c-0.6-1.6-1-2.6-1.4-3.6
	c-2.1,8.7-3.2,17.6-3.4,26.6C528.6,154.5,527.9,163.4,528.8,172.4z M538.2,127.6c0.9-5.7,2.2-11.3,3.7-16.9c1.1-4,2.9-7.8,4.5-12
	c1.7,0.8,3,1.2,4.2,2c0.4,0.3,0.6,1.3,0.5,1.9c-1.1,4.3-2.4,8.6-3.5,12.8c-1.5,5.8-3,11.7-4.4,17.5c-0.3,1.1-0.4,2.3-0.8,3.4
	c-0.1,0.4-0.6,0.8-1,1c-0.9,0.4-1.8,0.5-3.2,0.9C538.1,134.7,537.7,131.1,538.2,127.6z M551.3,154.9c-2.3-0.3-4.4-1.2-6.7-1.7
	c-1-0.2-2-0.4-3.1-0.5c-2.1-0.1-3.4-1.3-3.4-3.4c0-1.3,0.1-2.7,0.4-4c0.4-2,0.9-3.9,1.4-5.9c0.2-0.6,0.7-1.1,1.1-1.7
	c0.2,0.1,0.5,0.2,0.7,0.3c-0.2,1-0.4,2.1-0.6,3.1c-0.4,2.4-0.9,4.9-1.3,7.4c-0.1,0.5,0.3,1.3,0.6,1.4c0.7,0.2,2,0.4,2.3,0
	c1.8-2.2,4.4-1.8,6.7-2c7-0.8,14-0.1,20.9,1c0.5,0.1,1,0,1.5,0.1c0.4,0,0.8,0.1,1.4,0.2C566.3,153,559.3,156,551.3,154.9z
	 M574.4,144.8c-5.7-0.4-11.1-0.7-16.8-1c0-2.5,0.1-5.1,0-7.6c-0.2-2.7,0.7-4.7,3.1-6c2.2-1.2,4.3-2.7,6.5-4.1
	c0.5-0.3,0.9-0.9,1.6-1.7C570.6,131.1,572.4,137.7,574.4,144.8z M591.3,82.4c-1.7,7-5.1,13.3-9.2,19.2c-3.5,5-7.1,9.9-10.6,14.9
	c-0.2,0.3-0.4,0.6-0.9,1.3c-0.9-2.8-1.7-5-2.3-7.3c-1.3-5-2.4-10.1-3.7-15.1c-0.9-3.4-2.1-6.7-3.4-10c-0.4-1-0.3-1.5,0.4-2.2
	c5.2-5.6,12.1-7.4,19.3-8.5c1.6-0.2,3.3-0.4,4.9-0.6c1.4-0.2,2.5,0.1,3.3,1.4c0.2,0.4,0.5,1,0.9,1.1C592.9,78,591.8,80.3,591.3,82.4
	z M592.7,16.8c-1.6,3.7-0.6,7.6-0.8,11.5c-0.2,5.8-0.6,11.7-0.8,17.5c-0.1,3.9,0.1,7.8,0.2,11.7c0.1,2.7,0.2,5.5,0.2,8.2
	c0,0.5-0.5,1.3-1,1.5c-1.4,0.6-2.8,1.2-4.3,1.4c-4.1,0.8-8.3,1.4-12.4,2.1c-0.3,0.1-0.7,0-1.4,0c4.3-5.3,6.2-11.3,8.5-17.2
	c0.9-2.3,1.7-4.7,2.8-6.9c1.5-3.2,0.8-6.5,0.8-9.7c-0.1-4-0.5-8-0.3-12c0.2-3.3,2-6.2,4.4-8.6c1.5-1.5,2.5-3.4,3.7-5.1
	c0.5-0.7,1.1-1.2,1.7-1.8c1.4-1.3,2.8-2.6,4.1-3.9c0.2,0.1,0.3,0.2,0.4,0.3c-0.7,1-1.2,2.1-2,3C594.7,11.3,593.8,14.1,592.7,16.8z
	 M595.7,26.2c0.1,4.4-0.2,8.7-0.4,13.1c-0.1,1.8-0.4,3.5-0.6,5.3c-0.2,0-0.4,0-0.6,0c-0.1-0.2-0.2-0.4-0.2-0.7
	c0.2-3.9,0.6-7.9,0.5-11.8c0-3.5-0.4-7-0.8-10.5c-0.2-1.8-0.4-3.4,1.2-4.6c0.4-0.3,0.7-0.8,0.8-1.2c0.5-1.9,1.5-1.3,2.7-0.5
	C593.8,18.1,595.6,22.3,595.7,26.2z M597.4,19.7c0.7-1,0.9-1.9,1.5-2.2c2.7-1.3,5.5-2.5,8.3-3.6c0.5-0.2,1.4,0.1,1.7,0.6
	c0.2,0.4,0,1.3-0.4,1.7c-2.7,2.6-6,3.8-9.6,4.5C598.6,20.8,598.1,20.2,597.4,19.7z M599.4,24.6c2-0.8,4-1.7,6.1-2.3
	c0.6-0.2,1.4,0.5,2.1,0.8c-0.3,0.7-0.4,1.6-0.9,1.9c-2.3,1.3-4.7,1.1-7.1,0.4C599.5,25.1,599.5,24.9,599.4,24.6z M637.5,99.6
	c0.4,2.6,0.8,5.2,1.2,7.8c0.5,2.9,1.2,5.7,1.7,8.6c0.8,4.8,1.5,9.5,2.3,14.3c0.7,4,1.4,7.9,2.2,11.8c0.3,1.5-0.1,1.8-1.5,1.8
	c-3.3-0.2-6.7-0.3-10.1-0.3c-1.9,0-2.4-0.8-2.2-2.4c0.5-3.6,1.1-7.2,1.6-10.8c0.4-3.5,0.8-7,1-10.4c0.3-4.5,0.5-9.1,0.7-13.6
	c0.1-1.9,0.1-3.8,0.2-5.6c0.2-4.2,0.5-8.5,0.7-12.7c0-0.3,0.1-0.6,0.2-0.9c0.1,0,0.2,0,0.4,0c0.2,1.5,0.5,3,0.7,4.6
	C636.9,94.3,637.1,97,637.5,99.6z M639.7,72c-2.2,2.5-4.8,1.8-7.1,2C634.7,72.9,636.7,71.5,639.7,72z M615.7,137.9
	c1.8-6.2,3.7-12.5,5.5-18.7c0.7-2.4,1.1-5,2-7.4c2.5-6.2,4.2-12.6,5.7-19c0.4-1.6,1.3-3,2-4.5c0.2,0.1,0.5,0.2,0.7,0.2
	c-0.1,1.7-0.4,3.5-0.4,5.2c-0.2,5.5-0.1,11.1-0.4,16.6c-0.4,6.4-1.1,12.8-1.7,19.2c-0.4,4.2-0.8,8.3-1.1,12.5
	c-0.1,0.9-0.2,1.6-1.4,1.8c-4,0.5-7.9,1.1-11.9,1.7c-0.2,0-0.3-0.1-0.8-0.1C614.5,142.9,615,140.4,615.7,137.9z M641.6,151.5
	c-2.3,0.5-4.7,0.4-7,0.6c-0.8,0.1-1.7,0.1-2.4,0.5c-7.1,3.5-14.1,3.4-21.1-0.2c-0.3-0.2-0.6-0.4-0.8-0.6c3.3-4.4,8.3-3.2,12.6-4.3
	c0.8-0.2,1.6-0.3,2.3-0.3c1.6-0.1,3.6-0.7,3.1,2.3c1-0.2,1.7-0.4,2.7-0.6c-0.7-1.7,0.4-1.9,1.8-1.7c3.8,0.4,7.5,0.7,11.3,1.1
	c0.6,0.1,1.2,0.3,1.7,0.5c0.1,0.2,0.1,0.4,0.2,0.5C644.5,149.9,643.2,151.1,641.6,151.5z"/>
<path fill="#EDEDED" fill-opacity="0.3" d="M436.5,353c-2-8.2-2.1-16.7-2.9-25c-0.4-4.4-0.4-8.9-0.3-13.4c0-4.2,0.3-8.4,0.6-12.6
	c0.1-1.9-0.2-3.5-1.6-5.1c-3.2-3.8-4.2-8.5-4.5-13.3c0.2-0.1,0.4-0.2,0.5-0.2c1.7,3.8,3.4,7.6,5.1,11.4c0.2,0,0.4-0.1,0.7-0.1
	c0.2-0.8,0.5-1.6,0.6-2.4c0.6-3.9-1-7.3-3-10.5c-2.1-3.3-3.5-6.9-3.7-10.9c-0.1-2.4-0.9-4.8-1.4-7.2c-0.2,0-0.5,0-0.7,0.1
	c0.9,5.4-1.5,10.8,1.1,16.3c-0.8-0.2-1.3-0.4-2-0.6c-0.2,0.9-0.6,1.7-0.6,2.5c0,1.7,0.1,3.4,0.4,5.1c0.5,3.2,0.8,6.6,2,9.6
	c1.3,3.3,1.9,6.7,2.3,10.1c0.2,1.9,0.5,3.9-0.3,5.7c-4.3-1.2-5.5-5.2-8.3-7.7c0.6,8.9,3.9,17.1,5.8,25.8c-1-0.8-1.8-1.7-2.6-2.6
	c-2.4-3.1-4.9-6.1-7.1-9.3c-2.7-4.1-6.3-7.6-7.6-12.6c-0.4-1.7-1.9-3.1-2.9-4.6c-0.2,0.1-0.4,0.3-0.6,0.4c0.1,0.3,0.1,0.7,0.3,1
	c2,4.1,3.9,8.3,6.1,12.2c6.2,10.8,12.6,21.4,18.9,32.2c1,1.7,1.5,3.5,2.2,5.3c0.6,1.5,1,3,1.6,4.5c2.7,6.3,5.5,12.5,8.2,18.7
	c0.6,1.4,1.5,2.8,2.2,4.2c0.2-0.1,0.3-0.1,0.5-0.2c0-0.6,0.2-1.2,0-1.7c-2.1-5.7-4.2-11.4-6.3-17.1
	C438.3,358.1,437.2,355.6,436.5,353z"/>
<path fill="#EDEDED" fill-opacity="0.3" d="M435.6,285.8c1-1.3,2-2.6,3-3.9c1.6-2.2,2.8-4.7,4.8-6.4c2.6-2.4,5.8-4.2,8.7-6.3
	c1.7-1.3,3.3-2.6,3.6-5.1c0.3-2.6,0.7-5.2,1.3-7.7c1.1-4.2,2.3-8.3,3.6-12.4c0.2-0.7,0.5-1.4,0.8-2c1.4-2.9,2.7-5.8,4.1-8.7
	c0.8-1.6,1.6-3.3,2.4-4.9c0.9-1.8,2-3.6,2.9-5.5c0.2-0.3,0-0.8,0-1.2c-1,0.6-1.7,1.4-2.3,2.2c-5.9,6.5-11,13.5-13.7,22
	c-1.5,4.6-3.5,9.1-3.6,14.1c-0.1,3.4-2.2,5.6-4.5,7.8c-2.7,2.6-5.9,4.7-7.7,8.2c-1,1.8-2.2,3.5-3.1,5.4c-0.7,1.3-1.5,2.6-0.9,4.2
	C435.2,285.6,435.4,285.7,435.6,285.8z"/>
<path fill="#EDEDED" fill-opacity="0.3" d="M442.4,173.9c0.2,0.1,0.4,0.2,0.6,0.3c3.9-2.8,5.4-7.4,7.5-11.2c1.2,0.1,2.1,0.1,2.9,0.3
	c0.5,0.2,1.1,0.8,1.3,1.3c0.2,0.6-0.1,1.3-0.3,2c-1.5,4.4-3,8.9-4.5,13.3c-0.8,2.3-1,4.5-0.5,7.3c3.9-3,4.2-7.2,5.4-11
	c1.3-3.9,2.6-7.8,4-12c6,0.4,12.5,1.8,18.5-2.1c-1.5-0.2-3-0.3-4.4-0.5c-2.7-0.3-5.5-0.3-8.2-0.8c-3.3-0.7-6.5-1.7-9.7-2.6
	c-2.5-0.7-4.4,0.2-5.3,2.7c-0.2,0.5-0.4,1-0.7,1.5c-1.9,3-3.8,6-5.6,9C442.9,172,442.8,173,442.4,173.9z"/>
<path fill="#EDEDED" fill-opacity="0.3" d="M440,320.1c-0.3-4.7-0.6-9.5-0.5-14.3c0.2-5.6,0.9-11.2,1.3-16.7c0-0.5-0.1-1-0.2-1.5
	c-0.2-0.1-0.4-0.1-0.6-0.2c-0.4,0.6-1,1.1-1.2,1.7c-0.5,1.4-0.9,2.9-1.1,4.4c-0.5,3.9-1,7.7-1.2,11.6c-0.2,5.6-0.2,11.3-0.2,16.9
	c0,1.9,0.4,3.9,0.7,5.8c1,6.9,2,13.8,3.2,20.7c0.7,4.1,1.7,8.1,2.7,12.1c0.1,0.3,0.4,0.5,0.7,0.8c0.2,0,0.4-0.1,0.5-0.1
	c-0.1-1.6,0-3.3-0.3-4.8c-1.4-6.8-2.5-13.6-2.8-20.6C441,330.7,440.3,325.4,440,320.1z"/>
<path fill="#EDEDED" fill-opacity="0.3" d="M420.7,341.5c-1.9-2.5-4.3-4.7-6-7.3c-5.4-8.2-10.2-16.7-14.4-25.6
	c-0.1-0.2-0.3-0.4-0.5-0.6c-0.7,0.6-1.3,1-1.8,1.6c-0.4,0.5-0.8,1.3-0.6,1.8c1.2,2.9,2.4,5.9,4,8.7c2,3.5,4.2,6.8,6.5,10.2
	c2.6,3.9,5.1,8,8.1,11.7c2.7,3.3,5.9,6.1,9,9.1c0.5,0.5,1.3,0.8,2.3,1.4c-0.2-0.8-0.2-1.2-0.4-1.5
	C424.8,347.6,422.9,344.5,420.7,341.5z"/>
<path fill="#EDEDED" fill-opacity="0.3" d="M430.1,177.8c0.9,1.3,2.2,1,2.9-0.1c0.8-1.4,1.5-3,1.6-4.5c0.2-1.6,0.6-2.7,1.9-3.5
	c1-0.6,2.2-1.1,3.3-1.5c3.3-1.1,5.8-3,7.5-6.3c-0.8,0.3-1.5,0.5-2.3,0.8c-1.3,0.5-2.6,1.1-3.9,1.4c-2.3,0.5-4.6,0.7-6.8,1.2
	c-2.2,0.4-4.1-1.1-6.5-0.3c-1.9,0.7-4.2,0.5-6.7,0.7c0.6,0.4,0.8,0.6,1,0.7c2.9,1.1,4.4,3.3,5.2,6.2
	C427.8,174.4,429,176.2,430.1,177.8z"/>
<path fill="#EDEDED" fill-opacity="0.3" d="M476.8,167.7c0.6,2.4,1.6,4.9,1.8,7.4c0.5,5.1,0.3,10.2,0.9,15.3
	c0.3,3.5,0.7,7.2,3.4,10.1c0.5-0.1,1-0.3,1.7-0.5c-0.5-1.7-0.9-3.1-1.2-4.6c-0.4-2-1-4.1-0.9-6.1c0.2-3.6,0.7-7.2,1.2-10.7
	c0.6-3.9-0.6-7.2-2.6-10.4c-1.1-1.8-3.1-2.4-4.9-1.9C476.3,166.8,476.6,167.2,476.8,167.7z"/>
<path fill="#EDEDED" fill-opacity="0.3" d="M438,195.1c-0.1-0.2-0.3-0.4-0.4-0.6c-1.1,0.3-2.3,0.7-3.4,1c-1.8,0.6-3.2-0.2-4.2-1.4
	c-0.4-0.5-0.6-1.6-0.3-2.3c1.8-4,1-7.9-0.7-12.4c-2.2,5-1.6,10.4-5.1,14.4c-3.3,3.8-7.3,6.6-12,8.5c5.1,0.3,9.4-2.3,14-3.4
	c1.9-0.5,4-1,5.9-0.7c1.6,0.3,2.4-0.1,3.3-1C436.1,196.6,437.1,195.9,438,195.1z"/>
<path fill="#EDEDED" fill-opacity="0.3" d="M487.4,174.5c0.2,4.1,0.1,8.3,0.4,12.4c0.3,4.1,0.8,8.1,1.5,12.1
	c0.3,1.8,1.5,3.5,2.4,5.5c0.4-0.6,0.5-0.7,0.5-0.8c0-0.3,0-0.6-0.1-0.9c-1.6-6.5-2-13.1-2.1-19.8c-0.1-3.3,1.4-6.5,0-9.8
	c-1.1-2.6-1.8-5.5-3-8c-0.6-1.4-2-2.4-3.1-3.6c-0.2,0.2-0.5,0.4-0.7,0.6c0.3,0.6,0.5,1.2,0.8,1.7
	C485.7,167.4,487.2,170.7,487.4,174.5z"/>
<path fill="#EDEDED" fill-opacity="0.3" d="M481.1,268.9c-4-1.5-21.7,1-27.3,4.2c-6.2,3.5-12.1,7.5-16.4,13.4
	c0.1,0.2,0.3,0.4,0.4,0.5c0.8-0.6,1.8-1,2.4-1.7c4.6-5.9,10.9-9.2,17.8-11.2c5.5-1.6,11.2-2.5,16.9-3.8
	C476.8,269.9,478.8,269.4,481.1,268.9z"/>
<path fill="#EDEDED" fill-opacity="0.3" d="M399.7,187c-0.7-0.1-2,0.1-2.3,0.5c-0.4,0.7-0.3,2,0.1,2.7c1,1.6,2.4,3,3.7,4.4
	c0.3,0.3,0.9,0.6,1.4,0.5c0.2,0,0.5-0.7,0.6-1.1c0.1-0.4,0.1-0.8,0.2-1.3C403.5,191.6,400.8,187.2,399.7,187z"/>
<path fill="#EDEDED" fill-opacity="0.3" d="M452.7,54.4c0.9-1,1.5-2.5,2.5-3.1c2.1-1.2,5.3-0.3,7,1.5c0.3,0.3,0.8,0.6,1.2,0.6
	c0.3,0,0.5-0.7,0.6-1.1c0.1-0.8-0.3-2.1,0.1-2.4c1.6-1.2,1.6-2.9,1.9-4.6c0.5-2.2-0.5-3.3-2.8-2.6c-1.1,0.4-2.6,1.1-3,2.1
	c-1,2.8-3.3,2.9-5.6,3.5c-1.3,0.4-3.5,0.1-3.6,2.1c-0.1,3.1-1.9,4.6-4.2,6.1c-1.4,0.9-2.5,2.2-3.8,3.4c0.1,0.2,0.3,0.4,0.4,0.6
	c0.4-0.1,0.8-0.2,1.2-0.4c1.8-1,3.6-1.8,5.2-3C451,56.4,451.9,55.4,452.7,54.4z"/>
<path fill="#EDEDED" fill-opacity="0.3" d="M470,77.1L470,77.1C470,77,470,77,470,77.1C470,77,470,77,470,77.1z"/>
<path fill="#EDEDED" fill-opacity="0.3" d="M470.2,74c-0.8-3.1,0.2-5.6,2.3-7.8c2.4,1.4,3,1.3,4.4-0.8c0.9,0.2,1.7,0.4,2.5,0.6
	c0-0.8,0-1.6,0-2.6c0.3-0.2,0.8-0.5,1.9-1.2c-1.6-0.8-2.8-1.7-4-1.9c-2.4-0.4-4.8-0.4-7.2-0.5c-1.3-0.1-1.9,0.5-1.9,1.8
	c-0.1,4.3-0.2,8.6-0.3,12.9c-0.1,1.6,0.5,2.4,2.1,2.4C470.1,76,470.4,74.9,470.2,74z"/>
<path fill="#EDEDED" fill-opacity="0.3" d="M457,66.7c1,0,2-1,3.2-1.7c0.2,0.7,0.4,1.6,0.6,2.5c2.5-1.3,2.8-3.6,2.7-5.9
	c0-0.5-1.2-1.4-2-1.6c-1.9-0.4-3.9-0.5-5.8-0.7c-3.5-0.3-5.8-0.1-7.5,2.6c2.8,0.1,5.6-1.4,8.6,0.4c-2.6,1.4-6,0.1-7.8,3.5
	c2-0.5,3.7-0.9,4.8-1.2C455.1,65.5,456,66.7,457,66.7z"/>
<path fill="#EDEDED" fill-opacity="0.3" d="M467.1,82.2c-0.3,0.2-0.8,0-1.2,0c-2.1-0.1-4.1,0.2-5.7,2c2.7,0.2,5.2,0.4,7.7,0.6
	c0,0.3,0.1,0.5,0.1,0.8c-1.3,0.6-2.7,1.3-4,1.9c0.1,0.2,0.2,0.5,0.2,0.7c2.1,0.6,4.3,0.6,6.3-0.3c2-0.9,2.2-3.2,0.5-4.6
	C469.9,82.1,468.8,81,467.1,82.2z"/>
<path fill="#EDEDED" fill-opacity="0.3" d="M474.4,50.2c0-0.4,0.1-0.9-0.2-1.2c-1.4-1.5-2.8-3.1-4.4-4.4c-0.8-0.6-1.6-0.1-1.6,1.1
	C468.3,48.5,471.2,50.7,474.4,50.2z"/>
<path fill="#EDEDED" fill-opacity="0.3" d="M465.2,77.8c-1.3-0.8-2.4-0.8-3.8,0.2c1.4,0.4,2.7,0.6,3.8,1.1c3,1.3,3.4,1.2,5.8-1.2
	c-0.3-0.3-0.7-0.6-1-0.9C468.4,78.9,467.2,79.1,465.2,77.8z"/>
<path fill="#EDEDED" fill-opacity="0.3" d="M470,77.1C470,77.1,470,77.1,470,77.1C470,77,470,77,470,77.1L470,77.1z"/>
</svg>

