<svg id="Layer_1" data-name="Layer 1" xmlns="http://www.w3.org/2000/svg" viewBox="0 0 424 98"><defs><style>.cls-1{fill:#474747;}.cls-2{fill:#85bc20;}</style></defs><title>MBEInsights_Logo_102618</title><path class="cls-1" d="M56.69,65H45.09L44.23,45.5a193.54,193.54,0,0,1-.14-20.37L36.38,59.76H25.22L17,25.13a176.42,176.42,0,0,1,.22,20.52L16.36,65H4.84l3.75-49.9h14.9L31,49l7-33.84h15Z"/><path class="cls-1" d="M102.05,50.47C102.05,61.85,92.83,65,80.3,65H64.24V15.12H78.36c13.39,0,21.6,3.38,21.6,12.74,0,6.34-4.54,9.65-9.15,10.73C96.36,39.67,102.05,42.41,102.05,50.47Zm-26-27V35.06h4.39c4.9,0,7.49-1.87,7.49-6.05s-2.73-5.54-8.42-5.54ZM89.88,49.82c0-5-3.53-6.91-8.64-6.91H76.05V56.45h4.32C85.92,56.45,89.88,55.3,89.88,49.82Z"/><path class="cls-1" d="M138,23.54H120.48v12h15.33v8.28H120.48V56.52h18.79V65h-30.6V15.12h30.6Z"/><path class="cls-1" d="M175.41,65H163.6V15.12h11.81Z"/><path class="cls-1" d="M217.46,37.08V65H206.08V39c0-4-1.37-5.11-3.6-5.11-2.52,0-4.61,1.8-6.62,5V65H184.48V26.78h9.94l.79,4.54c3.24-3.75,6.91-5.76,11.67-5.76C213.5,25.56,217.46,29.81,217.46,37.08Z"/><path class="cls-1" d="M253.53,30.24l-4.18,6.41a17.48,17.48,0,0,0-9.43-3c-3.09,0-4.61,1.16-4.61,2.89,0,2,1,2.88,7.85,4.89C250.72,43.63,255,46.8,255,53.64c0,7.92-7.49,12.6-17,12.6a23.76,23.76,0,0,1-16-5.69l5.55-6.19a16.77,16.77,0,0,0,10.15,3.74c3.46,0,5.54-1.29,5.54-3.6,0-2.59-1.15-3.38-8.06-5.32-7.56-2.16-11.31-6-11.31-12,0-6.55,6-11.66,15.63-11.66A22.26,22.26,0,0,1,253.53,30.24Z"/><path class="cls-1" d="M272.18,65H260.8V26.78h11.38Z"/><path class="cls-1" d="M316.31,29c-2.66,1.08-6.19,1.52-11,1.52,4.82,2.08,7.2,4.89,7.2,9.86,0,7.42-6.12,12.82-16.06,12.82a21.72,21.72,0,0,1-4.39-.43,2.45,2.45,0,0,0-1.23,2.16c0,1.15.51,2.3,4.18,2.3h5.76c8.93,0,14.62,4.68,14.62,11.09,0,7.85-6.91,12.67-20,12.67-14.47,0-18.29-4.75-18.29-12.31H287.3c0,3.31,1.44,4.75,8.35,4.75,6.7,0,8.28-1.87,8.28-4.32,0-2.23-1.66-3.74-5.47-3.74h-5.55c-8.35,0-11.73-3.46-11.73-7.56a9.12,9.12,0,0,1,4.53-7.35c-4.89-2.59-6.84-6-6.84-10.94,0-8.64,6.77-14,16.78-14,8.5.21,13.39-2.23,18-5ZM290.18,39.38c0,4.18,2.3,6.48,5.76,6.48,3.74,0,5.76-2.23,5.76-6.62s-1.95-6.19-5.76-6.19C292.41,33.05,290.18,35.42,290.18,39.38Z"/><path class="cls-1" d="M353.75,37.08V65H342.38V39c0-4-1.44-5.11-3.6-5.11-2.52,0-4.61,1.8-6.63,4.9V65H320.77V11.59l11.38-1.15V30.81c3.1-3.45,6.55-5.25,11-5.25C349.79,25.56,353.75,29.81,353.75,37.08Z"/><path class="cls-1" d="M386.3,63.22a19,19,0,0,1-10.37,3c-8.43-.07-12.53-4.82-12.53-13.82V34.7H358V26.78h5.4V18.5l11.38-1.29v9.57h8.78l-1.22,7.92h-7.56V52.27c0,3.67,1.22,5,3.6,5a7.54,7.54,0,0,0,4.1-1.3Z"/><path class="cls-1" d="M417.62,30.24l-4.18,6.41a17.48,17.48,0,0,0-9.43-3c-3.1,0-4.61,1.16-4.61,2.89,0,2,1,2.88,7.85,4.89,7.56,2.16,11.81,5.33,11.81,12.17,0,7.92-7.49,12.6-17,12.6a23.73,23.73,0,0,1-16-5.69l5.54-6.19a16.77,16.77,0,0,0,10.15,3.74c3.46,0,5.55-1.29,5.55-3.6,0-2.59-1.15-3.38-8.07-5.32-7.56-2.16-11.3-6-11.3-12,0-6.55,6-11.66,15.63-11.66A22.26,22.26,0,0,1,417.62,30.24Z"/><path class="cls-1" d="M273.45,13.1a7,7,0,1,1-14,0,7,7,0,1,1,14,0Z"/><path class="cls-2" d="M256.45,12.85a10,10,0,1,1,20,0"/><path class="cls-1" d="M7.63,81.19a4.51,4.51,0,0,1,3.06-1.28c2,0,3.2,1.48,3.2,4.14,0,3-1.48,6.88-5.64,6.88a11.06,11.06,0,0,1-3.72-.7l2-14.33,1.84-.22Zm-.24,1.7-.86,6.26a4.79,4.79,0,0,0,1.86.32c2.62,0,3.6-3.2,3.6-5.56,0-1.88-.78-2.54-1.88-2.54A3.91,3.91,0,0,0,7.39,82.89Z"/><path class="cls-1" d="M20.11,90.79A6.41,6.41,0,0,1,14.61,95l-.08-1.44a4.54,4.54,0,0,0,3.84-2.86l-.7,0-2-10.54h1.92l1.48,9.14,4-9.14H25Z"/><path class="cls-1" d="M42,90.69H39.57l-.88-11.54L34.53,90.69H32.17L31.33,76.9h1.8L33.61,89,38,76.9h2L41,89,45,76.9h1.74Z"/><path class="cls-1" d="M55.93,84.27c0,2.54-1.3,6.66-5.44,6.66-2.62,0-4-1.68-4-4.36s1.34-6.66,5.46-6.66C54.53,79.91,55.93,81.59,55.93,84.27Zm-7.56,2.5c0,1.84.76,2.68,2.18,2.68,2.74,0,3.46-3.36,3.46-5.38,0-1.84-.76-2.68-2.16-2.68C49.11,81.39,48.37,84.75,48.37,86.77Z"/><path class="cls-1" d="M60.13,88.63c-.06.56,0,.78.48.78a1.87,1.87,0,0,0,.72-.16l.38,1.34a3.5,3.5,0,0,1-1.46.34c-1.4,0-2.14-.86-1.9-2.6L60.11,75.9,62,75.68Z"/><path class="cls-1" d="M66.19,87.91c-.16,1.06.08,1.48.94,1.48a2.92,2.92,0,0,0,1.48-.48l.6,1.32a4.34,4.34,0,0,1-2.38.7c-1.82,0-2.74-1.1-2.46-3.06l.88-6.3H63.43l.2-1.42h1.9l.66-2.45,1.44-.16-.36,2.61h2.48l-.4,1.42H67.07Z"/><path class="cls-1" d="M72.59,86.77c0,1.92.94,2.62,2.28,2.62a4.69,4.69,0,0,0,2.82-1l.78,1.24a6.33,6.33,0,0,1-3.78,1.28c-2.58,0-4-1.62-4-4.28,0-2.88,1.42-6.74,5.42-6.74,2.24,0,3.34,1.28,3.34,2.68C79.43,85.55,76.27,86.37,72.59,86.77Zm4.92-4.12a1.28,1.28,0,0,0-1.44-1.28c-2.2,0-3.12,2.08-3.38,4C75.71,85,77.51,84.45,77.51,82.65Z"/><path class="cls-1" d="M88.25,80.05l-.54,1.78a3,3,0,0,0-.86-.1c-1.36,0-2.28,1.24-3,3.38L83,90.69H81.21l1.48-10.54h1.56l-.12,2.16c.8-1.64,1.9-2.4,3.06-2.4A4.38,4.38,0,0,1,88.25,80.05Z"/><path class="cls-1" d="M96.21,81.21l-.88,1.1a4.2,4.2,0,0,0-2.6-.94c-1.28,0-2.1.54-2.1,1.42s.7,1.16,2.12,1.6c2,.62,3,1.5,3,3.16,0,2.34-2.18,3.38-4.38,3.38a5.38,5.38,0,0,1-3.9-1.52l1.06-1.08a4.29,4.29,0,0,0,2.92,1.12c1.86,0,2.38-1,2.38-1.72,0-1.06-.54-1.42-2.22-1.94-2-.62-2.82-1.44-2.82-2.88s1.24-3,4-3A5,5,0,0,1,96.21,81.21Z"/><path class="cls-1" d="M105,90.69h-1.9l1.94-13.79H107Zm3.24-7.3,4.54,7.3h-2.24l-4.42-7.36,6-6.43h2.22Z"/><path class="cls-1" d="M116.71,88.63c-.06.56,0,.78.48.78a1.87,1.87,0,0,0,.72-.16l.38,1.34a3.5,3.5,0,0,1-1.46.34c-1.4,0-2.14-.86-1.9-2.6l1.76-12.43,1.84-.22Z"/><path class="cls-1" d="M128.21,90.69h-1.56l.14-1.94c-1,1.34-2,2.18-3.48,2.18-1.88,0-2.82-1.22-2.54-3.28l1.06-7.5h1.82l-1,7.42c-.2,1.44.16,1.92,1.1,1.92,1.32,0,2.38-1.26,3.2-2.48l1-6.86h1.82Z"/><path class="cls-1" d="M141.57,90.69h-2.5l-.56-8.88-3.14,8.88H133l-1-10.54h1.8l.58,9.26,3.34-9.26h2.06l.66,9.26,3.2-9.26h1.76Z"/><path class="cls-1" d="M147.81,86.77c0,1.92.94,2.62,2.28,2.62a4.69,4.69,0,0,0,2.82-1l.78,1.24a6.33,6.33,0,0,1-3.78,1.28c-2.58,0-4-1.62-4-4.28,0-2.88,1.42-6.74,5.42-6.74,2.24,0,3.34,1.28,3.34,2.68C154.65,85.55,151.49,86.37,147.81,86.77Zm4.92-4.12a1.28,1.28,0,0,0-1.44-1.28c-2.2,0-3.12,2.08-3.38,4C150.93,85,152.73,84.45,152.73,82.65Z"/><path class="cls-1" d="M163.47,80.05l-.54,1.78a3,3,0,0,0-.86-.1c-1.36,0-2.28,1.24-3,3.38l-.8,5.58h-1.82l1.48-10.54h1.56l-.12,2.16c.8-1.64,1.9-2.4,3.06-2.4A4.38,4.38,0,0,1,163.47,80.05Z"/><path class="cls-1" d="M178.47,80.81l-1.14,7.48a3.66,3.66,0,0,0,0,.42.9.9,0,0,0,.68,1l-.52,1.26a1.86,1.86,0,0,1-1.86-1.76,4,4,0,0,1-3.14,1.76c-2.2,0-3.36-1.62-3.36-4,0-2.88,1.52-7,5.62-7A8,8,0,0,1,178.47,80.81Zm-7.42,6.1c0,1.76.66,2.56,1.84,2.56s1.94-.84,2.76-1.94l.88-5.82a3.93,3.93,0,0,0-1.78-.34C172.07,81.37,171.05,84.55,171.05,86.91Z"/><path class="cls-1" d="M189.59,83.29l-1,7.4h-1.82l1-7.36c.2-1.48-.32-1.88-1.12-1.88-1.34,0-2.52,1.42-3.36,2.92l-.86,6.32h-1.82l1.48-10.54h1.56l-.16,2.06a4.54,4.54,0,0,1,3.66-2.3C188.91,79.91,189.89,81.19,189.59,83.29Z"/><path class="cls-1" d="M202.37,75.92l-2.08,14.77h-1.6l0-1.74a3.68,3.68,0,0,1-3.18,2c-2.18,0-3.34-1.64-3.34-4.18,0-2.72,1.3-6.84,4.9-6.84a3.32,3.32,0,0,1,2.7,1.32l.78-5.51Zm-8.24,11c0,1.78.66,2.58,1.76,2.58,1.3,0,2.16-1,3.1-2.44l.62-4.38a2.46,2.46,0,0,0-2.18-1.28C194.87,81.37,194.13,84.79,194.13,86.89Z"/><path class="cls-1" d="M218.89,78.52h-3.8l-1.7,12.17h-1.88l1.7-12.17h-3.89l.24-1.62h9.77Z"/><path class="cls-1" d="M228.45,83.23l-1.06,7.46h-1.82l1-7.36c.2-1.48-.3-1.88-1.06-1.88-1.4,0-2.58,1.42-3.42,2.92l-.87,6.32h-1.82l2.08-14.77,1.85-.2-.92,6.41a4.25,4.25,0,0,1,3.48-2.22C227.77,79.91,228.73,81.19,228.45,83.23Z"/><path class="cls-1" d="M232.88,86.77c0,1.92.94,2.62,2.29,2.62a4.69,4.69,0,0,0,2.82-1l.78,1.24A6.34,6.34,0,0,1,235,90.93c-2.58,0-4-1.62-4-4.28,0-2.88,1.42-6.74,5.43-6.74,2.24,0,3.34,1.28,3.34,2.68C239.73,85.55,236.57,86.37,232.88,86.77Zm4.93-4.12a1.28,1.28,0,0,0-1.44-1.28c-2.21,0-3.13,2.08-3.39,4C236,85,237.81,84.45,237.81,82.65Z"/><path class="cls-1" d="M255.87,83.19l-1.06,7.5H253l1-7.36c.22-1.58-.36-1.88-1.1-1.88-1.12,0-2.14,1.4-3,2.88l-.9,6.36h-1.82l1-7.36c.22-1.58-.36-1.88-1.1-1.88-1.13,0-2.15,1.42-3,2.92l-.86,6.32H241.5L243,80.15h1.56l-.16,2c1-1.36,2.05-2.26,3.45-2.26a2.27,2.27,0,0,1,2.3,2.14c1-1.38,2.14-2.14,3.46-2.14C255.17,79.91,256.15,81.19,255.87,83.19Z"/><path class="cls-1" d="M260.28,90.69h-1.82l1.48-10.54h1.82Zm2.37-14.25a1.33,1.33,0,0,1-1.37,1.14,1.12,1.12,0,0,1-1.16-1.34,1.33,1.33,0,0,1,1.36-1.16A1.12,1.12,0,0,1,262.65,76.44Z"/><path class="cls-1" d="M271.63,81.21l-.88,1.1a4.25,4.25,0,0,0-2.61-.94c-1.28,0-2.1.54-2.1,1.42s.7,1.16,2.12,1.6c2,.62,3,1.5,3,3.16,0,2.34-2.19,3.38-4.39,3.38a5.38,5.38,0,0,1-3.9-1.52l1.06-1.08a4.29,4.29,0,0,0,2.92,1.12c1.86,0,2.38-1,2.38-1.72,0-1.06-.54-1.42-2.22-1.94-2-.62-2.82-1.44-2.82-2.88s1.24-3,4-3A5,5,0,0,1,271.63,81.21Z"/></svg>