<?xml version="1.0" encoding="utf-8"?>
<!-- Generator: Adobe Illustrator 13.0.0, SVG Export Plug-In . SVG Version: 6.00 Build 14948)  -->
<!DOCTYPE svg PUBLIC "-//W3C//DTD SVG 1.1//EN" "http://www.w3.org/Graphics/SVG/1.1/DTD/svg11.dtd">
<svg version="1.1" id="Layer_1" xmlns="http://www.w3.org/2000/svg" xmlns:xlink="http://www.w3.org/1999/xlink" x="0px" y="0px"
	 width="612px" height="792px" viewBox="0 0 612 792" enable-background="new 0 0 612 792" xml:space="preserve">
<path fill="#777777" d="M542.099,208.854c-2.08-0.257-4.145-0.68-6.188-1.156c-0.469-0.112-1.046-0.685-1.183-1.153
	c-1.574-5.55-3.273-11.071-4.532-16.693c-0.872-3.91-1.033-7.972-1.647-11.945c-1.461-9.435-3.031-18.853-4.508-28.288
	c-1.191-7.604-2.202-15.241-3.512-22.82c-0.597-3.44-1.717-6.789-2.61-10.177c-0.236-0.902-0.516-1.794-0.804-2.792
	c4.348-1.816,8.458-3.482,12.521-5.248c3.17-1.376,4.465-6.404,2.78-10.461c-1.276-3.073-5.92-4.918-9.211-3.536
	c-3.949,1.66-7.755,3.703-11.793,5.09c-2.677,0.918-5.634,1.27-8.481,1.38c-12.265,0.473-24.298-1.158-36.15-4.311
	c-1.646-0.438-2.729-1.114-2.688-2.928c0.158-6.558-0.315-13.218,0.687-19.646c0.993-6.371,3.987-12.249,7.78-17.631
	c3.17-4.5,6.456-9.006,8.892-13.904c1.397-2.818,1.217-6.422,1.721-9.675c0.289-1.867,0.319-3.798,0.821-5.599
	c0.632-2.285,0.912-4.336-0.334-6.58c-0.605-1.094-0.696-2.725-0.445-3.998c0.637-3.174-0.927-6.93-4.013-8.062
	c-2.048-0.747-3.245-1.966-4.344-3.813c-1.457-2.459-3.756-4.108-6.815-4.35c-0.581-0.046-1.139-0.365-1.704-0.559
	c-0.176,0-0.353,0-0.526,0c-0.559,0.656-1.477,1.955-1.62,1.874c-1.964-1.105-2.991,0.466-4.123,1.389
	c-2.522,2.054-4.929,4.247-7.379,6.386c-1.383,1.215-3.12,2.206-4.062,3.701c-2.706,4.306-5.146,8.788-7.591,13.252
	c-2.483,4.537-3.628,9.503-3.47,14.606c0.161,5.252,1.218,10.479,1.299,15.723c0.06,3.8,0.033,7.996-1.453,11.355
	c-4.634,10.503-8.44,21.42-15.029,31.038c-1.979,2.886-4.021,4.995-7.368,5.62c-0.883,0.165-2.087-0.247-2.854-0.799
	c-1.983-1.431-3.637-3.379-5.732-4.597c-4.779-2.776-9.526-5.678-15.371-1.916c-4.57,2.939-5.697,7.027-2.27,11.192
	c1.334,1.62,2.69,3.346,4.381,4.535c4.312,3.029,4.453,9.2,2.822,12.753c-1.385,3.025-2.505,3.447-5.462,1.843
	c-0.848-0.458-1.875-0.676-2.593-1.275c-2.915-2.439-5.572-1.554-8.357,0.287c-2.542,1.686-5.138,3.348-7.879,4.667
	c-2.575,1.241-4.281,3.375-4.33,6.25c-0.013,0.874-0.207,1.744-0.279,2.32c-3.082-0.394-5.774-1.081-8.449-1.01
	c-7.63,0.2-15.251,0.852-22.884,1.039c-4.295,0.108-8.502,0.011-12.645,1.625c-6.515,2.539-13.002,5.138-17.858,10.34
	c-2.08,2.23-3.956,2.507-6.437,1.312c-0.947-0.458-1.9-0.907-2.842-1.378c-4.137-2.071-4.89-6.148-4.575-9.884
	c0.233-2.785,1.922-5.673,4.975-7.216c5.035-2.549,8.903-6.08,9.31-12.238c0.086-1.296,0.792-2.586,0.737-3.859
	c-0.169-3.851,1.882-6.023,5.151-7.346c1.55-0.629,2.041-1.642,1.933-3.273c-0.251-3.804,0.026-7.492,1.913-11.007
	c0.691-1.281,0.775-3.113,0.563-4.614c-0.662-4.742-1.538-9.455-2.441-14.162c-0.455-2.391-0.704-4.98-1.843-7.04
	c-1.717-3.12-2.238-6.272-1.794-9.645c0.386-2.955-0.271-5.581-1.957-7.958c-2.384-3.366-4.759-6.747-7.297-9.994
	c-1.548-1.981-3.184-4.013-5.169-5.501c-2.761-2.069-5.799-3.829-8.881-5.4c-4.053-2.065-8.257-3.954-13.013-2.703
	c-2.529,0.667-4.962,1.581-7.408-0.357c-0.467-0.37-1.569-0.158-2.292,0.062c-2.336,0.72-4.579,1.882-6.957,2.307
	c-7.3,1.305-11.943,6.084-15.921,11.755c-1.297,1.856-2.503,3.265-5.099,2.736c-0.801-0.161-2.34,0.41-2.602,1.035
	c-0.858,2.067-1.614,4.286-1.814,6.499c-0.304,3.366-0.064,6.778-0.158,10.166c-0.027,0.843-0.198,1.909-0.727,2.468
	c-1.986,2.098-2.642,5.776-6.574,5.702c-0.394-0.006-1.043,0.709-1.171,1.195c-0.989,3.813-2.389,7.622-2.613,11.494
	c-0.159,2.682-0.876,4.39-2.792,6.067c-2.76,2.415-3.177,5.847-1.746,9.147c0.718,1.651,1.319,3.48,1.394,5.257
	c0.249,5.871,2.507,10.45,7.615,13.576c2.664,1.634,4.572,3.773,5.462,7.047c1.547,5.691,5.371,9.279,11.339,10.413
	c0.799,0.152,2.021,0.898,2.118,1.517c0.639,4.055,1.052,8.147,1.446,12.238c0.046,0.508-0.332,1.244-0.748,1.587
	c-4.568,3.76-8.667,8.707-15.716,6.514c-0.579-0.178-1.22-0.156-1.825-0.255c-4.575-0.746-8.762-0.749-11.225,4.311
	c-0.438,0.898-2.215,1.69-3.322,1.625c-3.476-0.198-5.75,1.739-8.117,3.745c-5.101,4.326-7.943,10.305-11.236,15.854
	c-5.475,9.233-8.623,19.162-7.146,30.184c0.311,2.338,0,5.013-0.863,7.203c-2.893,7.351-6.239,14.523-9.268,21.821
	c-1.746,4.202-3.098,8.572-4.841,12.777c-2.89,6.979-7.555,12.773-12.314,18.576c-10.219,12.462-13.816,27.888-17.757,42.939
	c-1.882,7.199-1.585,14.965-2.283,22.47c-1.079,11.577-2.908,22.961-8.154,33.536c-1.163,2.347-2.635,4.876-2.719,7.364
	c-0.291,8.76-0.381,17.557,0.149,26.294c0.273,4.511,2.017,8.931,3.159,13.646c-0.984-0.405-2.184-0.812-3.311-1.367
	c-3.775-1.862-7.41-2.558-10.963,0.588c-3.219,2.847-6.631,5.473-9.847,8.321c-2.923,2.587-1.712,8.434,1.966,9.371
	c1.647,0.421,3.448,0.309,5.18,0.295c4.029-0.02,7.954-1.842,12.117,0.229c4.205,2.094,8.705,3.654,13.18,5.132
	c2.495,0.823,3.265,1.972,2.145,4.339c-0.187,0.396-0.311,0.823-0.46,1.237c-8.804,24.251-17.583,48.504-26.417,72.744
	c-7.996,21.935-16.068,43.839-24.068,65.771c-3.932,10.778-7.837,21.572-11.646,32.395c-3.813,10.835-7.423,21.739-11.275,32.557
	c-0.92,2.603-2.457,4.995-3.712,7.485c0,0.88,0,1.763,0.007,2.64c0.94,3.53,1.906,7.06,2.813,10.602
	c0.616,2.399,1.147,4.821,1.818,7.679c6.519-4.306,12.456-8.368,18.547-12.179c2.162-1.354,3.492-3.04,4.271-5.387
	c1.268-3.828,2.65-7.619,3.98-11.426c4.966-14.236,9.865-28.497,14.915-42.703c7.432-20.902,15.067-41.732,22.435-62.659
	c4.687-13.316,9.032-26.756,13.563-40.13c0.934-2.759,1.997-5.471,3.196-8.742c0.608,1.174,0.925,1.687,1.149,2.237
	c1.581,3.898,3.135,7.806,4.709,11.702c3.982,9.876,10.128,18.827,11.98,29.643c0.779,4.548,3.458,8.309,8.894,8.639
	c2.483,0.151,3.458,1.633,3.054,3.907c-0.814,4.599-1.052,9.125-0.599,13.841c0.59,6.133-3.291,10.705-6.985,15.088
	c-3.505,4.159-7.47,7.959-10.679,12.322c-3.073,4.174-4.502,9.171-3.267,14.393c0.777,3.287,2.391,6.369,3.373,9.622
	c1.262,4.172,2.281,8.419,3.366,12.644c0.125,0.497,0.13,1.09-0.02,1.576c-1.642,5.334-3.179,10.692-7.249,14.891
	c-1.688,1.741-3.153,3.751-4.44,5.813c-1.757,2.812-3.174,5.836-4.872,8.691c-2.263,3.804-1.695,8.381,0.865,12.055
	c2.547,3.654,6.276,6.719,6.646,11.654c0.044,0.586,0.434,1.143,0.649,1.718c1.889,5.048,8.781,4.697,12.035,1.834
	c1.118-0.984,2.433-1.944,3.824-2.383c2.404-0.757,4.922-1.234,7.43-1.536c0.751-0.09,2.12,0.618,2.352,1.268
	c1.917,5.348,6.47,7.331,11.221,9.046c0.832,0.302,1.913,0.233,2.798,0.02c5.189-1.264,10.34-2.672,15.536-3.892
	c0.975-0.231,2.428-0.225,3.108,0.339c5.187,4.321,11.392,6.538,17.556,8.869c5.964,2.262,12.209,4.022,16.467,9.291
	c3.969,4.92,8.997,6.976,15.276,5.798c0.136-0.028,0.308,0.137,0.601,0.282c0.202,1.023,0.511,2.126,0.623,3.249
	c0.735,7.258-1.178,13.988-4.636,20.227c-5.121,9.239-7.879,18.857-5.904,29.476c0.647,3.467,1.889,6.586,5.123,8.497
	c2.606,1.536,5.178,2.956,7.086,5.578c1.024,1.411,3.397,2.406,5.229,2.523c3.093,0.2,5.369,1.323,7.192,3.681
	c0.26,0.339,0.522,0.757,0.883,0.922c4.894,2.259,9.38-0.134,11.967-3.762c3.745-5.251,6.283-11.108,7.232-17.557
	c0.865-5.899,2.153-11.786,0.912-17.778c-1.321-6.389-2.692-12.769-4.106-19.14c-0.88-3.958-0.718-7.789,0.898-11.551
	c0.266-0.621,0.18-1.42,0.169-2.136c-0.02-1.422-0.209-2.847-0.11-4.255c0.046-0.632,0.779-1.191,0.922-1.845
	c1.004-4.549,3.19-6.392,7.723-6.389c5.075,0.002,12.624-5.112,14.589-9.797c1.952-4.645,3.986-9.255,6.045-14.025
	c0.986,1.405,2.006,3.129,3.291,4.621c2.393,2.778,5.021,5.356,7.405,8.144c2.149,2.521,3.457,5.366,3.56,8.852
	c0.163,5.692,0.465,11.381,4.945,15.848c2.721,2.717,5.182,5.715,7.584,8.727c2.987,3.743,6.359,6.952,10.725,9.055
	c3.731,1.797,6.534,0.269,7.049-3.993c0.091-0.758,0.014-1.532,0.014-2.301c0.185,0.194,0.372,0.39,0.557,0.583
	c2.131-1.178,4.689-1.947,6.276-3.637c1.862-1.972,3.326-4.605,4.142-7.207c1.061-3.391,1.118-7.084,1.98-10.552
	c0.83-3.342-0.321-6.047-2.012-8.66c-0.898-1.392-2.234-2.496-3.161-3.874c-1.398-2.081-2.589-4.307-3.921-6.433
	c-1.517-2.418-2.754-5.134-4.725-7.106c-3.049-3.062-6.324-5.762-8.579-9.634c-2.014-3.458-4.933-6.386-7.372-9.609
	c-1.713-2.263-2.728-4.592-0.911-7.445c0.812-1.281,1.151-2.945,1.422-4.483c1.431-8.152,3.165-16.282,4.026-24.498
	c0.647-6.159,0.592-12.482,0.037-18.661c-0.808-8.953-2.631-17.818-3.496-26.77c-0.734-7.679-0.748-15.428-1.023-23.148
	c-0.026-0.741,0.339-1.515,0.581-2.252c2.257-6.891,3.882-13.746-0.567-20.465c-0.365-0.555-0.428-1.305-0.632-1.966
	c0.193-0.143,0.385-0.286,0.579-0.429c2.474,1.462,5.09,2.736,7.396,4.427c4.769,3.494,9.394,3.117,14.259,0.251
	c1.981-1.171,4.277-1.794,6.375-2.782c1.088-0.507,2.017-1.343,3.082-1.894c2.662-1.371,5.367-2.664,8.11-4.018
	c0.92,0.555,2.089,1.783,3.405,1.973c5.753,0.83,11.115,0.295,15.082-4.865c2.757-3.586,5.23-7.155,6.001-11.8
	c0.505-3.056,1.818-5.968,2.645-8.978c0.671-2.441,2.029-5.114,1.564-7.375c-1.75-8.576-1.032-17.871-6.771-25.387
	c-0.207-0.264-0.308-0.634-0.374-0.969c-1.448-6.998-4.449-13.369-8.392-19.216c-3.108-4.604-5.272-9.922-10.312-13.158
	c-6.124-3.93-12.022-8.218-17.936-12.462c-6.619-4.747-9.985-10.843-7.806-19.259c1.055-4.063,1.785-8.216,2.586-12.343
	c0.597-3.049,1.59-6.136,1.5-9.18c-0.249-8.54-5.072-15.041-10.276-21.323c-1.646-1.99-2.945-4.289-4.28-6.519
	c-0.713-1.193-1.092-2.578-1.747-3.811c-2.981-5.611-4.661-11.663-4.568-17.928c0.121-8.229,0.551-16.498,1.592-24.656
	c1.413-11.071,5.059-21.438,11.47-30.77c2.967-4.326,6.261-8.72,7.934-13.589c3.184-9.255,5.453-18.837,7.744-28.372
	c0.398-1.658-0.354-4.511-1.6-5.458c-2.613-1.981-2.131-4.922-4.102-7.608c1.239,0.293,1.724,0.383,2.19,0.52
	c4.841,1.459,9.616,3.238,14.54,4.289c3.522,0.753,7.331,1.118,10.873,0.643c8.755-1.176,17.057-4.088,24.844-8.297
	c5.899-3.188,10.705-7.527,13.866-13.995c-2.047-1.042-3.877-2.527-5.904-2.875c-2.933-0.504-3.685-2.305-4.379-4.68
	c-2.419-8.238-4.995-16.427-7.403-24.667c-0.251-0.867,0.003-2.025,0.368-2.901c2.052-4.907,6.389-7.872,10.05-11.357
	c4.279-4.068,8.407-8.161,10.661-13.772c2.866-7.137,5.669-14.298,8.713-21.358c1.942-4.502,2.69-9.187,3.196-13.99
	c0.077-0.769,1.174-1.623,1.999-2.076c2.964-1.625,5.973-3.174,9.042-4.583c1.329-0.605,2.945-1.332,4.253-1.081
	c3.17,0.612,6.268,1.675,9.339,2.721c7.293,2.486,14.8,3.67,22.474,3.945c1.248,0.044,2.485,0.381,3.712,0.579
	c-3.857,12.339-7.568,24.289-11.326,36.22c-2.873,9.114-5.852,18.188-8.698,27.309c-2.301,7.363-4.797,14.688-6.596,22.175
	c-1.461,6.078-2.805,11.555-10.155,13.116c-4.171,0.885-3.784,3.19-1.397,6.148c1.525,1.887,3.465,3.544,5.481,4.914
	c8.967,6.089,18.889,9.352,29.68,10.771c9.473,1.242,17.966-1.087,26.164-5.136c2.919-1.442,5.702-3.604,7.857-6.041
	c3.165-3.586,5.721-7.716,8.534-11.615c0-0.176,0-0.352,0-0.528C547.38,209.768,544.862,209.195,542.099,208.854z M465.824,55.859
	c-0.37-0.051-0.744-0.106-1.116-0.157c0.44-4.101,0.878-8.207,1.323-12.312c0.171-0.139,0.343-0.282,0.513-0.42
	c0.513,0.951,1.571,1.981,1.439,2.835C467.466,49.185,466.574,52.511,465.824,55.859z M463.334,14.888
	c3.062-1.539,6.157-3.159,9.425-4.079c1.027-0.291,3.521,1.277,3.781,2.369c0.428,1.774-1.248,3.018-3.196,3.401
	c-2.811,0.555-5.609,1.171-8.759,1.833c-0.644-0.385-1.73-0.678-2.052-1.343C462.286,16.562,462.797,15.161,463.334,14.888z
	 M396.424,102.186c3.974-1.099,11.077,2.214,12.011,5.717c0.309,1.158-0.383,2.822-1.136,3.894
	c-0.249,0.348-2.222-0.264-3.249-0.762c-2.924-1.42-5.683-3.086-6.77-6.468C397.024,103.769,396.715,102.99,396.424,102.186z
	 M416.382,171.086c-2.094,0.958-4.2,1.686-6.05,2.831c-1.818,1.125-3.37,2.672-5.034,4.038c-0.284-0.124-0.563-0.245-0.843-0.37
	c0.336-16.068,0.68-32.136,1.019-48.203c0.317,0.016,0.632,0.033,0.949,0.046C409.749,143.344,413.08,157.259,416.382,171.086z
	 M400.347,141.358c0.223,0.07,0.438,0.143,0.658,0.216c0,4.081,0.102,8.165-0.021,12.242c-0.177,5.778-0.533,11.553-0.784,17.332
	c-0.271,6.204-0.497,12.41-0.769,18.613c-0.218,4.973-0.396,9.95-0.792,14.91c-0.079,0.984-0.912,2.554-1.662,2.732
	c-3.366,0.795-6.829,1.182-10.527,1.764c0.836-2.424,1.527-4.674,4.195-5.374c2.638-0.693,4.166-2.041,4.426-5.041
	c0.336-3.896,1.239-7.745,1.854-11.622c0.118-0.75,0.02-1.532,0.02-3.047c-3.04,1.44-5.585,2.646-8.85,4.194
	C391.604,172.13,394.676,156.403,400.347,141.358z M316.957,153.165c-2.587,4.489-9.291,10.126-13.528,11.544
	C304.726,161.675,312.594,154.855,316.957,153.165z M302.198,172.334c-2.444,1.688-4.513,3.117-6.58,4.546
	C297.531,172.079,298.4,171.482,302.198,172.334z M307.711,95.322c-1.314-3.17-2.461-5.935-3.606-8.702
	c0.13-0.205,0.258-0.41,0.39-0.61c0.858,0.418,2.05,0.614,2.512,1.301C308.527,89.572,310.4,91.927,307.711,95.322z M291.105,47.681
	c0.073,0.608,0.102,1.237,0.031,1.843c-0.262,2.179,0.255,3.861,2.307,5.105c0.612,0.37,0.582,1.794,0.843,2.741
	c-1.105,0.018-2.684,0.502-3.216-0.042c-1.301-1.326-2.402-3.018-3.071-4.76c-1.328-3.458-2.314-7.058-3.47-10.694
	C287.995,41.671,290.713,44.249,291.105,47.681z M241.43,51.612c1.348-0.4,2.602-1.299,3.738-2.177
	c3.665-2.842,7.225-5.821,10.897-8.661c1.306-1.013,2.256-0.649,3.438,0.75c1.325,1.57,3.351,2.549,5.077,3.778
	c0.634,0.451,1.257,0.934,1.941,1.29c0.674,0.35,1.42,0.553,2.133,0.821c0.198-0.262,0.398-0.522,0.599-0.782
	c-0.841-0.969-1.625-1.997-2.547-2.884c-0.414-0.396-1.134-0.456-1.66-0.762c-1.53-0.892-3.683-2.138-2.712-3.826
	c0.661-1.145,3.311-1.581,5.057-1.55c2.375,0.046,4.76,0.744,7.089,1.36c0.823,0.22,1.88,0.872,2.164,1.59
	c0.892,2.27,1.596,4.634,2.128,7.018c0.533,2.395-0.955,3.641-3.346,2.967c-1.942-0.548-3.831-1.312-5.801-1.721
	c-9.497-1.975-16.729,2.199-22.913,8.801c-1.446,1.543-2.439,2.294-4.63,1.193c-1.103-0.555-2.881,0.238-4.542,0.443
	C235.728,54.91,236.626,53.05,241.43,51.612z M231.948,166.413c0.229-0.711,1.085-1.29,1.761-1.785
	c4.627-3.401,9.305-6.732,13.893-10.182c0.524-0.394,0.872-1.409,0.826-2.103c-0.284-4.185-0.588-8.374-1.109-12.535
	c-0.74-5.885-1.629-11.749-2.545-17.609c-0.491-3.159-0.98-6.168-3.095-9c-2.8-3.74-4.042-8.203-2.897-13.131
	c0.572-2.463,0.378-5.103,0.528-7.666c-0.211-0.048-0.421-0.097-0.634-0.145c-0.414,0.92-0.83,1.84-1.244,2.76
	c-0.319-0.037-0.634-0.075-0.951-0.11c0.082-1.631,0.165-3.263,0.275-5.462c-0.729-0.7-1.446-0.321-2.611,0.85
	c-1.532,1.535-1.675,4.907-5.488,3.809c1.283,5.262-0.211,9.535-3.146,13.843c-0.612-0.909-1.217-1.68-1.677-2.527
	c-0.757-1.385-1.301-2.893-2.142-4.222c-2.19-3.445-2.31-4.344,0.117-7.494c0.456-0.592,1.801-0.498,3.355-0.865
	c-0.167-2.125-0.308-5.033-0.647-7.918c-0.352-2.952,0.647-4.617,3.258-5.852c1.116-0.533,2.146-1.607,2.802-2.69
	c2.146-3.534,4.315-6.662,8.39-8.643c3.056-1.49,5.387-4.652,7.771-7.311c6.021-6.716,13.323-10.259,22.274-8.018
	c4.251,1.063,9.274,1.651,11.72,6.479c0.183,0.363,1.411,0.5,2.01,0.299c4.282-1.414,4.269-1.446,6.554,2.386
	c0.223,0.375,0.394,0.896,0.729,1.055c2.813,1.334,5.677,2.562,8.484,3.907c1.001,0.478,2.219,0.978,2.771,1.836
	c1.382,2.144,2.443,4.5,3.634,6.767c-0.215,0.215-0.431,0.427-0.647,0.641c-1.085-0.418-2.294-0.658-3.225-1.301
	c-1.675-1.153-2.532-0.863-2.763,1.845c-1.017-1.18-1.653-1.922-2.292-2.661c-1.338-1.548-2.714-3.064-5.057-2.662
	c-3.949,0.682-7.053,2.763-9.667,5.625c0.104,0.311,0.211,0.621,0.315,0.936c1.453-0.409,2.893-0.848,4.352-1.213
	c2.158-0.54,4.312-1.169,6.505-1.422c0.542-0.063,1.567,1.075,1.805,1.836c1.922,6.12,3.362,12.323,2.756,18.835
	c-0.302,3.229-0.293,6.486-0.654,9.704c-0.214,1.887-0.658,3.813-1.385,5.559c-1.411,3.406-3.036,6.728-4.676,10.034
	c-4.216,8.504-10.499,14.783-19.564,18.083c-3.221,1.171-6.12,0.962-8.949-1.081c-3.813-2.751-7.725-5.369-12.244-7.901
	c0.374,0.887,0.528,1.995,1.16,2.624c2.415,2.404,5.063,4.577,7.478,6.983c2.778,2.771,5.389,5.71,8.095,8.555
	c1.737,1.827,3.549,3.584,5.264,5.435c1.358,1.468,2.763,2.93,3.899,4.566c2.542,3.656,3.775,4.105,7.934,2.774
	c5.083-1.631,10.228-3.016,15.965-3.172c-0.264,0.75-0.31,1.013-0.436,1.224c-3.296,5.374-6.648,10.712-9.858,16.134
	c-0.702,1.184-1.314,1.382-2.672,1.325c-6.098-0.264-12.264-0.861-18.296-0.249c-7.437,0.753-14.783,2.475-22.129,3.978
	c-4.52,0.925-8.984,2.16-13.442,3.371c-3.522,0.958-5.244-0.414-4.372-4.031C229.174,175.086,230.566,170.745,231.948,166.413z
	 M227.14,164.4c0.309,0.066,0.612,0.137,0.92,0.205c-0.24,1.592-0.264,3.254-0.764,4.755c-0.881,2.644-2.446,5.112-2.988,7.807
	c-0.568,2.82-0.196,5.823-0.394,8.735c-0.062,0.894-0.645,1.755-0.99,2.629c-0.812-0.597-2.312-1.18-2.323-1.792
	c-0.062-3.292,0.002-6.626,0.484-9.878C221.789,172.11,224.113,168.046,227.14,164.4z M150.764,473.109
	c-1.162,4.13-2.397,8.242-3.676,12.337c-3.159,10.118-6.261,20.251-9.563,30.322c-4.482,13.669-8.982,27.336-13.744,40.909
	c-5.171,14.741-10.661,29.367-15.998,44.051c-5.508,15.166-10.987,30.336-16.511,45.495c-2.19,6.015-4.467,11.998-6.704,17.999
	c-0.09,0.242-0.117,0.572-0.292,0.718c-4.163,3.486-8.337,6.963-12.531,10.412c-0.229,0.189-0.645,0.154-0.978,0.223
	c-1.195-5.101-2.531-10.083-3.445-15.142c-0.286-1.58,0.361-3.44,0.946-5.043c4.909-13.411,9.916-26.783,14.871-40.177
	c4.264-11.513,8.57-23.018,12.731-34.573c7.247-20.121,14.409-40.277,21.585-60.423c6.415-18.014,12.811-36.03,19.199-54.054
	c2.254-6.362,4.46-12.739,6.708-19.102c0.187-0.533,0.543-1.006,0.775-1.422c1.51,0.864,2.776,1.773,4.178,2.351
	c2.461,1.015,3.375,2.763,2.686,5.23c-1.495,5.36-0.249,10.611,0.333,15.912C151.475,470.426,151.125,471.826,150.764,473.109z
	 M151.07,444.518c-0.848-0.315-1.565-0.551-2.256-0.846c-7.696-3.273-15.408-6.51-23.073-9.855
	c-3.546-1.548-6.957-1.334-10.441,0.134c-1.191,0.502-2.49,0.909-3.762,0.991c-0.821,0.051-2.153-0.359-2.411-0.938
	c-0.295-0.664,0.062-2.049,0.634-2.586c2.613-2.464,5.279-4.914,8.202-6.981c0.916-0.646,2.726-0.264,4.062-0.018
	c1.34,0.256,2.606,0.923,3.898,1.423c2.272,0.876,4.579,1.677,6.803,2.665c4.486,1.997,8.951,4.047,13.375,6.176
	c2.426,1.166,4.753,2.538,7.373,3.953C152.606,440.766,151.887,442.531,151.07,444.518z M293.199,756.451
	c-1.191,6.792-2.494,13.576-4.159,20.265c-0.588,2.38-2.219,4.559-3.641,6.647c-1.008,1.479-2.477,2.541-4.524,1.528
	c-1.783-0.878-2.3-2.159-1.768-4.09c1.25-4.518,2.386-9.062,3.571-13.601c-0.223-0.203-0.44-0.407-0.661-0.61
	c-0.537,0.679-1.27,1.279-1.572,2.048c-1.552,3.914-2.979,7.879-4.476,11.814c-1.151,3.038-2.472,3.943-4.469,3.129
	c-1.924-0.786-2.578-3.38-1.477-5.748c1.726-3.716,2.531-7.635,2.441-11.729c-0.004-0.2-0.284-0.394-0.856-1.132
	c-0.605,1.55-1.088,2.745-1.548,3.947c-0.898,2.362-1.625,4.812-2.738,7.069c-0.716,1.455-1.999,2.503-3.879,1.31
	c-1.711-1.088-1.913-2.271-1.151-4.216c1.072-2.729,1.651-5.657,2.312-8.537c0.092-0.407-0.562-0.981-0.868-1.483
	c-0.548,0.356-1.417,0.603-1.585,1.089c-0.607,1.762-0.978,3.602-1.438,5.411c-0.352-0.009-0.702-0.018-1.054-0.026
	c-0.381-2.745-0.755-5.49-1.151-8.23c-0.592-4.079,1.505-7.426,2.932-10.964c1.05-2.593,1.961-5.241,2.937-7.861
	c0.429-1.148,0.61-2.507,1.345-3.405c2.567-3.133,2.756-6.926,3.386-10.624c0.139-0.811,0.319-1.953,0.878-2.294
	c2.882-1.761,5.847-3.401,8.878-4.894c1.402-0.688,2.25,0.165,2.606,1.638c1.391,5.768,2.593,11.604,4.354,17.259
	c0.936,3.014,2.276,6.367,4.502,8.396C292.954,750.954,293.727,753.444,293.199,756.451z M325.679,664.3
	c-1.732,0.444-3.63,1.587-5.171,1.219c-7.842-1.88-14.217-5.882-17.486-13.71c-0.225-0.539-0.363-1.118-0.54-1.678
	c0.154-0.209,0.311-0.418,0.465-0.627c0.991,0.597,2.142,1.027,2.948,1.815c5.151,5.065,10.203,10.244,17.933,11.182
	c0.409,0.046,0.79,0.35,1.187,0.537c0.231,0.11,0.465,0.225,0.693,0.337C325.7,663.686,325.688,663.991,325.679,664.3z
	 M316.327,646.05c-5.451-1.834-10.631-4.482-15.873-6.891c-0.858-0.396-1.754-1.323-2.069-2.204
	c-2.624-7.381-4.163-14.996-4.442-22.84c-0.187-5.329-1.213-10.48-3.782-15.156c-0.83-1.508-2.402-2.939-3.976-3.633
	c-2.386-1.055-3.307-2.95-4.242-5.037c-2.294-5.125-4.526-10.28-6.968-15.335c-3.802-7.877-7.716-15.7-11.663-23.507
	c-2.686-5.308-6.188-10.315-8.095-15.877c-2.344-6.833-3.485-14.087-5.004-21.188c-1.598-7.456-3.309-14.906-4.447-22.437
	c-0.934-6.18-2.534-12.273-1.64-18.743c0.691-5.009,0.09-10.192,0.178-15.294c0.044-2.485,0.353-4.964,0.586-8.05
	c-4.967,12.116-6.257,24.158-5.409,36.394c0.348,5.085,1.805,10.087,2.765,15.126c1.372,7.236,2.941,14.441,4.055,21.717
	c0.808,5.279,0.86,10.666,1.525,15.972c0.905,7.219,3.142,14.05,6.926,20.293c3.809,6.285,7.313,12.825,11.773,18.62
	c3.306,4.295,3.984,8.783,3.995,13.736c0,0.731-0.198,1.462-0.321,2.318c-4.292-1.513-6.413-4.934-8.946-7.901
	c-0.623-0.729-1.116-1.736-1.909-2.133c-5.57-2.787-7.437-8.425-10.096-13.31c-3.505-6.441-6.439-13.193-9.585-19.831
	c-0.486-1.025-0.973-2.115-1.127-3.223c-0.645-4.625-2.408-8.797-4.953-12.647c-2.833-4.29-5.693-8.574-8.722-12.729
	c-0.958-1.312-2.492-2.201-4.044-3.522c1.83,7.441,3.333,14.314,5.264,21.062c0.852,2.987,2.309,5.882,3.947,8.537
	c2.267,3.67,4.704,7.188,5.182,11.632c0.063,0.597,0.326,1.193,0.597,1.739c3.163,6.312,6.292,12.641,9.565,18.893
	c0.617,1.178,2.014,1.925,2.719,3.073c0.769,1.26,1.603,2.745,1.629,4.15c0.099,5.559,3.664,8.021,8.183,9.719
	c0.669,0.249,1.629,0.3,2.256,0.009c2.573-1.187,3.723-0.202,4.651,2.264c3.357,8.913,9.673,15.823,15.835,22.813
	c1.916,2.175,4.02,4.185,5.898,6.58c-1.189-0.607-2.4-1.183-3.566-1.827c-4.141-2.288-8.359-4.458-12.361-6.966
	c-1.963-1.23-3.474-3.165-5.283-4.674c-2.692-2.238-5.283-4.68-8.242-6.505c-5.906-3.639-10.979-8.196-15.806-13.101
	c-3.393-3.44-6.897-6.773-10.349-10.155c-0.125-0.126-0.275-0.229-0.383-0.365c-3.681-4.777-7.388-9.537-11.029-14.349
	c-3.188-4.205-6.556-8.3-9.382-12.738c-5.385-8.446-10.466-17.087-15.613-25.682c-3.241-5.411-6.373-10.884-9.735-16.647
	c-0.814,3.261-0.702,5.518,1.341,7.956c5.242,6.264,7.516,14.062,11.309,21.068c3.714,6.859,7.029,13.939,10.417,20.968
	c1.563,3.241,2.672,6.715,4.381,9.872c1.662,3.073,3.918,5.824,5.724,8.829c0.671,1.121,0.771,2.578,1.195,3.861
	c0.271,0.815,0.502,1.718,1.019,2.362c4.236,5.266,8.196,10.801,12.912,15.602c3.817,3.888,8.42,7.062,12.934,10.184
	c4.458,3.085,9.175,5.818,13.906,8.48c2.192,1.235,4.749,1.801,7.034,2.895c5.62,2.692,11.205,5.46,16.729,8.348
	c0.722,0.377,1.272,1.557,1.436,2.45c0.5,2.741,0.775,5.526,1.222,8.942c-3.6,1.251-7.595,2.708-11.637,4.024
	c-3.989,1.297-8.086,2.283-12.02,3.712c-3.465,1.259-4.205,1.197-6.384-1.774c-5.081-6.928-10.206-13.827-15.291-20.753
	c-0.715-0.973-1.31-2.041-1.997-3.119c-1.625,0.187-2.534,0.627-1.944,2.681c0.521,1.816,0.456,3.802,0.707,5.702
	c0.489,3.691,2.085,6.754,5,9.169c1.121,0.927,2.17,2.094,2.851,3.368c1.607,3.016,3.031,6.135,4.398,9.271
	c0.434,0.997,0.775,2.223,0.609,3.256c-0.304,1.875,0.614,2.784,2.012,3.555c1.438,0.797,2.439,0.183,3.789-0.597
	c3.969-2.291,8.15-4.225,12.271-6.25c1.481-0.729,3.056-1.266,4.548-1.98c4.409-2.118,8.79-4.293,13.204-6.402
	c0.42-0.202,0.993-0.088,1.561-0.127c0.92,5.732,2.373,11.26,1.065,16.992c-0.116,0.498,0.302,1.365,0.744,1.706
	c6.633,5.104,14.078,6.446,22.155,4.577c1.312-0.307,2.58-0.793,4.579-1.418c-2.734,6.791-3.804,13.502-9.283,18.067
	c-1.854,1.543-4.022,2.998-6.092,1.763c-0.845-0.504-0.442-3.438-0.247-5.228c0.115-1.057,0.703-2.347,1.51-2.95
	c0.617-0.462,1.924,0.077,2.913,0.011c1.101-0.074,2.188-0.325,3.274-0.502c-1.077-4.446-3.67-5.122-7.342-2.547
	c-3.465,2.433-5.774,5.241-6.532,9.404c-0.105,0.597-0.922,1.425-1.514,1.521c-4.394,0.72-8.808,1.283-13.431,1.926
	c0-4.743-0.227-9.305,0.06-13.836c0.299-4.693,1.217-9.347,1.565-14.038c0.071-0.916-1.215-2.77-1.893-2.776
	c-8.486-0.101-16.762,0.969-24.238,5.449c-0.125,0.074-0.161,0.304-0.423,0.825c2.468,0,4.764,0,7.06,0
	c0.084,0.348,0.167,0.693,0.251,1.041c-4.134,1.33-8.266,2.668-12.398,3.998c0.064,0.367,0.13,0.735,0.194,1.103
	c2.771-0.241,5.589-0.241,8.302-0.781c5.118-1.02,10.1-0.458,15.082,0.586c1.215,6.056-0.392,7.958-6.562,11.696
	c-4.638,2.809-9.712,3.621-15.203,2.047c-5.462-1.565-11.029-3.08-17.25-1.55c1.598,0.885,3.135,1.913,4.803,2.624
	c2.571,1.097,5.363,1.72,7.826,2.994c6.644,3.438,13.321,2.752,20.095,0.678c0.557-0.169,1.127-0.312,1.794-0.493
	c1.188,5.442,1.977,10.866,5.933,15.049c-4.925,2.717-10.118,3.203-15.377,2.459c-5.532-0.779-8.585-5.192-11.844-9.074
	c-2.554-3.038-5.261-5.151-9.42-6.058c-9.068-1.975-15.527-7.201-19.073-16.277c-3.643-9.314-9.455-17.062-19.835-19.893
	c-4.183-1.143-7.612-3.353-9.906-6.968c-1.671-2.633-3.91-2.477-6.395-2.146c-2.657,0.351-5.348,0.542-7.974,1.055
	c-1.526,0.297-2.915,1.271-4.436,1.601c-1.646,0.361-3.447,0.691-5.055,0.383c-2.223-0.423-3.751,0.018-4.944,1.918
	c-1.109,1.77-0.2,3.007,0.757,4.497c2.569,3.996,6.023,7.029,9.697,9.953c2.168,1.726,4.214,1.915,6.558,0.871
	c2.483-1.101,4.878-2.437,7.428-3.337c1.444-0.509,3.263-0.812,4.676-0.398c4.311,1.264,10.789,8.938,8.61,14.278
	c-1.215,2.974-5.085,5.266-8.024,4.123c-0.838-0.321-1.424-1.303-2.124-1.981c0.726-0.528,1.409-1.138,2.192-1.554
	c0.473-0.253,1.105-0.221,2.087-0.388c-6.327-2.831-12.37-3.012-18.584-1.523c-2.534,0.605-5.134,0.958-7.723,1.274
	c-0.565,0.068-1.429-0.348-1.752-0.818c-0.267-0.386-0.106-1.272,0.163-1.779c0.727-1.373,1.609-2.666,2.529-4.151
	c-0.717-0.463-1.387-1.227-2.146-1.328c-4.198-0.55-6.495-3.683-8.89-6.542c-1.301-1.555-1.671-3.479-0.691-5.655
	c1.29-2.869,2.492-5.532,4.892-7.873c5.244-5.118,7.857-11.812,9.645-18.846c0.528-2.083,1.535-4.04,2.131-6.107
	c1.041-3.607,0.092-6.991-1.722-10.096c-2.631-4.508-4.429-9.264-5.374-14.41c-0.518-2.829,0.599-5.032,2.106-7.047
	c5-6.679,10.142-13.248,15.241-19.851c0.143-0.185,0.398-0.281,0.616-0.427c1.68,5.387-1.79,13.697-6.613,16.214
	c-1.931,1.006-3.773,2.21-5.539,3.484c-0.546,0.396-1.061,1.365-0.991,2.001c0.339,3.003,0.9,5.983,1.352,8.974
	c0.526,3.478,1.907,4.862,5.473,5.618c1.686,0.354,3.339,0.883,5.382,1.438c-0.962-1.084-1.847-1.854-2.443-2.803
	c-1.33-2.125-2.67-4.269-3.709-6.541c-0.804-1.759,0.035-3.238,1.693-4.185c0.456-0.26,0.949-0.453,1.429-0.669
	c3.179-1.434,5.631-3.438,6.389-7.131c0.361-1.757,1.222-3.412,1.858-5.111c0.262-0.053,0.524-0.114,0.786-0.172
	c0.412,1.011,1.229,2.052,1.16,3.022c-0.227,3.133-0.515,6.305-1.277,9.336c-1.01,4.021-0.343,5.911,3.393,7.712
	c0.471,0.225,1.046,0.823,1.074,1.279c0.269,4.597,0.524,9.199,0.59,13.805c0.031,2.334-1.094,3.395-3.747,3.586
	c-5.838,0.414-11.672,1.515-15.174,6.952c-1.271,1.973-1.645,4.511-2.499,6.761c-0.722,1.904-1.545,3.773-2.325,5.656
	c0.249,0.136,0.5,0.274,0.749,0.411c1.684-1.818,3.571-3.491,5-5.49c1.662-2.327,3.714-3.811,6.345-4.874
	c5.981-2.413,12.176-3.826,18.541-4.667c1.594-0.209,2.204,0.493,2.925,1.869c0.773,1.471,0.357,2.221-0.594,3.165
	c-1.569,1.568-4.035,2.557-3.971,5.244c0.033,1.36,0.143,3.312,1.004,3.963c3.108,2.355,6.538,4.295,9.871,6.354
	c1.609,0.992,3.52,1.627,4.867,2.879c5.352,4.986,8.592,11.459,11.965,17.797c2.217,4.162,5.449,7.258,9.165,10.036
	c2.415,1.803,4.858,3.269,7.958,3.326c1.088,0.018,2.171,0.102,3.256,0.152c0.013-0.24,0.031-0.484,0.046-0.723
	c-2.236-1.143-4.59-2.108-6.659-3.454c-1.944-1.268-3.711-2.859-5.382-4.49c-5.271-5.149-7.701-12.098-11.324-18.283
	c-3.381-5.776-7.457-10.629-13.916-13.072c-1.136-0.427-2.355-0.971-3.172-1.814c-0.563-0.581-0.997-2.135-0.638-2.624
	c2.996-4.085,1.079-7.9-0.922-11.279c-2.576-4.346-5.138-8.511-5.759-13.697c-0.76-6.362-2.085-12.67-0.649-19.089
	c0.161-0.725,0.471-1.422,0.733-2.192c3.711,2.509,3.254,6.313,3.755,9.783c0.852,5.884,1.662,11.775,2.679,17.631
	c0.44,2.534,2.182,4.258,4.414,5.594c0.894,0.533,1.506,1.648,2.081,2.6c1.618,2.669,2.606,5.732,5.62,7.441
	c0.731,0.413,0.958,1.924,1.187,2.98c0.601,2.782,0.445,5.534,3.071,7.87c2.924,2.6,4.691,6.459,7.45,9.295
	c1.799,1.854,4.333,3.214,6.787,4.129c1.662,0.621,1.561-1.252,1.2-2.27c-0.757-2.131-1.508-4.325-2.67-6.245
	c-5.904-9.748-11.857-19.465-17.966-29.083c-2.08-3.273-2.536-10.043-0.046-13.308c3.102,2.155,6.224,4.343,9.361,6.505
	c2.818,1.941,6.045,3.472,8.385,5.874c4.141,4.246,9.875,5.062,14.725,7.727c1.167,0.641,2.684,0.869,4.048,0.894
	c5.321,0.095,10.087,2.127,14.919,3.989c0.836,0.323,1.779,0.376,2.668,0.553c0.117-0.209,0.231-0.416,0.348-0.63
	c-0.647-0.581-1.204-1.336-1.953-1.715c-7.208-3.663-14.415-7.326-21.684-10.864c-6.675-3.245-13.006-6.893-18.278-12.279
	c-5.226-5.341-11.192-10.015-16.024-15.67c-6.719-7.863-12.739-16.332-18.952-24.618c-2.21-2.948-4.015-6.197-6.19-9.174
	c-2.199-3.01-2.547-6.329-1.153-9.481c1.187-2.688-0.02-4.565-1.557-5.788c-6.342-5.041-10.263-11.764-13.424-18.925
	c-2.827-6.406-4.872-13.154-7.59-19.613c-1.413-3.356-3.641-6.37-5.299-9.642c-0.691-1.365-0.854-2.994-1.27-4.507
	c-0.9-3.265-1.838-6.524-2.695-9.803c-0.244-0.934-0.257-1.927,0.209-2.88c3.373,6.129,6.988,12.137,10.061,18.413
	c4.5,9.187,7.41,18.989,10.378,28.757c0.471,1.555,1.402,3.025,2.364,4.357c2.45,3.395,5.35,6.503,7.5,10.066
	c3.582,5.938,6.622,12.205,10.092,18.213c1.607,2.782,3.691,5.29,5.587,7.903c0.104,0.141,0.478,0.083,1.294,0.202
	c-0.689-2.624-1.008-5.134-1.997-7.34c-2.36-5.27-4.678-10.615-7.67-15.528c-4.978-8.179-7.324-17.22-9.86-26.266
	c-2.084-7.425-4.378-14.802-6.817-22.117c-0.729-2.188-2.193-4.156-3.435-6.151c-2.357-3.793-4.962-7.438-7.174-11.311
	c-4.603-8.047-5.717-16.951-6.463-26.043c-0.605-7.37,1.004-14.439,2.052-21.546c0.59-3.995,3.234-7.679,4.848-11.546
	c0.85-2.041,1.677-4.126,2.14-6.274c0.471-2.168,0.48-4.442,1-6.703c3.619,12.004,6.237,24.341,13.785,34.596
	c0.418-0.128,0.836-0.254,1.255-0.381c-0.755-3.773-1.352-7.589-2.292-11.315c-2.554-10.101-5.361-20.135-7.839-30.252
	c-1.145-4.679-0.55-9.385,0.654-14.076c1.286-5.002,4.566-8.691,7.666-12.474c2.477-3.018,5.539-5.552,8.072-8.53
	c1.543-1.81,2.838-3.789,2.123-6.662c-1.165-4.658-1.812-9.446-2.688-14.177c-0.762-4.101-1.832-8.176-2.241-12.312
	c-0.669-6.768-0.473-13.515,2.8-19.769c0.365-0.7,0.645-1.486,1.151-2.065c1.988-2.272,3.703-4.542,2.58-7.881
	c-0.198-0.597,0.264-1.942,0.766-2.167c4.356-1.935,8.658-4.352,13.248-5.274c3.098-0.625,6.822,0.44,9.924,1.638
	c3.06,1.182,5.812,1.717,8.847,0.502c0.073-2.503-3.898-4.823-11.733-6.857c-4.227-1.094-7.861-0.418-8.9,1.572
	c-2.481-0.134-5.008-0.727-7.322-0.26c-2.188,0.44-4.149,1.99-6.54,3.228c-0.764-3.106-1.218-6.457,0.361-9.416
	c1.961-3.67,4.291-7.221,6.961-10.409c2.75-3.275,6.274-5.889,9.127-9.087c2.539-2.844,3.859-6.109,3.617-10.307
	c-0.44-7.643-5.378-12.542-9.616-17.957c-4-5.112-4.797-10.961-4.744-17.279c0.07-8.231,4.079-14.917,7.689-21.759
	c2.783-5.274,4.956-10.554,4.722-16.669c-0.115-2.992,0.319-6.008,0.504-9.013c-0.378-0.09-0.757-0.181-1.136-0.271
	c-0.41,1.099-0.784,2.212-1.229,3.296c-0.986,2.397-1.481,5.259-3.124,7.073c-4.097,4.522-6.586,9.667-8.037,15.489
	c-0.392,1.572-1.217,3.1-2.116,4.467c-3.289,4.993-4.405,10.655-5.182,16.41c-1.109,8.253,1.442,15.604,6.278,22.107
	c3.613,4.852,5.173,10.514,7.311,15.974c0.236,0.596,0.139,1.431-0.068,2.069c-1.316,4.04-3.502,7.634-7.253,9.675
	c-6.955,3.782-9.697,10.105-11.018,17.29c-0.978,5.323-0.934,10.668,1.323,15.798c0.225,0.513-0.066,1.352-0.308,1.963
	c-0.647,1.631-1.189,3.362-2.148,4.799c-3.619,5.426-3.857,11.555-3.692,17.69c0.075,2.745-0.68,4.938-2.164,7.104
	c-6.164,8.989-12.015,18.208-18.499,26.959c-6.197,8.37-5.187,16.865-1.862,25.708c0.269,0.708,0.94,1.259,1.354,1.928
	c0.354,0.577,0.605,1.215,1.147,2.325c-3.456-0.506-6.642,0.57-9.167-2.501c-1.154-1.4-3.212-2.061-5.167-2.721
	c2.367,3.896,5.321,7.267,5.348,12.093c0.026,5.057-3.122,7.958-6.578,10.624c1.42,1.996,2.809,3.953,4.537,6.382
	c0.282-0.165,1.16-0.572,1.9-1.149c2.305-1.808,4.863-2.928,7.789-2.351c1.094,0.22,2.032,1.236,3.159,1.97
	c-4.264,3.624-8.026,6.893-11.895,10.032c-0.543,0.444-1.668,0.502-2.417,0.311c-5.325-1.343-9.684-4.003-12.291-9.109
	c-2.49-4.883-4.7-9.832-4.594-15.457c0.088-4.651,0.484-9.31,0.383-13.952c-0.077-3.458,1.105-6.226,2.567-9.319
	c2.551-5.405,4.352-11.247,5.785-17.074c1.44-5.852,2.197-11.886,2.977-17.875c0.669-5.129,1.246-10.307,1.316-15.47
	c0.079-5.717,1.754-11.051,2.893-16.537c1.779-8.581,5.323-16.515,9.004-24.326c2.292-4.861,5.429-9.519,9.011-13.532
	c6.344-7.108,10.045-15.531,13.567-24.119c2.827-6.895,5.829-13.743,8.147-20.81c1.668-5.099,2.446-10.505,3.438-15.812
	c0.885-4.733,0.874-9.739,2.433-14.215c1.882-5.392,4.922-10.393,7.619-15.48c1.345-2.534,3.031-4.892,4.579-7.315
	c1.561-2.441,3.412-4.436,6.569-4.733c1.651-0.156,3.337-0.41,4.898-0.942c2.287-0.784,4.779-1.451,5.556-4.286
	c0.178-0.649,0.511-1.257,0.771-1.884c0.359,0.301,0.715,0.597,1.077,0.896c-0.37,0.916-0.634,1.891-1.121,2.738
	c-3.128,5.475-4.775,11.48-5.944,17.579c-0.445,2.325-0.016,4.922,0.491,7.295c0.582,2.704,4.971,4.339,8.016,2.963
	c3.337-1.504,6.499-3.386,9.739-5.097c2.789-1.473,5.532-3.049,8.392-4.37c2.981-1.376,6.041-1.037,9.266-0.511
	c3.297,0.537,6.756,0.04,10.146,0.075c4.54,0.046,9.079,0.147,13.618,0.277c2.151,0.06,4.299,0.233,6.45,0.357
	c0.099-0.264,0.2-0.533,0.302-0.801c-0.676-0.482-1.299-1.268-2.034-1.392c-3.861-0.643-7.765-1.037-11.622-1.697
	c-1.528-0.262-2.97-0.993-4.44-2.103c1.224-0.284,2.452-0.845,3.665-0.801c5.865,0.211,11.729,0.531,17.581,0.982
	c0.508,0.04,1.21,1.277,1.294,2.017c0.09,0.799-0.563,1.653-0.663,2.512c-0.13,1.123-0.031,2.266-0.031,3.403
	c1.543-0.2,3.507,0.134,4.553-0.693c3.091-2.446,5.79-5.38,8.698-8.06c1.79-1.646,3.681-3.174,5.825-5.01
	c-0.363-0.597-0.881-1.449-1.687-2.783c1.363-0.81,2.635-1.9,4.108-2.377c5.306-1.719,9.312-5.244,12.816-9.294
	c1.973-2.283,3.382-5.09,4.848-7.769c1.929-3.531,4.375-5.739,8.795-5.259c3.104,0.339,6.276,0.066,9.416,0.066
	c0.09,0.225,0.18,0.444,0.271,0.671c-1.065,0.557-2.08,1.246-3.203,1.651c-4.793,1.715-9.213,4.035-12.337,8.167
	c-1.559,2.061-2.782,4.403-3.928,6.732c-0.266,0.539,0.407,1.539,0.647,2.329c0.672-0.267,1.611-0.33,1.971-0.823
	c6.144-8.502,15.174-12.445,24.653-15.654c4.3-1.458,8.67-2.728,13.42-4.211c-0.23,2.967-1.032,5.334-2.838,7.3
	c-1.543,1.682-3.152,3.311-4.794,4.898c-4.804,4.64-9.632,9.252-14.666,14.08c-0.509-0.878-1.209-2.091-2.12-3.661
	c-0.772,0.676-1.625,1.222-2.215,1.972c-3.947,5.057-7.331,10.411-9.519,16.524c-0.493,1.367-2.429,2.719-3.943,3.104
	c-2.485,0.63-4.062,1.574-4.532,4.233c-1.33,7.505-2.171,15.199-6.582,21.744c-2.799,4.147-5.766,8.187-8.841,12.132
	c-0.724,0.934-2.175,1.303-3.597,2.104c0.257,0.52,0.412,1.405,0.934,1.797c5.968,4.501,6.622,10.987,6.472,17.646
	c-0.134,5.966-1.101,11.934-0.92,17.875c0.335,10.906,1.548,21.722,6.732,31.659c0.316,0.605,0.004,1.539-0.016,2.325
	c-0.691-0.169-1.517-0.149-2.052-0.535c-3.863-2.796-7.925-3.492-12.469-1.777c-0.48,0.178-2.164-1.208-2.296-2.027
	c-0.535-3.339-2.726-5.596-5.946-4.718c-5.138,1.407-9.82,0.777-14.49-1.519c-4.804-2.362-9.107-0.656-12.887,2.285
	c-4.169,3.241-8.762,3.522-13.623,2.851c-2.701-0.375-4.585-2.054-5.864-4.341c-1.046-1.876-1.799-1.537-3.111-0.174
	c-2.232,2.327-4.755,4.368-7.078,6.613c-3.28,3.168-6.716,6.224-9.633,9.706c-1.356,1.621-1.801,4.093-2.399,6.248
	c-1.334,4.81-2.569,9.651-3.716,14.509c-0.535,2.272-0.865,4.61-1.109,6.935c-0.258,2.439-0.366,4.9-0.416,7.351
	c-0.026,1.182,0.231,2.371,0.361,3.558c0.275,0.06,0.55,0.119,0.823,0.178c1.035-2.963,2.254-5.878,3.076-8.9
	c2.382-8.764,2.961-18.071,7.403-26.204c1.394-2.547,3.562-4.861,5.849-6.684c3.254-2.6,7.344-4.2,8.722-8.068
	c3.485,1.647,6.728,3.175,9.953,4.698c-1.922,2.118-4.024,4.321-6.003,6.63c-4.927,5.746-7.476,12.575-9.281,19.835
	c-1.481,5.951-3.665,11.725-5.204,17.665c-0.986,3.802-1.431,7.749-1.97,11.652c-0.141,1.026,0.255,2.127,1.017,3.324
	c1.039-1.995,2.313-3.898,3.08-5.997c3.353-9.204,6.756-18.395,9.759-27.712c2.805-8.695,7.042-16.51,13.241-23.152
	c1.121-1.2,3.637-1.089,5.504-1.598c1.598-0.434,3.19-0.883,4.777-1.345c0.841-0.242,1.671-0.768,2.499-0.757
	c2.943,0.042,5.882,0.301,8.824,0.4c1.754,0.06,2.606,1.042,2.703,2.62c0.207,3.395,0.169,6.803,0.434,10.19
	c0.582,7.419-2.437,14.076-4.297,20.973c-2.332,8.634-6.292,16.542-10.93,24.146c-0.808,1.323-1.297,2.873-1.719,4.376
	c-0.141,0.504,0.22,1.468,0.643,1.712c0.383,0.223,1.352-0.062,1.748-0.449c3.844-3.736,7.339-7.588,8.927-13.046
	c2.104-7.225,6.538-13.063,12.438-17.792c3.544-2.842,4.057-6.93,3.441-10.974c-1.054-6.893-2.569-13.713-3.894-20.575
	c4.418-0.614,6.857,0.892,8.044,5.84c1.16,4.839,1.565,9.856,2.395,14.778c0.988,5.867-2.256,9.917-5.645,14.056
	c-5.66,6.915-11.333,13.83-16.623,21.021c-6.184,8.405-11.962,17.107-17.906,25.687c-0.394,0.565-0.696,1.193-1.039,1.79
	c0.18,0.189,0.359,0.381,0.539,0.572c2.32-2.148,4.894-4.083,6.891-6.5c2.562-3.095,4.376-6.831,7.038-9.825
	c2.653-2.981,6.049-5.286,8.949-8.068c4.524-4.336,8.914-8.814,13.347-13.25c2.323-2.327,4.683-4.618,6.897-7.04
	c2.677-2.93,2.067-6.554,1.801-10.052c-0.26-3.405-0.552-6.813-0.929-10.208c-0.361-3.293-0.887-6.564-1.264-9.858
	c-0.211-1.852-0.262-3.718-0.388-5.576c0.366-0.115,0.727-0.229,1.092-0.343c2.544,4.632,5.369,9.138,7.569,13.928
	c3.478,7.573,2.733,15.52-0.577,22.736c-3.071,6.695-6.708,13.262-12.914,18.03c-3.135,2.411-5.4,5.948-7.622,8.48
	c0.944-0.634,2.615-1.66,4.178-2.825c4.46-3.324,9.063-6.49,13.252-10.126c3.696-3.208,6.992-6.899,10.292-10.529
	c1.006-1.109,1.481-2.719,2.122-4.137c0.414-0.92,0.689-1.904,1.026-2.859c0.229-0.022,0.462-0.042,0.69-0.06
	c0.267,0.826,0.835,1.687,0.744,2.47c-0.52,4.502-0.865,9.065-1.928,13.448c-0.806,3.329-4.04,4.986-6.766,6.739
	c-4.434,2.853-8.83,5.807-13.486,8.253c-5.882,3.091-12.015,5.71-18.034,8.544c-0.795,0.374-1.555,0.821-2.347,1.198
	c-3.071,1.451-6.148,2.879-9.215,4.334c-0.542,0.255-1.033,0.616-1.543,0.931c0.077,0.203,0.154,0.41,0.229,0.614
	c3.067-0.312,6.126-0.762,9.2-0.905c5.752-0.269,11.521-0.227,17.264-0.579c3.54-0.216,7.058-0.85,10.561-1.453
	c1.862-0.322,3.632-0.837,4.881,1.169c1.703,2.734,3.619,5.358,5.076,8.218c4.046,7.928,4.667,16.592,5.229,25.285
	c0.36,5.601,1.187,11.171,1.687,16.765c0.266,2.952,0.18,5.933,0.442,8.887c0.167,1.902,0.53,3.826,1.131,5.632
	c0.225,0.678,1.372,1.045,2.103,1.552c0.348-0.705,0.911-1.385,1.021-2.127c0.772-5.271,1.237-10.554,0.293-15.863
	c-0.049-0.279,0.176-0.607,0.557-0.949c1.411,3.062,2.882,6.103,2.521,9.581c-0.739,7.071-1.394,14.164-2.463,21.185
	c-0.808,5.318-1.183,10.824-4.141,15.602c-0.221,0.36-0.482,0.697-0.809,1.162c-3.263-4.802-6.054-9.799-9.722-14.038
	c-3.577-4.137-7.282-8.558-12.979-10.041c-0.223,0.202-0.44,0.405-0.661,0.605c0.762,0.938,1.389,2.031,2.3,2.789
	c8.815,7.351,13.944,17.011,17.378,27.698c0.414,1.283,0.055,2.81,0.055,4.925c-1.094-0.835-1.444-0.984-1.62-1.253
	c-2.584-3.949-5.065-7.967-7.729-11.865c-3.307-4.839-6.483-9.808-10.212-14.306c-5.801-6.996-13.438-11.535-21.935-14.584
	c-1.645-0.588-3.487-0.637-5.321-0.447c4.422,2.961,8.867,5.883,13.261,8.879c8.693,5.931,15.014,13.943,19.949,23.102
	c3.685,6.836,7.023,13.871,10.888,20.604c1.39,2.419,3.8,4.275,5.86,6.276c7.087,6.877,15.031,13.155,16.262,24.645
	c-0.748-1.136-1.175-1.854-1.668-2.522c-2.067-2.818-3.84-5.941-6.301-8.363c-4.784-4.705-9.955-9.013-14.975-13.481
	c-2.417-2.151-5.274-2.91-8.774-2.827c0.279,1.141,0.235,2.255,0.766,2.901c2.917,3.58,5.688,7.354,9.051,10.479
	c5.477,5.09,10.008,10.891,11.181,18.199c0.716,4.473-0.151,9.51-1.481,13.939c-2.697,8.966-6.206,17.686-9.345,26.524
	c-0.793,2.224-1.504,4.478-2.136,6.752c-0.156,0.57,0.137,1.264,0.227,1.9c0.584-0.229,1.197-0.393,1.732-0.7
	c0.802-0.46,1.541-1.021,2.523-1.685c0,1.978,0,3.564,0,5.272c-4.895,2.622-9.676,3.461-14.88,0.321
	c-3.646-2.196-7.701-3.725-11.604-5.485c-4.553-2.055-6.294-6.171-7.622-10.49c-0.898-2.919-1.638-5.938-1.973-8.964
	c-0.275-2.49,0.189-5.057,0.233-7.591c0.016-0.988-0.224-1.975-0.348-2.968c-0.286-0.028-0.57-0.058-0.854-0.086
	c-0.861,3.575-2.413,7.148-2.419,10.726c-0.009,5.202,0.9,10.441,1.79,15.602c0.698,4.02,3.529,6.765,6.816,8.955
	c4.658,3.104,9.188,6.479,14.118,9.088c5.303,2.805,10.82,5.283,14.831,9.827c3.095,3.502,6.212,7.238,8.185,11.405
	c2.143,4.537-3.43,12.221-8.484,12.76c-1.305,0.139-2.621,0.493-3.911,0.414c-1.128-0.068-2.413-0.344-3.307-0.982
	c-3.104-2.208-6.063-4.616-9.048-6.926c0.801,3.263,2.51,6.171,5.572,8.209c1.316,0.877,2.805,1.537,4.007,2.548
	c6.437,5.422,11.24,2.74,16.271-1.603c2.257-1.948,3.388-5.205,5.013-7.884c3.621-5.964,6.717-12.317,12.978-16.198
	c1.427-0.889,2.55-2.273,3.912-3.52c0.072,0.33,0.279,0.79,0.267,1.243c-0.177,6.543,0.378,13.051-2.03,19.507
	c-1.574,4.225-2.485,8.635-4.823,12.654C336.278,646.84,326.867,649.596,316.327,646.05z M157.342,404.867
	c-1.404-1.025-1.436-2.441-0.233-3.856c1.14-1.343,2.351-1.588,3.91-0.755c4.119,2.203,4.669,3.672,2.662,8.497
	C161.417,407.388,159.274,406.271,157.342,404.867z M158.61,409.708c-0.066,0.309-0.132,0.614-0.198,0.923
	c-2.248,0.436-4.495,0.872-6.743,1.308c-0.213-0.161-0.427-0.321-0.638-0.482c1-1.087,1.871-2.868,3.029-3.082
	C155.446,408.114,157.082,409.204,158.61,409.708z M169.892,376.271c0.867-0.5,2.521,0.368,3.624,0.579
	c-2.021,4.462-3.859,8.533-5.752,12.716c-3.595-2.138-3.337-5.858-2.824-8.808C165.247,378.99,167.948,377.391,169.892,376.271z
	 M168.977,368.097c2.351-8.063,7.209-15.24,12.233-22.598c0.489,0.443,0.806,0.586,0.85,0.788
	c1.149,5.548,2.331,11.084,3.368,16.649c0.48,2.569-0.533,4.548-2.798,6.017c-1.594,1.033-2.967,2.402-3.984,3.245
	C175.182,370.732,172.195,369.464,168.977,368.097z M167.609,396.462c-0.192,1.426-0.326,2.43-0.462,3.436
	c-1.314-0.378-2.626-0.757-3.94-1.134c0.055-0.39,0.11-0.779,0.165-1.166C164.578,397.274,165.784,396.951,167.609,396.462z
	 M154.841,426.397c4.201-4.238,4.201-4.238,7.17-2.517C160.443,428.037,157.976,428.962,154.841,426.397z M330.062,345.774
	c-0.063-2.166,0.333-4.348,1.123-6.695c1.078,3.58,2.345,7.111,3.189,10.748c1.299,5.614,2.305,11.295,3.438,16.949
	c0.086,0.427,0.093,0.96,0.349,1.25c2.27,2.576,2.179,5.501,1.573,8.621c-0.706,3.619,0.108,7.582-3.156,10.703
	c0.169-2.95,0.427-5.896,0.486-8.841c0.033-1.986,0.009-4.022-0.4-5.948c-0.56-2.633-1.486-5.191-2.299-7.767
	c-0.288-0.918-0.467-2.028-1.09-2.655C328.525,357.38,330.233,351.381,330.062,345.774z M359.68,686.503
	c3.454,2.613,5.803,6.686,8.632,10.124c1.132,1.379,2.287,2.746,3.354,4.175c1.467,1.963,3.159,3.843,4.161,6.029
	c0.5,1.09-0.312,2.778-0.532,4.198c-1.084-0.332-2.16-0.683-3.25-0.993c-0.913-0.262-1.838-0.484-2.758-0.722
	c0.167,0.942,0.044,2.117,0.57,2.771c0.85,1.057,2.049,1.896,3.235,2.6c3.245,1.918,3.459,2.878,1.062,6.332
	c-2.589-1.72-5.185-3.443-7.873-5.231c-1.638,1.878-1.219,3.393,0.161,4.57c1.523,1.302,3.326,2.268,4.907,3.512
	c0.774,0.603,1.32,1.501,1.968,2.27c-0.599,0.451-1.185,1.246-1.801,1.276c-0.995,0.045-2.327-0.107-2.965-0.73
	c-2.004-1.961-3.719-4.209-5.611-6.285c-0.63-0.691-1.46-1.204-2.199-1.801c-0.249,0.102-0.502,0.203-0.751,0.304
	c0.258,1.011,0.323,2.12,0.799,3.014c1.561,2.945,3.351,5.771,4.867,8.74c0.41,0.799,0.156,1.933,0.207,2.912
	c-0.889-0.123-1.827-0.112-2.661-0.403c-0.89-0.31-1.841-0.746-2.494-1.397c-3.668-3.637-7.399-7.223-10.831-11.075
	c-4.652-5.227-6.175-11.807-6.719-18.508c-0.445-5.479-3.159-9.383-7.175-12.594c-3.337-2.664-5.611-5.999-7.021-9.953
	c-0.594-1.669,0.293-2.475,1.906-3.075c5.486-2.048,11.194-2.054,16.896-2.006c0.73,0.007,1.79,1.053,2.12,1.852
	C351.838,681.116,355.805,683.579,359.68,686.503z M380.937,525.847c-3.751,0.086-6.562,1.748-8.411,5.004
	c-0.859,1.513-1.715,1.876-2.975,0.37c-5.193-6.201-10.477-12.328-15.614-18.573c-2.499-3.04-3.271-12.225-1.434-15.333
	c2.42,3.905,4.762,7.777,7.192,11.602c1.84,2.893,4.116,5.288,7.74,5.845c1.801,0.275,3.577,0.579,3.826-2.138
	c0.053-0.612,0.889-1.153,1.243-1.581c3.241,4.848,6.376,9.548,9.614,14.394C381.549,525.64,381.249,525.838,380.937,525.847z
	 M360.213,400.363c2.177,2.366,1.692,5.504,1.567,8.521c-0.121,3.008,0.083,6.061,0.471,9.053c0.777,5.985,3.614,11.194,7.27,15.795
	c2.529,3.184,5.697,5.966,8.936,8.467c6.84,5.281,10.989,12.4,14.64,19.969c1.023,2.123,2.432,4.054,3.526,6.146
	c0.539,1.033,1.268,2.345,1.041,3.336c-1.336,5.88-2.812,11.735-4.476,17.534c-1.728,6.029-6.789,9.464-11.133,13.378
	c-1.6,1.442-3.965-0.084-4.141-2.461c-0.163-2.176-0.297-4.359-0.546-6.529c-0.687-5.96-4.233-8.681-10.142-7.842
	c-0.57,0.081-1.139,0.193-1.706,0.29c-0.117-0.224-0.231-0.439-0.351-0.662c1.323-0.846,2.604-1.748,3.961-2.522
	c4.55-2.594,9.51-4.608,12.971-8.756c0.649-0.776,1.069-2.282,0.785-3.205c-1.891-6.192-3.997-12.321-6.062-18.459
	c-0.277-0.825-0.52-1.825-1.12-2.354c-3.763-3.298-7.445-6.763-12.321-8.341c-0.284,0.223-0.563,0.442-0.848,0.665
	c0.892,1.426,1.557,3.082,2.719,4.233c4.13,4.083,5.16,9.532,6.345,14.761c0.387,1.721-1.374,3.929-2.151,5.915
	c-0.264,0-0.525-0.003-0.788-0.003c-0.392-0.797-0.832-1.576-1.171-2.393c-2.877-6.968-5.752-13.938-8.599-20.92
	c-0.731-1.794-2.164-1.978-3.698-1.563c-2.109,0.575-4.196,1.272-6.226,2.081c-1.865,0.739-2.684,0.188-2.704-1.746
	c-0.02-2.113,0.066-4.231-0.053-6.336c-0.493-8.465-0.048-16.762,2.998-24.839c0.725-1.917,0.113-4.337,0.113-6.524
	c0-4.784,0-9.572,0-14.356c0.229-0.108,0.466-0.218,0.695-0.326C353.43,393.684,356.992,396.867,360.213,400.363z M361.826,248.229
	c0.319,0.02,0.636,0.04,0.953,0.055c0.282-2.184,0.526-4.372,0.85-6.549c1.332-8.991,2.706-17.968,2.246-27.117
	c-0.104-2.065,0.365-4.159,0.569-6.239c0.219-0.018,0.428-0.033,0.644-0.051c0.18,1.367,0.532,2.738,0.506,4.105
	c-0.06,3.61,0.848,6.879,2.543,10.076c0.597,1.123,0.544,2.891,0.154,4.174c-0.854,2.798-0.721,5.29,1.532,7.243
	c2.144,1.856,2.514,3.502,1.276,6.292c-6.296,14.199-12.255,28.544-18.408,42.807c-3.368,7.811-6.884,15.558-10.34,23.331
	c-0.139,0.315-0.37,0.586-0.688,1.07c-1.195-1.994-2.593-1.488-3.689-0.189c-1.164,1.385-2.041,3.014-3.054,4.53
	c-0.409,0.617-0.843,1.22-1.263,1.83c-0.305-0.102-0.602-0.201-0.903-0.299c0.646-2.616,0.979-5.358,2.008-7.811
	c1.574-3.771,3.604-7.357,5.476-11c5.536-10.774,9.182-21.997,8.336-34.318c-0.097-1.405-0.105-2.812-0.233-4.209
	c-0.044-0.462-0.323-0.902-0.955-1.371c-0.843,5.323-1.069,10.844-2.696,15.916c-1.636,5.112-4.61,9.805-7.091,14.633
	c-2.468,4.808-5.044,9.559-10.32,12.287c-0.051-0.467-0.194-0.799-0.089-0.923c4.619-5.411,7.197-11.982,10.09-18.313
	c1.611-3.531,2.238-7.522,3.289-11.311c1.471-5.316,3.194-10.589,4.295-15.98c0.812-3.987,0.794-8.139,1.166-12.22
	c0.238-2.637,0.626-5.271,0.738-7.914c0.13-3.152,0.03-6.316,0.03-9.478c-0.321-0.05-0.641-0.101-0.96-0.152
	c-0.372,0.405-0.862,0.753-1.096,1.227c-1.638,3.278-2.541,6.499-2.611,10.426c-0.112,6.417-1.592,12.865-3,19.19
	c-2.09,9.4-5.83,18.078-13.079,24.795c-2.003,1.854-4.265,3.43-6.587,5.274c-1.213-3.295-1.037-5.023,1.422-7.317
	c7.069-6.604,10.369-15.212,11.926-24.786c0.748-4.61-0.5-9.601,2.489-13.944c0.914-1.33,0.452-3.577,0.714-5.389
	c0.876-6.054,1.792-12.101,2.696-18.151c-0.328-0.088-0.66-0.176-0.988-0.266c-0.563,2.115-1.123,4.233-1.697,6.347
	c-1.536,5.662-3.093,11.324-4.616,16.991c-0.929,3.467-1.902,6.93-2.708,10.426c-1.539,6.648-4.709,12.396-9.578,17.306
	c1.433-4.004,3.154-7.938,4.216-12.04c0.85-3.27,0.841-6.752,1.325-10.125c1.226-8.585,1.917-17.31,3.982-25.691
	c1.424-5.774,4.806-11.064,7.286-16.581c3.113-6.923,6.664-13.688,7.287-21.462c0.062-0.746,0.284-1.642,0.762-2.168
	c5.279-5.823,10.629-11.588,15.958-17.367c0.2,0.116,0.403,0.231,0.604,0.352c-0.24,0.777-0.326,1.653-0.749,2.316
	c-1.697,2.666-3.119,5.655-5.34,7.804c-4.077,3.945-5.458,8.979-6.598,14.098c-1.885,8.469-3.529,17-5.037,25.545
	c-0.484,2.736-0.271,5.607-0.258,8.414c0.004,0.61,0.518,1.22,0.962,2.188c2.877-4.398,3.351-9.121,4.279-13.662
	c1.504-7.364,2.968-14.741,4.219-22.153c0.825-4.865,4.279-8.125,6.817-11.905c5.176-7.723,10.684-15.219,16.063-22.8
	c0.328-0.46,0.747-0.854,1.125-1.279c0.203,0.097,0.41,0.196,0.614,0.292c-3.165,9.554-6.324,19.111-9.73,29.394
	c-0.889-2.246-1.501-3.793-2.043-5.156c-3.07,12.57-4.604,25.341-4.948,38.31C361.579,222.481,360.626,235.361,361.826,248.229z
	 M375.424,183.767c1.267-8.191,3.142-16.326,5.353-24.319c1.601-5.77,4.158-11.271,6.417-17.241c2.47,1.125,4.376,1.783,6.017,2.853
	c0.576,0.376,0.869,1.855,0.66,2.668c-1.594,6.188-3.421,12.317-5.032,18.499c-2.19,8.379-4.267,16.782-6.369,25.18
	c-0.4,1.604-0.614,3.267-1.113,4.841c-0.189,0.592-0.859,1.213-1.453,1.455c-1.277,0.513-2.653,0.791-4.625,1.345
	C375.279,194.005,374.649,188.777,375.424,183.767z M394.286,223.098c-3.258-0.438-6.401-1.708-9.622-2.512
	c-1.438-0.359-2.924-0.619-4.403-0.717c-3.014-0.207-4.907-1.898-4.939-4.932c-0.022-1.911,0.211-3.859,0.574-5.741
	c0.546-2.837,1.229-5.658,2.023-8.434c0.26-0.905,1.057-1.655,1.611-2.477c0.321,0.158,0.649,0.319,0.971,0.48
	c-0.307,1.481-0.639,2.957-0.907,4.445c-0.641,3.526-1.316,7.046-1.818,10.593c-0.095,0.663,0.412,1.911,0.879,2.045
	c1.047,0.299,2.812,0.535,3.291-0.035c2.61-3.135,6.351-2.549,9.58-2.932c10.083-1.196,20.135-0.189,30.134,1.378
	c0.687,0.11,1.408,0.026,2.108,0.079c0.597,0.044,1.18,0.159,1.957,0.267C415.832,220.363,405.765,224.645,394.286,223.098z
	 M427.527,208.467c-8.202-0.504-16.023-0.984-24.222-1.49c0-3.622,0.185-7.322-0.047-10.997c-0.248-3.905,0.947-6.712,4.507-8.645
	c3.216-1.746,6.248-3.844,9.308-5.871c0.733-0.489,1.244-1.314,2.239-2.402C422.022,188.772,424.69,198.316,427.527,208.467z
	 M451.834,118.624c-2.45,10.133-7.287,19.17-13.191,27.657c-5.015,7.216-10.199,14.312-15.304,21.464
	c-0.3,0.416-0.568,0.856-1.227,1.856c-1.295-3.989-2.503-7.172-3.347-10.441c-1.866-7.212-3.396-14.519-5.362-21.702
	c-1.332-4.894-3.073-9.68-4.837-14.439c-0.506-1.369-0.484-2.12,0.537-3.214c7.519-8.06,17.381-10.688,27.754-12.183
	c2.347-0.339,4.713-0.561,7.056-0.913c2.021-0.309,3.646,0.11,4.695,2.036c0.33,0.607,0.735,1.374,1.304,1.625
	C454.246,112.295,452.554,115.654,451.834,118.624z M453.826,24.225c-2.31,5.376-0.916,10.989-1.134,16.504
	c-0.328,8.416-0.896,16.828-1.103,25.244c-0.137,5.598,0.16,11.212,0.297,16.816c0.099,3.95,0.332,7.899,0.302,11.846
	c-0.005,0.764-0.782,1.886-1.488,2.208c-1.975,0.889-4.056,1.675-6.178,2.084c-5.931,1.147-11.902,2.085-17.866,3.089
	c-0.493,0.082-1.011,0.013-1.96,0.013c6.253-7.569,8.986-16.277,12.256-24.729c1.29-3.346,2.499-6.741,4.053-9.961
	c2.208-4.575,1.218-9.301,1.103-13.995c-0.136-5.779-0.774-11.591-0.367-17.325c0.332-4.78,2.817-8.894,6.296-12.427
	c2.099-2.131,3.573-4.876,5.385-7.298c0.702-0.94,1.532-1.796,2.378-2.617c1.968-1.904,3.976-3.765,5.968-5.643
	c0.218,0.15,0.43,0.306,0.646,0.46c-0.951,1.466-1.771,3.042-2.878,4.375C456.756,16.229,455.501,20.324,453.826,24.225z
	 M458.196,37.732c0.134,6.274-0.245,12.562-0.516,18.838c-0.112,2.547-0.532,5.081-0.812,7.619c-0.292-0.011-0.585-0.024-0.88-0.035
	c-0.102-0.315-0.307-0.634-0.295-0.949c0.26-5.671,0.792-11.337,0.766-17.006c-0.026-5.048-0.504-10.111-1.094-15.13
	c-0.298-2.549-0.641-4.839,1.682-6.657c0.52-0.405,0.96-1.103,1.123-1.746c0.704-2.774,2.089-1.812,3.865-0.689
	C455.434,26.087,458.077,32.11,458.196,37.732z M460.724,28.394c0.957-1.409,1.357-2.697,2.192-3.097
	c3.921-1.896,7.927-3.624,11.978-5.215c0.663-0.258,2.087,0.216,2.45,0.797c0.321,0.513-0.065,1.933-0.614,2.461
	c-3.848,3.7-8.68,5.477-13.803,6.499C462.409,29.941,461.691,29.055,460.724,28.394z M463.594,35.472
	c2.895-1.16,5.746-2.468,8.727-3.379c0.806-0.247,1.979,0.711,2.983,1.119c-0.421,0.944-0.586,2.344-1.308,2.745
	c-3.315,1.84-6.794,1.517-10.229,0.508C463.713,36.132,463.651,35.802,463.594,35.472z M518.388,143.401
	c0.513,3.762,1.109,7.516,1.783,11.251c0.744,4.114,1.712,8.191,2.412,12.315c1.163,6.855,2.14,13.746,3.289,20.605
	c0.958,5.695,1.955,11.386,3.146,17.033c0.453,2.155-0.172,2.644-2.176,2.551c-4.821-0.22-9.657-0.46-14.477-0.372
	c-2.707,0.046-3.526-1.173-3.216-3.478c0.695-5.182,1.625-10.336,2.261-15.527c0.614-5,1.097-10.019,1.439-15.042
	c0.451-6.518,0.72-13.05,1.051-19.575c0.136-2.699,0.211-5.4,0.356-8.097c0.325-6.098,0.676-12.191,1.032-18.29
	c0.024-0.414,0.146-0.826,0.225-1.237c0.169-0.016,0.335-0.031,0.504-0.046c0.356,2.197,0.769,4.385,1.044,6.591
	C517.538,135.854,517.875,139.641,518.388,143.401z M521.558,103.707c-3.135,3.553-6.866,2.532-10.215,2.86
	C514.346,105.017,517.188,102.926,521.558,103.707z M486.99,198.64c2.552-9,5.269-17.951,7.866-26.937
	c1.017-3.52,1.565-7.205,2.903-10.591c3.531-8.903,6.032-18.076,8.186-27.386c0.521-2.276,1.926-4.354,2.921-6.525
	c0.353,0.121,0.709,0.237,1.059,0.356c-0.2,2.514-0.504,5.026-0.574,7.544c-0.231,7.965-0.137,15.95-0.623,23.899
	c-0.568,9.24-1.616,18.455-2.459,27.676c-0.546,6.01-1.114,12.018-1.616,18.03c-0.116,1.347-0.314,2.349-1.968,2.569
	c-5.728,0.757-11.438,1.62-17.16,2.43c-0.233,0.033-0.493-0.075-1.097-0.181C485.287,205.847,485.982,202.199,486.99,198.64z
	 M524.357,218.122c-3.265,0.74-6.731,0.583-10.104,0.872c-1.173,0.101-2.45,0.147-3.465,0.654
	c-10.177,5.07-20.272,4.944-30.338-0.26c-0.444-0.231-0.804-0.623-1.191-0.931c4.681-6.31,11.961-4.608,18.101-6.239
	c1.092-0.288,2.243-0.4,3.377-0.491c2.347-0.185,5.121-0.944,4.414,3.302c1.422-0.311,2.47-0.535,3.886-0.846
	c-0.951-2.472,0.546-2.712,2.566-2.512c5.4,0.548,10.805,1.046,16.202,1.611c0.846,0.09,1.662,0.443,2.49,0.676
	c0.102,0.253,0.2,0.504,0.3,0.759C528.527,215.899,526.581,217.618,524.357,218.122z"/>
<path fill="#777777" d="M228.983,508.277c-2.921-11.804-3.025-23.98-4.143-36.009c-0.592-6.397-0.513-12.874-0.447-19.313
	c0.062-6.054,0.456-12.107,0.808-18.155c0.163-2.784-0.222-5.027-2.236-7.412c-4.614-5.457-6.008-12.255-6.519-19.216
	c0.262-0.112,0.524-0.227,0.786-0.342c2.428,5.491,4.854,10.977,7.284,16.465c0.317-0.066,0.632-0.137,0.951-0.202
	c0.284-1.147,0.671-2.276,0.834-3.438c0.801-5.658-1.372-10.479-4.282-15.115c-3.027-4.817-5.048-9.935-5.392-15.763
	c-0.203-3.482-1.356-6.912-2.083-10.364c-0.341,0.031-0.683,0.058-1.026,0.09c1.242,7.731-2.168,15.549,1.537,23.487
	c-1.134-0.323-1.82-0.521-2.84-0.814c-0.319,1.306-0.848,2.468-0.839,3.624c0.022,2.439,0.147,4.904,0.546,7.304
	c0.769,4.639,1.154,9.471,2.816,13.795c1.829,4.762,2.694,9.609,3.311,14.538c0.341,2.731,0.717,5.651-0.361,8.223
	c-6.177-1.685-7.934-7.461-11.932-11.117c0.863,12.816,5.636,24.69,8.319,37.111c-1.409-1.156-2.637-2.396-3.699-3.758
	c-3.449-4.427-7.124-8.713-10.179-13.404c-3.848-5.916-9.028-11.003-10.919-18.202c-0.632-2.401-2.778-4.404-4.231-6.591
	c-0.31,0.214-0.619,0.423-0.924,0.637c0.141,0.478,0.213,0.983,0.431,1.422c2.919,5.893,5.572,11.94,8.852,17.629
	c8.94,15.514,18.19,30.851,27.208,46.322c1.389,2.387,2.221,5.104,3.229,7.698c0.826,2.118,1.402,4.339,2.305,6.42
	c3.91,9.017,7.87,18.014,11.879,26.985c0.927,2.069,2.131,4.013,3.205,6.016c0.247-0.079,0.495-0.158,0.74-0.237
	c0-0.841,0.231-1.764-0.035-2.508c-2.974-8.239-6.037-16.451-9.05-24.676C231.539,515.709,229.923,512.079,228.983,508.277z"/>
<path fill="#777777" d="M227.726,411.61c1.448-1.882,2.932-3.738,4.336-5.653c2.274-3.104,4.06-6.728,6.842-9.26
	c3.8-3.458,8.398-6.025,12.55-9.113c2.457-1.827,4.746-3.795,5.125-7.273c0.401-3.721,0.984-7.463,1.904-11.084
	c1.525-6.005,3.373-11.932,5.125-17.875c0.291-0.993,0.74-1.948,1.18-2.891c1.951-4.189,3.908-8.374,5.891-12.546
	c1.125-2.362,2.274-4.718,3.479-7.04c1.365-2.637,2.844-5.217,4.178-7.87c0.244-0.482,0.037-1.193,0.037-1.799
	c-1.492,0.934-2.379,2.081-3.348,3.153c-8.489,9.385-15.899,19.425-19.765,31.698c-2.1,6.67-4.981,13.116-5.184,20.293
	c-0.137,4.838-3.12,8.104-6.47,11.24c-3.932,3.686-8.486,6.809-11.078,11.804c-1.374,2.644-3.115,5.099-4.466,7.756
	c-0.942,1.847-2.177,3.769-1.334,6.008C227.063,411.307,227.396,411.458,227.726,411.61z"/>
<path fill="#777777" d="M237.518,250.371c0.31,0.139,0.616,0.279,0.927,0.418c5.671-4.013,7.769-10.595,10.802-16.092
	c1.688,0.159,3.038,0.082,4.233,0.473c0.759,0.247,1.633,1.101,1.832,1.85c0.225,0.845-0.136,1.913-0.438,2.817
	c-2.142,6.4-4.258,12.806-6.536,19.155c-1.178,3.287-1.394,6.519-0.696,10.499c5.607-4.292,6.028-10.391,7.811-15.817
	c1.849-5.629,3.753-11.236,5.754-17.219c8.682,0.546,18.045,2.615,26.628-3.067c-2.133-0.229-4.262-0.482-6.397-0.687
	c-3.925-0.383-7.918-0.416-11.764-1.193c-4.716-0.951-9.31-2.505-13.953-3.809c-3.622-1.021-6.338,0.341-7.686,3.829
	c-0.282,0.731-0.638,1.448-1.052,2.113c-2.681,4.306-5.438,8.57-8.053,12.916C238.247,247.701,237.978,249.094,237.518,250.371z"/>
<path fill="#777777" d="M234.004,460.936c-0.414-6.833-0.931-13.704-0.713-20.537c0.255-8.039,1.266-16.062,1.911-24.088
	c0.055-0.709-0.172-1.438-0.267-2.155c-0.269-0.097-0.537-0.193-0.808-0.291c-0.575,0.819-1.389,1.562-1.678,2.471
	c-0.663,2.082-1.272,4.225-1.543,6.384c-0.691,5.557-1.466,11.131-1.691,16.716c-0.333,8.121-0.299,16.266-0.225,24.398
	c0.026,2.787,0.59,5.576,1.006,8.348c1.503,9.941,2.919,19.896,4.632,29.803c1.008,5.845,2.5,11.604,3.83,17.39
	c0.104,0.442,0.634,0.783,0.964,1.173c0.251-0.068,0.504-0.137,0.755-0.205c-0.141-2.324,0.006-4.706-0.467-6.958
	c-2.054-9.781-3.628-19.591-3.989-29.618C235.449,476.144,234.467,468.553,234.004,460.936z"/>
<path fill="#777777" d="M206.163,491.817c-2.695-3.656-6.129-6.796-8.619-10.571c-7.782-11.795-14.682-24.11-20.683-36.916
	c-0.139-0.297-0.42-0.521-0.759-0.936c-1.013,0.89-1.933,1.473-2.525,2.294c-0.517,0.718-1.16,1.904-0.9,2.534
	c1.755,4.239,3.458,8.539,5.706,12.521c2.845,5.035,6.12,9.832,9.341,14.646c3.793,5.668,7.395,11.513,11.694,16.783
	c3.859,4.727,8.526,8.804,12.902,13.097c0.733,0.718,1.801,1.09,3.269,1.948c-0.275-1.222-0.257-1.788-0.513-2.173
	C212.144,500.612,209.317,496.093,206.163,491.817z"/>
<path fill="#777777" d="M219.68,256.044c1.233,1.9,3.17,1.497,4.125-0.086c1.173-1.953,2.122-4.26,2.345-6.494
	c0.222-2.241,0.9-3.958,2.677-5.079c1.446-0.916,3.108-1.554,4.746-2.093c4.72-1.555,8.418-4.341,10.835-9.075
	c-1.089,0.361-2.184,0.705-3.267,1.09c-1.894,0.667-3.736,1.567-5.684,1.99c-3.243,0.705-6.562,1.057-9.827,1.66
	c-3.124,0.581-5.966-1.625-9.345-0.376c-2.787,1.033-6.081,0.689-9.667,1c0.794,0.566,1.101,0.89,1.471,1.026
	c4.231,1.543,6.3,4.711,7.555,8.931C216.437,251.208,218.134,253.658,219.68,256.044z"/>
<path fill="#777777" d="M286.922,241.539c0.922,3.522,2.241,7.018,2.565,10.598c0.667,7.311,0.502,14.701,1.226,22.003
	c0.502,5.079,1.035,10.367,4.927,14.558c0.658-0.2,1.378-0.418,2.494-0.757c-0.658-2.419-1.343-4.478-1.757-6.595
	c-0.57-2.902-1.417-5.869-1.283-8.769c0.233-5.173,1.001-10.329,1.748-15.465c0.806-5.548-0.867-10.428-3.773-14.952
	c-1.642-2.554-4.456-3.474-7.1-2.748C286.302,240.132,286.731,240.804,286.922,241.539z"/>
<path fill="#777777" d="M231.169,280.986c-0.181-0.291-0.361-0.583-0.542-0.872c-1.631,0.498-3.271,0.964-4.887,1.501
	c-2.541,0.846-4.548-0.22-6.039-2.045c-0.599-0.735-0.792-2.364-0.405-3.256c2.53-5.832,1.429-11.421-0.938-17.856
	c-3.137,7.203-2.254,15.009-7.333,20.709c-4.823,5.416-10.574,9.473-17.312,12.222c7.326,0.493,13.479-3.256,20.174-4.852
	c2.767-0.66,5.794-1.468,8.458-0.951c2.25,0.434,3.388-0.156,4.799-1.4C228.428,283.056,229.824,282.047,231.169,280.986z"/>
<path fill="#777777" d="M302.233,251.289c0.231,5.968,0.101,11.956,0.537,17.906c0.427,5.836,1.118,11.683,2.195,17.429
	c0.498,2.64,2.197,5.055,3.513,7.936c0.562-0.834,0.738-0.973,0.733-1.111c-0.018-0.427-0.063-0.865-0.165-1.284
	c-2.259-9.352-2.847-18.835-3.016-28.44c-0.082-4.693,2.045-9.347,0.038-14.089c-1.601-3.775-2.525-7.851-4.258-11.553
	c-0.922-1.972-2.923-3.441-4.438-5.138c-0.352,0.267-0.705,0.533-1.057,0.795c0.365,0.823,0.702,1.664,1.096,2.472
	C299.744,241.008,302.022,245.838,302.233,251.289z"/>
<path fill="#777777" d="M293.212,387.232c-5.737-2.21-31.251,1.422-39.371,6.027c-8.929,5.059-17.481,10.811-23.606,19.289
	c0.209,0.265,0.418,0.528,0.632,0.791c1.16-0.823,2.604-1.427,3.439-2.506c6.582-8.515,15.654-13.248,25.603-16.178
	c7.938-2.338,16.185-3.632,24.291-5.4C287.055,388.634,289.905,387.976,293.212,387.232z"/>
<path fill="#777777" d="M176.001,269.268c-1.057-0.191-2.928,0.119-3.249,0.779c-0.504,1.039-0.467,2.862,0.161,3.817
	c1.501,2.281,3.43,4.292,5.299,6.309c0.451,0.489,1.358,0.797,2.021,0.749c0.352-0.026,0.715-0.978,0.914-1.567
	c0.193-0.568,0.183-1.204,0.262-1.812C181.487,275.917,177.59,269.557,176.001,269.268z"/>
<path fill="#777777" d="M252.23,78.406c1.281-1.475,2.104-3.606,3.672-4.515c3.019-1.748,7.593-0.471,10.043,2.093
	c0.432,0.454,1.211,0.898,1.746,0.817c0.368-0.057,0.767-1.015,0.843-1.607c0.156-1.185-0.381-3.021,0.216-3.48
	c2.268-1.748,2.292-4.216,2.8-6.567c0.689-3.19-0.786-4.747-3.962-3.74c-1.629,0.513-3.778,1.653-4.282,3.029
	c-1.471,3.991-4.788,4.156-8.002,5.074c-1.931,0.55-5.099,0.216-5.229,3.018c-0.205,4.418-2.703,6.684-6.049,8.812
	c-2.028,1.292-3.657,3.218-5.464,4.86c0.209,0.284,0.418,0.57,0.625,0.854c0.592-0.209,1.224-0.339,1.766-0.639
	c2.523-1.38,5.118-2.664,7.498-4.266C249.895,81.173,251.065,79.745,252.23,78.406z"/>
<path fill="#777777" d="M277.13,110.968l0.092-0.073c-0.031,0-0.053-0.004-0.081-0.004
	C277.139,110.915,277.133,110.941,277.13,110.968z"/>
<path fill="#777777" d="M277.452,106.596c-1.131-4.487,0.353-8.044,3.327-11.236c3.437,2.012,4.297,1.838,6.395-1.131
	c1.242,0.308,2.404,0.59,3.564,0.872c0-1.147,0-2.292,0-3.692c0.401-0.249,1.169-0.733,2.774-1.744
	c-2.338-1.153-3.971-2.448-5.763-2.736c-3.43-0.55-6.955-0.528-10.439-0.744c-1.854-0.114-2.697,0.683-2.723,2.616
	c-0.082,6.199-0.218,12.403-0.449,18.595c-0.086,2.266,0.689,3.487,3.005,3.494C277.285,109.449,277.784,107.917,277.452,106.596z"
	/>
<path fill="#777777" d="M258.445,96.051c1.429,0.057,2.921-1.469,4.658-2.453c0.235,1.02,0.528,2.276,0.83,3.584
	c3.644-1.821,3.967-5.224,3.919-8.54c-0.011-0.79-1.766-1.997-2.884-2.241c-2.73-0.588-5.552-0.784-8.346-1.026
	c-5.079-0.438-8.363-0.137-10.82,3.806c3.969,0.147,8.082-1.986,12.359,0.617c-3.806,2.071-8.599,0.11-11.17,5.023
	c2.932-0.753,5.261-1.354,6.93-1.781C255.722,94.318,257.049,95.993,258.445,96.051z"/>
<path fill="#777777" d="M273.036,118.371c-0.392,0.277-1.182-0.024-1.788-0.04c-3.053-0.079-5.961,0.238-8.185,2.813
	c3.835,0.28,7.478,0.546,11.124,0.812c0.042,0.363,0.082,0.727,0.125,1.09c-1.922,0.905-3.844,1.81-5.768,2.716
	c0.11,0.333,0.222,0.669,0.33,1c3.066,0.832,6.19,0.905,9.132-0.427c2.859-1.297,3.13-4.63,0.75-6.662
	C277.086,118.248,275.486,116.643,273.036,118.371z"/>
<path fill="#777777" d="M283.477,72.26c-0.062-0.553,0.095-1.323-0.218-1.658c-2.041-2.188-4.031-4.473-6.358-6.325
	c-1.134-0.9-2.287-0.156-2.252,1.638C274.727,69.862,278.863,72.969,283.477,72.26z"/>
<path fill="#777777" d="M270.258,112.042c-1.85-1.147-3.454-1.127-5.46,0.288c2.056,0.588,3.844,0.92,5.484,1.603
	c4.35,1.808,4.956,1.75,8.326-1.668c-0.493-0.436-0.978-0.858-1.464-1.286C274.916,113.545,273.234,113.882,270.258,112.042z"/>
<path fill="#777777" d="M277.133,110.968c0.004,0.002,0.009,0.006,0.011,0.011c0.026-0.031,0.051-0.053,0.079-0.083L277.133,110.968
	z"/>
</svg>
