<?xml version="1.0" encoding="utf-8"?>
<!-- Generator: Adobe Illustrator 17.1.0, SVG Export Plug-In . SVG Version: 6.00 Build 0)  -->
<!DOCTYPE svg PUBLIC "-//W3C//DTD SVG 1.1//EN" "http://www.w3.org/Graphics/SVG/1.1/DTD/svg11.dtd">
<svg version="1.1" id="Layer_1" xmlns="http://www.w3.org/2000/svg" xmlns:xlink="http://www.w3.org/1999/xlink" x="0px" y="0px"
	 width="1728px" height="2592px" viewBox="0 0 1728 2592" enable-background="new 0 0 1728 2592" xml:space="preserve">
<path opacity="0.1" fill="#FFFFFF" d="M1636.7,683.5c-6.8-0.8-13.6-2.2-20.3-3.8c-1.5-0.4-3.4-2.2-3.9-3.8
	c-5.2-18.2-10.7-36.2-14.8-54.6c-2.9-12.8-3.4-26.1-5.4-39.1c-4.8-30.9-9.9-61.7-14.8-92.6c-3.9-24.9-7.2-49.9-11.5-74.7
	c-2-11.3-5.6-22.2-8.5-33.3c-0.8-3-1.7-5.9-2.6-9.1c14.2-5.9,27.7-11.4,41-17.2c10.4-4.5,14.6-21,9.1-34.2
	c-4.2-10.1-19.4-16.1-30.1-11.6c-12.9,5.4-25.4,12.1-38.6,16.7c-8.8,3-18.4,4.2-27.8,4.5c-40.1,1.5-79.5-3.8-118.3-14.1
	c-5.4-1.4-8.9-3.6-8.8-9.6c0.5-21.5-1-43.3,2.2-64.3c3.2-20.9,13-40.1,25.5-57.7c10.4-14.7,21.1-29.5,29.1-45.5
	c4.6-9.2,4-21,5.6-31.7c0.9-6.1,1-12.4,2.7-18.3c2.1-7.5,3-14.2-1.1-21.5c-2-3.6-2.3-8.9-1.5-13.1c2.1-10.4-3-22.7-13.1-26.4
	c-6.7-2.4-10.6-6.4-14.2-12.5c-4.8-8-12.3-13.4-22.3-14.2c-1.9-0.2-3.7-1.2-5.6-1.8c-0.6,0-1.2,0-1.7,0c-1.8,2.1-4.8,6.4-5.3,6.1
	c-6.4-3.6-9.8,1.5-13.5,4.5c-8.3,6.7-16.1,13.9-24.2,20.9c-4.5,4-10.2,7.2-13.3,12.1c-8.9,14.1-16.8,28.8-24.8,43.4
	c-8.1,14.8-11.9,31.1-11.4,47.8c0.5,17.2,4,34.3,4.3,51.5c0.2,12.4,0.1,26.2-4.8,37.2c-15.2,34.4-27.6,70.1-49.2,101.6
	c-6.5,9.4-13.2,16.3-24.1,18.4c-2.9,0.5-6.8-0.8-9.3-2.6c-6.5-4.7-11.9-11.1-18.8-15c-15.6-9.1-31.2-18.6-50.3-6.3
	c-15,9.6-18.6,23-7.4,36.6c4.4,5.3,8.8,11,14.3,14.8c14.1,9.9,14.6,30.1,9.2,41.7c-4.5,9.9-8.2,11.3-17.9,6
	c-2.8-1.5-6.1-2.2-8.5-4.2c-9.5-8-18.2-5.1-27.3,0.9c-8.3,5.5-16.8,11-25.8,15.3c-8.4,4.1-14,11-14.2,20.5c0,2.9-0.7,5.7-0.9,7.6
	c-10.1-1.3-18.9-3.5-27.7-3.3c-25,0.7-49.9,2.8-74.9,3.4c-14.1,0.4-27.8,0-41.4,5.3c-21.3,8.3-42.6,16.8-58.4,33.8
	c-6.8,7.3-12.9,8.2-21.1,4.3c-3.1-1.5-6.2-3-9.3-4.5c-13.5-6.8-16-20.1-15-32.3c0.8-9.1,6.3-18.6,16.3-23.6
	c16.5-8.3,29.1-19.9,30.5-40.1c0.3-4.2,2.6-8.5,2.4-12.6c-0.6-12.6,6.2-19.7,16.9-24c5.1-2.1,6.7-5.4,6.3-10.7
	c-0.8-12.4,0.1-24.5,6.3-36c2.3-4.2,2.5-10.2,1.8-15.1c-2.2-15.5-5-30.9-8-46.3c-1.5-7.8-2.3-16.3-6-23c-5.6-10.2-7.3-20.5-5.9-31.6
	c1.3-9.7-0.9-18.3-6.4-26c-7.8-11-15.6-22.1-23.9-32.7c-5.1-6.5-10.4-13.1-16.9-18c-9-6.8-19-12.5-29.1-17.7
	c-13.3-6.8-27-12.9-42.6-8.8c-8.3,2.2-16.2,5.2-24.2-1.2c-1.5-1.2-5.1-0.5-7.5,0.2c-7.6,2.4-15,6.2-22.8,7.6
	c-23.9,4.3-39.1,19.9-52.1,38.5c-4.2,6.1-8.2,10.7-16.7,9c-2.6-0.5-7.7,1.3-8.5,3.4c-2.8,6.8-5.3,14-5.9,21.3
	c-1,11-0.2,22.2-0.5,33.3c-0.1,2.8-0.6,6.2-2.4,8.1c-6.5,6.9-8.6,18.9-21.5,18.7c-1.3,0-3.4,2.3-3.8,3.9
	c-3.2,12.5-7.8,24.9-8.6,37.6c-0.5,8.8-2.9,14.4-9.1,19.9c-9,7.9-10.4,19.1-5.7,29.9c2.3,5.4,4.3,11.4,4.6,17.2
	c0.8,19.2,8.2,34.2,24.9,44.4c8.7,5.3,15,12.3,17.9,23.1c5.1,18.6,17.6,30.4,37.1,34.1c2.6,0.5,6.6,2.9,6.9,5
	c2.1,13.3,3.4,26.7,4.7,40.1c0.2,1.7-1.1,4.1-2.4,5.2c-14.9,12.3-28.4,28.5-51.4,21.3c-1.9-0.6-4-0.5-6-0.8
	c-15-2.4-28.7-2.4-36.7,14.1c-1.4,2.9-7.2,5.5-10.9,5.3c-11.4-0.6-18.8,5.7-26.6,12.3c-16.7,14.2-26,33.7-36.8,51.9
	c-17.9,30.2-28.2,62.7-23.4,98.8c1,7.7,0,16.4-2.8,23.6c-9.5,24.1-20.4,47.5-30.3,71.4c-5.7,13.8-10.1,28.1-15.8,41.8
	c-9.5,22.8-24.7,41.8-40.3,60.8c-33.4,40.8-45.2,91.3-58.1,140.5c-6.2,23.6-5.2,49-7.5,73.5c-3.5,37.9-9.5,75.1-26.7,109.8
	c-3.8,7.7-8.6,16-8.9,24.1c-1,28.7-1.2,57.5,0.5,86.1c0.9,14.8,6.6,29.2,10.3,44.7c-3.2-1.3-7.1-2.7-10.8-4.5
	c-12.4-6.1-24.3-8.4-35.9,1.9c-10.5,9.3-21.7,17.9-32.2,27.2c-9.6,8.5-5.6,27.6,6.4,30.7c5.4,1.4,11.3,1,17,1
	c13.2-0.1,26-6,39.7,0.7c13.8,6.9,28.5,12,43.1,16.8c8.2,2.7,10.7,6.5,7,14.2c-0.6,1.3-1,2.7-1.5,4
	c-28.8,79.4-57.5,158.7-86.5,238.1c-26.2,71.8-52.6,143.5-78.8,215.3c-12.9,35.3-25.6,70.6-38.1,106
	c-12.5,35.5-24.3,71.1-36.9,106.6c-3,8.5-8,16.3-12.1,24.5c0,2.9,0,5.8,0,8.6c3.1,11.6,6.2,23.1,9.2,34.7c2,7.9,3.8,15.8,6,25.1
	c21.3-14.1,40.8-27.4,60.7-39.9c7.1-4.4,11.4-9.9,14-17.6c4.1-12.5,8.7-24.9,13-37.4c16.3-46.6,32.3-93.3,48.8-139.8
	c24.3-68.4,49.3-136.6,73.4-205.1c15.3-43.6,29.6-87.6,44.4-131.3c3.1-9,6.5-17.9,10.5-28.6c2,3.8,3,5.5,3.8,7.3
	c5.2,12.8,10.3,25.5,15.4,38.3c13,32.3,33.1,61.6,39.2,97c2.6,14.9,11.3,27.2,29.1,28.3c8.1,0.5,11.3,5.3,10,12.8
	c-2.7,15.1-3.4,29.9-2,45.3c1.9,20.1-10.8,35-22.9,49.4c-11.5,13.6-24.4,26-34.9,40.3c-10.1,13.7-14.7,30-10.7,47.1
	c2.5,10.8,7.8,20.8,11,31.5c4.1,13.7,7.5,27.6,11,41.4c0.4,1.6,0.4,3.6-0.1,5.2c-5.4,17.5-10.4,35-23.7,48.7
	c-5.5,5.7-10.3,12.3-14.5,19c-5.7,9.2-10.4,19.1-15.9,28.4c-7.4,12.4-5.5,27.4,2.8,39.5c8.3,12,20.5,22,21.8,38.1
	c0.1,1.9,1.4,3.7,2.1,5.6c6.2,16.5,28.7,15.4,39.4,6c3.7-3.2,8-6.4,12.5-7.8c7.9-2.5,16.1-4,24.3-5c2.5-0.3,6.9,2,7.7,4.1
	c6.3,17.5,21.2,24,36.7,29.6c2.7,1,6.3,0.8,9.2,0.1c17-4.1,33.8-8.7,50.8-12.7c3.2-0.8,7.9-0.7,10.2,1.1c17,14.1,37.3,21.4,57.5,29
	c19.5,7.4,40,13.2,53.9,30.4c13,16.1,29.4,22.8,50,19c0.4-0.1,1,0.4,2,0.9c0.7,3.4,1.7,7,2,10.6c2.4,23.8-3.9,45.8-15.2,66.2
	c-16.8,30.2-25.8,61.7-19.3,96.5c2.1,11.3,6.2,21.6,16.8,27.8c8.5,5,16.9,9.7,23.2,18.3c3.4,4.6,11.1,7.9,17.1,8.3
	c10.1,0.7,17.6,4.3,23.5,12c0.9,1.1,1.7,2.5,2.9,3c16,7.4,30.7-0.4,39.2-12.3c12.3-17.2,20.6-36.4,23.7-57.5c2.8-19.3,7-38.6,3-58.2
	c-4.3-20.9-8.8-41.8-13.4-62.6c-2.9-13-2.3-25.5,2.9-37.8c0.9-2,0.6-4.6,0.6-7c-0.1-4.7-0.7-9.3-0.4-13.9c0.2-2.1,2.6-3.9,3-6
	c3.3-14.9,10.4-20.9,25.3-20.9c16.6,0,41.3-16.7,47.7-32.1c6.4-15.2,13-30.3,19.8-45.9c3.2,4.6,6.6,10.2,10.8,15.1
	c7.8,9.1,16.4,17.5,24.2,26.7c7,8.2,11.3,17.6,11.6,29c0.5,18.6,1.5,37.2,16.2,51.9c8.9,8.9,17,18.7,24.8,28.6
	c9.8,12.2,20.8,22.8,35.1,29.6c12.2,5.9,21.4,0.9,23.1-13.1c0.3-2.5,0-5,0-7.5c0.6,0.6,1.2,1.3,1.8,1.9c7-3.9,15.3-6.4,20.5-11.9
	c6.1-6.5,10.9-15.1,13.6-23.6c3.5-11.1,3.7-23.2,6.5-34.5c2.7-10.9-1.1-19.8-6.6-28.3c-2.9-4.6-7.3-8.2-10.3-12.7
	c-4.6-6.8-8.5-14.1-12.8-21.1c-5-7.9-9-16.8-15.5-23.3c-10-10-20.7-18.9-28.1-31.5c-6.6-11.3-16.1-20.9-24.1-31.4
	c-5.6-7.4-8.9-15-3-24.4c2.7-4.2,3.8-9.6,4.7-14.7c4.7-26.7,10.4-53.3,13.2-80.2c2.1-20.2,1.9-40.9,0.1-61.1
	c-2.6-29.3-8.6-58.3-11.4-87.6c-2.4-25.1-2.4-50.5-3.4-75.8c-0.1-2.4,1.1-5,1.9-7.4c7.4-22.6,12.7-45-1.9-67
	c-1.2-1.8-1.4-4.3-2.1-6.4c0.6-0.5,1.3-0.9,1.9-1.4c8.1,4.8,16.7,9,24.2,14.5c15.6,11.4,30.7,10.2,46.7,0.8c6.5-3.8,14-5.9,20.9-9.1
	c3.6-1.7,6.6-4.4,10.1-6.2c8.7-4.5,17.6-8.7,26.5-13.1c3,1.8,6.8,5.8,11.1,6.5c18.8,2.7,36.4,1,49.4-15.9
	c9-11.7,17.1-23.4,19.6-38.6c1.6-10,6-19.5,8.7-29.4c2.2-8,6.6-16.7,5.1-24.1c-5.7-28.1-3.4-58.5-22.2-83.1c-0.7-0.9-1-2.1-1.2-3.2
	c-4.7-22.9-14.6-43.8-27.5-62.9c-10.2-15.1-17.3-32.5-33.7-43.1c-20-12.9-39.3-26.9-58.7-40.8c-21.7-15.5-32.7-35.5-25.5-63
	c3.5-13.3,5.8-26.9,8.5-40.4c2-10,5.2-20.1,4.9-30c-0.8-27.9-16.6-49.2-33.6-69.8c-5.4-6.5-9.6-14-14-21.3
	c-2.3-3.9-3.6-8.4-5.7-12.5c-9.8-18.4-15.3-38.2-14.9-58.7c0.4-26.9,1.8-54,5.2-80.7c4.6-36.2,16.6-70.2,37.5-100.7
	c9.7-14.2,20.5-28.5,26-44.5c10.4-30.3,17.8-61.7,25.3-92.9c1.3-5.4-1.2-14.8-5.2-17.9c-8.6-6.5-7-16.1-13.4-24.9
	c4.1,1,5.6,1.3,7.2,1.7c15.8,4.8,31.5,10.6,47.6,14c11.5,2.5,24,3.7,35.6,2.1c28.7-3.8,55.8-13.4,81.3-27.2
	c19.3-10.4,35-24.6,45.4-45.8c-6.7-3.4-12.7-8.3-19.3-9.4c-9.6-1.6-12.1-7.5-14.3-15.3c-7.9-27-16.3-53.8-24.2-80.7
	c-0.8-2.8,0-6.6,1.2-9.5c6.7-16.1,20.9-25.8,32.9-37.2c14-13.3,27.5-26.7,34.9-45.1c9.4-23.4,18.6-46.8,28.5-69.9
	c6.4-14.7,8.8-30.1,10.5-45.8c0.3-2.5,3.8-5.3,6.5-6.8c9.7-5.3,19.5-10.4,29.6-15c4.4-2,9.6-4.4,13.9-3.5c10.4,2,20.5,5.5,30.6,8.9
	c23.9,8.1,48.4,12,73.6,12.9c4.1,0.1,8.1,1.2,12.1,1.9c-12.6,40.4-24.8,79.5-37.1,118.5c-9.4,29.8-19.2,59.5-28.5,89.4
	c-7.5,24.1-15.7,48.1-21.6,72.6c-4.8,19.9-9.2,37.8-33.2,42.9c-13.7,2.9-12.4,10.4-4.6,20.1c5,6.2,11.3,11.6,17.9,16.1
	c29.3,19.9,61.8,30.6,97.1,35.3c31,4.1,58.8-3.6,85.6-16.8c9.6-4.7,18.7-11.8,25.7-19.8c10.4-11.7,18.7-25.3,27.9-38
	c0-0.6,0-1.2,0-1.7C1654,686.5,1645.7,684.6,1636.7,683.5z M1387.1,182.8c-1.2-0.2-2.4-0.3-3.7-0.5c1.4-13.4,2.9-26.9,4.3-40.3
	c0.6-0.5,1.1-0.9,1.7-1.4c1.7,3.1,5.1,6.5,4.7,9.3C1392.4,161,1389.5,171.9,1387.1,182.8z M1378.9,48.7c10-5,20.2-10.3,30.8-13.4
	c3.4-1,11.5,4.2,12.4,7.8c1.4,5.8-4.1,9.9-10.5,11.1c-9.2,1.8-18.4,3.8-28.7,6c-2.1-1.3-5.7-2.2-6.7-4.4
	C1375.5,54.2,1377.2,49.6,1378.9,48.7z M1159.9,334.4c13-3.6,36.3,7.2,39.3,18.7c1,3.8-1.3,9.2-3.7,12.7c-0.8,1.1-7.3-0.9-10.6-2.5
	c-9.6-4.6-18.6-10.1-22.2-21.2C1161.9,339.6,1160.9,337.1,1159.9,334.4z M1225.2,559.9c-6.9,3.1-13.7,5.5-19.8,9.3
	c-6,3.7-11,8.7-16.5,13.2c-0.9-0.4-1.8-0.8-2.8-1.2c1.1-52.6,2.2-105.2,3.3-157.8c1,0.1,2.1,0.1,3.1,0.2
	C1203.5,469.1,1214.4,514.7,1225.2,559.9z M1172.8,462.6c0.7,0.2,1.4,0.5,2.2,0.7c0,13.4,0.3,26.7-0.1,40.1
	c-0.6,18.9-1.7,37.8-2.6,56.7c-0.9,20.3-1.6,40.6-2.5,60.9c-0.7,16.3-1.3,32.6-2.6,48.8c-0.3,3.2-3,8.4-5.4,8.9
	c-11,2.6-22.3,3.9-34.5,5.8c2.7-7.9,5-15.3,13.7-17.6c8.6-2.3,13.6-6.7,14.5-16.5c1.1-12.8,4.1-25.3,6.1-38c0.4-2.5,0.1-5,0.1-10
	c-9.9,4.7-18.3,8.7-29,13.7C1144.2,563.3,1154.2,511.9,1172.8,462.6z M899.9,501.3c-8.5,14.7-30.4,33.1-44.3,37.8
	C859.8,529.1,885.6,506.8,899.9,501.3z M851.6,564c-8,5.5-14.8,10.2-21.5,14.9C836.3,563.2,839.1,561.2,851.6,564z M869.6,312
	c-4.3-10.4-8.1-19.4-11.8-28.5c0.4-0.7,0.8-1.3,1.3-2c2.8,1.4,6.7,2,8.2,4.3C872.3,293.1,878.4,300.9,869.6,312z M815.3,156
	c0.2,2,0.3,4,0.1,6c-0.9,7.1,0.8,12.6,7.6,16.7c2,1.2,1.9,5.9,2.8,9c-3.6,0.1-8.8,1.6-10.5-0.1c-4.3-4.3-7.9-9.9-10.1-15.6
	c-4.3-11.3-7.6-23.1-11.4-35C805.1,136.4,814,144.8,815.3,156z M652.7,168.9c4.4-1.3,8.5-4.3,12.2-7.1c12-9.3,23.6-19,35.7-28.3
	c4.3-3.3,7.4-2.1,11.3,2.5c4.3,5.1,11,8.3,16.6,12.4c2.1,1.5,4.1,3.1,6.4,4.2c2.2,1.1,4.6,1.8,7,2.7c0.6-0.9,1.3-1.7,2-2.6
	c-2.8-3.2-5.3-6.5-8.3-9.4c-1.4-1.3-3.7-1.5-5.4-2.5c-5-2.9-12.1-7-8.9-12.5c2.2-3.7,10.8-5.2,16.5-5.1c7.8,0.2,15.6,2.4,23.2,4.5
	c2.7,0.7,6.2,2.9,7.1,5.2c2.9,7.4,5.2,15.2,7,23c1.7,7.8-3.1,11.9-11,9.7c-6.4-1.8-12.5-4.3-19-5.6c-31.1-6.5-54.7,7.2-75,28.8
	c-4.7,5.1-8,7.5-15.2,3.9c-3.6-1.8-9.4,0.8-14.9,1.4C634,179.7,637,173.6,652.7,168.9z M621.6,544.6c0.7-2.3,3.6-4.2,5.8-5.8
	c15.1-11.1,30.5-22,45.5-33.3c1.7-1.3,2.9-4.6,2.7-6.9c-0.9-13.7-1.9-27.4-3.6-41c-2.4-19.3-5.3-38.5-8.3-57.6
	c-1.6-10.3-3.2-20.2-10.1-29.5c-9.2-12.2-13.2-26.8-9.5-43c1.9-8.1,1.2-16.7,1.7-25.1c-0.7-0.2-1.4-0.3-2.1-0.5c-1.4,3-2.7,6-4.1,9
	c-1-0.1-2.1-0.2-3.1-0.4c0.3-5.3,0.5-10.7,0.9-17.9c-2.4-2.3-4.7-1.1-8.5,2.8c-5,5-5.5,16.1-18,12.5c4.2,17.2-0.7,31.2-10.3,45.3
	c-2-3-4-5.5-5.5-8.3c-2.5-4.5-4.3-9.5-7-13.8c-7.2-11.3-7.6-14.2,0.4-24.5c1.5-1.9,5.9-1.6,11-2.8c-0.5-7-1-16.5-2.1-25.9
	c-1.2-9.7,2.1-15.1,10.7-19.2c3.7-1.7,7-5.3,9.2-8.8c7-11.6,14.1-21.8,27.5-28.3c10-4.9,17.6-15.2,25.4-23.9
	c19.7-22,43.6-33.6,72.9-26.2c13.9,3.5,30.4,5.4,38.4,21.2c0.6,1.2,4.6,1.6,6.6,1c14-4.6,14-4.7,21.4,7.8c0.7,1.2,1.3,2.9,2.4,3.5
	c9.2,4.4,18.6,8.4,27.8,12.8c3.3,1.6,7.3,3.2,9.1,6c4.5,7,8,14.7,11.9,22.1c-0.7,0.7-1.4,1.4-2.1,2.1c-3.6-1.4-7.5-2.2-10.6-4.3
	c-5.5-3.8-8.3-2.8-9,6c-3.3-3.9-5.4-6.3-7.5-8.7c-4.4-5.1-8.9-10-16.5-8.7c-12.9,2.2-23.1,9-31.6,18.4c0.3,1,0.7,2,1,3.1
	c4.8-1.3,9.5-2.8,14.2-4c7.1-1.8,14.1-3.8,21.3-4.7c1.8-0.2,5.1,3.5,5.9,6c6.3,20,11,40.3,9,61.6c-1,10.6-1,21.2-2.1,31.8
	c-0.7,6.2-2.2,12.5-4.5,18.2c-4.6,11.1-9.9,22-15.3,32.8c-13.8,27.8-34.4,48.4-64,59.2c-10.5,3.8-20,3.1-29.3-3.5
	c-12.5-9-25.3-17.6-40.1-25.9c1.2,2.9,1.7,6.5,3.8,8.6c7.9,7.9,16.6,15,24.5,22.9c9.1,9.1,17.6,18.7,26.5,28
	c5.7,6,11.6,11.7,17.2,17.8c4.4,4.8,9,9.6,12.8,14.9c8.3,12,12.4,13.4,26,9.1c16.6-5.3,33.5-9.9,52.2-10.4c-0.9,2.5-1,3.3-1.4,4
	c-10.8,17.6-21.8,35.1-32.3,52.8c-2.3,3.9-4.3,4.5-8.7,4.3c-20-0.9-40.1-2.8-59.9-0.8c-24.3,2.5-48.4,8.1-72.4,13
	c-14.8,3-29.4,7.1-44,11c-11.5,3.1-17.2-1.4-14.3-13.2C612.6,573,617.1,558.8,621.6,544.6z M605.9,538c1,0.2,2,0.4,3,0.7
	c-0.8,5.2-0.9,10.6-2.5,15.6c-2.9,8.7-8,16.7-9.8,25.5c-1.9,9.2-0.6,19.1-1.3,28.6c-0.2,2.9-2.1,5.7-3.2,8.6c-2.7-2-7.6-3.9-7.6-5.9
	c-0.2-10.8,0-21.7,1.6-32.3C588.4,563.3,596,550,605.9,538z M356,1548.4c-3.8,13.5-7.8,27-12,40.4c-10.3,33.1-20.5,66.3-31.3,99.2
	c-14.7,44.7-29.4,89.5-45,133.9c-16.9,48.2-34.9,96.1-52.4,144.2c-18,49.6-36,99.3-54,148.9c-7.2,19.7-14.6,39.3-21.9,58.9
	c-0.3,0.8-0.4,1.9-1,2.3c-13.6,11.4-27.3,22.8-41,34.1c-0.7,0.6-2.1,0.5-3.2,0.7c-3.9-16.7-8.3-33-11.3-49.6
	c-0.9-5.2,1.2-11.3,3.1-16.5c16.1-43.9,32.4-87.7,48.7-131.5c14-37.7,28-75.3,41.7-113.1c23.7-65.9,47.2-131.8,70.6-197.7
	c21-59,41.9-117.9,62.8-176.9c7.4-20.8,14.6-41.7,22-62.5c0.6-1.7,1.8-3.3,2.5-4.7c4.9,2.8,9.1,5.8,13.7,7.7c8.1,3.3,11,9,8.8,17.1
	c-4.9,17.5-0.8,34.7,1.1,52.1C358.3,1539.6,357.1,1544.2,356,1548.4z M357,1454.8c-2.8-1-5.1-1.8-7.4-2.8
	c-25.2-10.7-50.4-21.3-75.5-32.3c-11.6-5.1-22.8-4.4-34.2,0.4c-3.9,1.6-8.1,3-12.3,3.2c-2.7,0.2-7-1.2-7.9-3.1
	c-1-2.2,0.2-6.7,2.1-8.5c8.6-8.1,17.3-16.1,26.8-22.8c3-2.1,8.9-0.9,13.3-0.1c4.4,0.8,8.5,3,12.8,4.7c7.4,2.9,15,5.5,22.3,8.7
	c14.7,6.5,29.3,13.2,43.8,20.2c7.9,3.8,15.6,8.3,24.1,12.9C362,1442.5,359.6,1448.3,357,1454.8z M822.1,2475.7
	c-3.9,22.2-8.2,44.4-13.6,66.3c-1.9,7.8-7.3,14.9-11.9,21.8c-3.3,4.8-8.1,8.3-14.8,5c-5.8-2.9-7.5-7.1-5.8-13.4
	c4.1-14.8,7.8-29.7,11.7-44.5c-0.7-0.7-1.4-1.3-2.2-2c-1.8,2.2-4.2,4.2-5.1,6.7c-5.1,12.8-9.7,25.8-14.6,38.7
	c-3.8,9.9-8.1,12.9-14.6,10.2c-6.3-2.6-8.4-11.1-4.8-18.8c5.6-12.2,8.3-25,8-38.4c0-0.7-0.9-1.3-2.8-3.7c-2,5.1-3.6,9-5.1,12.9
	c-2.9,7.7-5.3,15.7-9,23.1c-2.3,4.8-6.5,8.2-12.7,4.3c-5.6-3.6-6.3-7.4-3.8-13.8c3.5-8.9,5.4-18.5,7.6-27.9c0.3-1.3-1.8-3.2-2.8-4.9
	c-1.8,1.2-4.6,2-5.2,3.6c-2,5.8-3.2,11.8-4.7,17.7c-1.2,0-2.3-0.1-3.5-0.1c-1.2-9-2.5-18-3.8-26.9c-1.9-13.4,4.9-24.3,9.6-35.9
	c3.4-8.5,6.4-17.2,9.6-25.7c1.4-3.8,2-8.2,4.4-11.1c8.4-10.3,9-22.7,11.1-34.8c0.5-2.7,1-6.4,2.9-7.5c9.4-5.8,19.1-11.1,29.1-16
	c4.6-2.2,7.4,0.5,8.5,5.4c4.6,18.9,8.5,38,14.3,56.5c3.1,9.9,7.4,20.8,14.7,27.5C821.3,2457.7,823.8,2465.8,822.1,2475.7z
	 M928.4,2174.1c-5.7,1.5-11.9,5.2-16.9,4c-25.7-6.2-46.5-19.3-57.2-44.9c-0.7-1.8-1.2-3.7-1.8-5.5c0.5-0.7,1-1.4,1.5-2.1
	c3.2,2,7,3.4,9.6,5.9c16.9,16.6,33.4,33.5,58.7,36.6c1.3,0.2,2.6,1.1,3.9,1.8c0.8,0.4,1.5,0.7,2.3,1.1
	C928.5,2172.1,928.4,2173.1,928.4,2174.1z M897.8,2114.3c-17.8-6-34.8-14.7-51.9-22.6c-2.8-1.3-5.7-4.3-6.8-7.2
	c-8.6-24.2-13.6-49.1-14.5-74.7c-0.6-17.4-4-34.3-12.4-49.6c-2.7-4.9-7.9-9.6-13-11.9c-7.8-3.5-10.8-9.7-13.9-16.5
	c-7.5-16.8-14.8-33.6-22.8-50.2c-12.4-25.8-25.3-51.4-38.2-76.9c-8.8-17.4-20.3-33.8-26.5-52c-7.7-22.4-11.4-46.1-16.4-69.3
	c-5.2-24.4-10.8-48.8-14.6-73.4c-3.1-20.2-8.3-40.2-5.4-61.3c2.3-16.4,0.3-33.4,0.6-50.1c0.1-8.1,1.2-16.2,1.9-26.3
	c-16.3,39.7-20.5,79.1-17.7,119.1c1.1,16.6,5.9,33,9,49.5c4.5,23.7,9.6,47.3,13.3,71.1c2.6,17.3,2.8,34.9,5,52.3
	c3,23.6,10.3,46,22.7,66.4c12.5,20.6,23.9,42,38.5,60.9c10.8,14.1,13,28.7,13.1,45c0,2.4-0.6,4.8-1.1,7.6c-14-4.9-21-16.1-29.3-25.9
	c-2-2.4-3.7-5.7-6.2-7c-18.2-9.1-24.3-27.6-33-43.6c-11.5-21.1-21.1-43.2-31.4-64.9c-1.6-3.4-3.2-6.9-3.7-10.5
	c-2.1-15.1-7.9-28.8-16.2-41.4c-9.3-14-18.6-28.1-28.5-41.7c-3.1-4.3-8.2-7.2-13.2-11.5c6,24.4,10.9,46.8,17.2,68.9
	c2.8,9.8,7.6,19.3,12.9,27.9c7.4,12,15.4,23.5,17,38.1c0.2,2,1.1,3.9,2,5.7c10.4,20.7,20.6,41.4,31.3,61.8c2,3.9,6.6,6.3,8.9,10.1
	c2.5,4.1,5.2,9,5.3,13.6c0.3,18.2,12,26.3,26.8,31.8c2.2,0.8,5.3,1,7.4,0c8.4-3.9,12.2-0.7,15.2,7.4c11,29.2,31.7,51.8,51.8,74.7
	c6.3,7.1,13.2,13.7,19.3,21.5c-3.9-2-7.9-3.9-11.7-6c-13.6-7.5-27.4-14.6-40.5-22.8c-6.4-4-11.4-10.4-17.3-15.3
	c-8.8-7.3-17.3-15.3-27-21.3c-19.3-11.9-35.9-26.8-51.7-42.9c-11.1-11.3-22.6-22.2-33.9-33.2c-0.4-0.4-0.9-0.7-1.3-1.2
	c-12-15.6-24.2-31.2-36.1-47c-10.4-13.8-21.5-27.2-30.7-41.7c-17.6-27.6-34.3-55.9-51.1-84c-10.6-17.7-20.9-35.6-31.9-54.5
	c-2.7,10.7-2.3,18.1,4.4,26c17.2,20.5,24.6,46,37,68.9c12.2,22.4,23,45.6,34.1,68.6c5.1,10.6,8.7,22,14.3,32.3
	c5.4,10.1,12.8,19.1,18.7,28.9c2.2,3.7,2.5,8.4,3.9,12.6c0.9,2.7,1.6,5.6,3.3,7.7c13.9,17.2,26.8,35.3,42.3,51.1
	c12.5,12.7,27.6,23.1,42.3,33.3c14.6,10.1,30,19,45.5,27.8c7.2,4,15.5,5.9,23,9.5c18.4,8.8,36.7,17.9,54.7,27.3
	c2.4,1.2,4.2,5.1,4.7,8c1.6,9,2.5,18.1,4,29.3c-11.8,4.1-24.9,8.9-38.1,13.2c-13.1,4.2-26.5,7.5-39.3,12.1
	c-11.3,4.1-13.8,3.9-20.9-5.8c-16.6-22.7-33.4-45.3-50-67.9c-2.3-3.2-4.3-6.7-6.5-10.2c-5.3,0.6-8.3,2.1-6.4,8.8
	c1.7,5.9,1.5,12.4,2.3,18.7c1.6,12.1,6.8,22.1,16.4,30c3.7,3,7.1,6.9,9.3,11c5.3,9.9,9.9,20.1,14.4,30.3c1.4,3.3,2.5,7.3,2,10.7
	c-1,6.1,2,9.1,6.6,11.6c4.7,2.6,8,0.6,12.4-2c13-7.5,26.7-13.8,40.2-20.5c4.8-2.4,10-4.1,14.9-6.5c14.4-6.9,28.8-14,43.2-21
	c1.4-0.7,3.2-0.3,5.1-0.4c3,18.8,7.8,36.9,3.5,55.6c-0.4,1.6,1,4.5,2.4,5.6c21.7,16.7,46.1,21.1,72.5,15c4.3-1,8.4-2.6,15-4.6
	c-8.9,22.2-12.4,44.2-30.4,59.1c-6.1,5.1-13.2,9.8-19.9,5.8c-2.8-1.6-1.4-11.3-0.8-17.1c0.4-3.5,2.3-7.7,4.9-9.7
	c2-1.5,6.3,0.3,9.5,0c3.6-0.2,7.2-1.1,10.7-1.6c-3.5-14.6-12-16.8-24-8.3c-11.3,8-18.9,17.2-21.4,30.8c-0.3,2-3,4.7-5,5
	c-14.4,2.4-28.8,4.2-44,6.3c0-15.5-0.7-30.5,0.2-45.3c1-15.4,4-30.6,5.1-45.9c0.2-3-4-9.1-6.2-9.1c-27.8-0.3-54.9,3.2-79.3,17.8
	c-0.4,0.2-0.5,1-1.4,2.7c8.1,0,15.6,0,23.1,0c0.3,1.1,0.5,2.3,0.8,3.4c-13.5,4.4-27.1,8.7-40.6,13.1c0.2,1.2,0.4,2.4,0.6,3.6
	c9.1-0.8,18.3-0.8,27.2-2.6c16.8-3.3,33.1-1.5,49.4,1.9c4,19.8-1.3,26-21.5,38.3c-15.2,9.2-31.8,11.9-49.8,6.7
	c-17.9-5.1-36.1-10.1-56.5-5.1c5.2,2.9,10.3,6.3,15.7,8.6c8.4,3.6,17.6,5.6,25.6,9.8c21.7,11.3,43.6,9,65.8,2.2
	c1.8-0.6,3.7-1,5.9-1.6c3.9,17.8,6.5,35.6,19.4,49.3c-16.1,8.9-33.1,10.5-50.3,8c-18.1-2.6-28.1-17-38.8-29.7
	c-8.4-9.9-17.2-16.9-30.8-19.8c-29.7-6.5-50.8-23.6-62.4-53.3c-11.9-30.5-30.9-55.8-64.9-65.1c-13.7-3.7-24.9-11-32.4-22.8
	c-5.5-8.6-12.8-8.1-20.9-7c-8.7,1.1-17.5,1.8-26.1,3.5c-5,1-9.5,4.2-14.5,5.2c-5.4,1.2-11.3,2.3-16.5,1.3
	c-7.3-1.4-12.3,0.1-16.2,6.3c-3.6,5.8-0.7,9.8,2.5,14.7c8.4,13.1,19.7,23,31.7,32.6c7.1,5.6,13.8,6.3,21.5,2.9
	c8.1-3.6,16-8,24.3-10.9c4.7-1.7,10.7-2.7,15.3-1.3c14.1,4.1,35.3,29.3,28.2,46.7c-4,9.7-16.6,17.2-26.3,13.5
	c-2.7-1.1-4.7-4.3-7-6.5c2.4-1.7,4.6-3.7,7.2-5.1c1.5-0.8,3.6-0.7,6.8-1.3c-20.7-9.3-40.5-9.9-60.8-5c-8.3,2-16.8,3.1-25.3,4.2
	c-1.9,0.2-4.7-1.1-5.7-2.7c-0.9-1.3-0.3-4.2,0.5-5.8c2.4-4.5,5.3-8.7,8.3-13.6c-2.3-1.5-4.5-4-7-4.3c-13.7-1.8-21.3-12.1-29.1-21.4
	c-4.3-5.1-5.5-11.4-2.3-18.5c4.2-9.4,8.2-18.1,16-25.8c17.2-16.8,25.7-38.7,31.6-61.7c1.7-6.8,5-13.2,7-20c3.4-11.8,0.3-22.9-5.6-33
	c-8.6-14.8-14.5-30.3-17.6-47.2c-1.7-9.3,2-16.5,6.9-23.1c16.4-21.9,33.2-43.4,49.9-65c0.5-0.6,1.3-0.9,2-1.4
	c5.5,17.6-5.9,44.8-21.6,53.1c-6.3,3.3-12.3,7.2-18.1,11.4c-1.8,1.3-3.5,4.5-3.2,6.5c1.1,9.8,2.9,19.6,4.4,29.4
	c1.7,11.4,6.2,15.9,17.9,18.4c5.5,1.2,10.9,2.9,17.6,4.7c-3.1-3.5-6-6.1-8-9.2c-4.4-7-8.7-14-12.1-21.4c-2.6-5.8,0.1-10.6,5.5-13.7
	c1.5-0.9,3.1-1.5,4.7-2.2c10.4-4.7,18.4-11.3,20.9-23.3c1.2-5.7,4-11.2,6.1-16.7c0.9-0.2,1.7-0.4,2.6-0.6c1.3,3.3,4,6.7,3.8,9.9
	c-0.7,10.3-1.7,20.6-4.2,30.6c-3.3,13.2-1.1,19.3,11.1,25.2c1.5,0.7,3.4,2.7,3.5,4.2c0.9,15,1.7,30.1,1.9,45.2
	c0.1,7.6-3.6,11.1-12.3,11.7c-19.1,1.4-38.2,5-49.7,22.8c-4.2,6.5-5.4,14.8-8.2,22.1c-2.4,6.2-5.1,12.3-7.6,18.5
	c0.8,0.4,1.6,0.9,2.4,1.3c5.5-6,11.7-11.4,16.4-18c5.4-7.6,12.2-12.5,20.8-16c19.6-7.9,39.8-12.5,60.7-15.3c5.2-0.7,7.2,1.6,9.6,6.1
	c2.5,4.8,1.2,7.3-1.9,10.4c-5.1,5.1-13.2,8.4-13,17.2c0.1,4.5,0.5,10.8,3.3,13c10.2,7.7,21.4,14.1,32.3,20.8
	c5.3,3.2,11.5,5.3,15.9,9.4c17.5,16.3,28.1,37.5,39.2,58.2c7.3,13.6,17.8,23.8,30,32.8c7.9,5.9,15.9,10.7,26,10.9
	c3.6,0.1,7.1,0.3,10.7,0.5c0-0.8,0.1-1.6,0.2-2.4c-7.3-3.7-15-6.9-21.8-11.3c-6.4-4.1-12.1-9.4-17.6-14.7
	c-17.2-16.9-25.2-39.6-37.1-59.8c-11.1-18.9-24.4-34.8-45.5-42.8c-3.7-1.4-7.7-3.2-10.4-5.9c-1.8-1.9-3.3-7-2.1-8.6
	c9.8-13.4,3.5-25.9-3-36.9c-8.4-14.2-16.8-27.9-18.8-44.8c-2.5-20.8-6.8-41.5-2.1-62.5c0.5-2.4,1.5-4.7,2.4-7.2
	c12.1,8.2,10.6,20.7,12.3,32c2.8,19.3,5.4,38.5,8.8,57.7c1.4,8.3,7.1,13.9,14.4,18.3c2.9,1.7,4.9,5.4,6.8,8.5
	c5.3,8.7,8.5,18.8,18.4,24.4c2.4,1.4,3.1,6.3,3.9,9.8c2,9.1,1.5,18.1,10.1,25.8c9.6,8.5,15.4,21.1,24.4,30.4
	c5.9,6.1,14.2,10.5,22.2,13.5c5.4,2,5.1-4.1,3.9-7.4c-2.5-7-4.9-14.2-8.7-20.4c-19.3-31.9-38.8-63.7-58.8-95.2
	c-6.8-10.7-8.3-32.9-0.2-43.6c10.2,7.1,20.4,14.2,30.6,21.3c9.2,6.4,19.8,11.4,27.4,19.2c13.6,13.9,32.3,16.6,48.2,25.3
	c3.8,2.1,8.8,2.8,13.2,2.9c17.4,0.3,33,7,48.8,13.1c2.7,1.1,5.8,1.2,8.7,1.8c0.4-0.7,0.8-1.4,1.1-2.1c-2.1-1.9-3.9-4.4-6.4-5.6
	c-23.6-12-47.2-24-71-35.6c-21.8-10.6-42.6-22.6-59.8-40.2c-17.1-17.5-36.6-32.8-52.4-51.3c-22-25.7-41.7-53.5-62-80.6
	c-7.2-9.6-13.1-20.3-20.3-30c-7.2-9.8-8.3-20.7-3.8-31c3.9-8.8-0.1-14.9-5.1-18.9c-20.8-16.5-33.6-38.5-43.9-61.9
	c-9.3-21-15.9-43-24.8-64.2c-4.6-11-11.9-20.9-17.3-31.6c-2.3-4.5-2.8-9.8-4.2-14.7c-2.9-10.7-6-21.4-8.8-32.1
	c-0.8-3.1-0.8-6.3,0.7-9.4c11,20.1,22.9,39.7,32.9,60.3c14.7,30.1,24.3,62.1,34,94.1c1.5,5.1,4.6,9.9,7.7,14.3
	c8,11.1,17.5,21.3,24.5,32.9c11.7,19.4,21.7,39.9,33,59.6c5.3,9.1,12.1,17.3,18.3,25.9c0.3,0.5,1.6,0.3,4.2,0.7
	c-2.3-8.6-3.3-16.8-6.5-24c-7.7-17.2-15.3-34.7-25.1-50.8c-16.3-26.8-24-56.4-32.3-86c-6.8-24.3-14.3-48.4-22.3-72.4
	c-2.4-7.2-7.2-13.6-11.2-20.1c-7.7-12.4-16.2-24.3-23.5-37c-15.1-26.3-18.7-55.5-21.2-85.2c-2-24.1,3.3-47.3,6.7-70.5
	c1.9-13.1,10.6-25.1,15.9-37.8c2.8-6.7,5.5-13.5,7-20.5c1.5-7.1,1.6-14.5,3.3-21.9c11.8,39.3,20.4,79.7,45.1,113.2
	c1.4-0.4,2.7-0.8,4.1-1.2c-2.5-12.3-4.4-24.8-7.5-37c-8.4-33.1-17.5-65.9-25.7-99c-3.7-15.3-1.8-30.7,2.1-46.1
	c4.2-16.4,14.9-28.4,25.1-40.8c8.1-9.9,18.1-18.2,26.4-27.9c5.1-5.9,9.3-12.4,6.9-21.8c-3.8-15.2-5.9-30.9-8.8-46.4
	c-2.5-13.4-6-26.8-7.3-40.3c-2.2-22.1-1.5-44.2,9.2-64.7c1.2-2.3,2.1-4.9,3.8-6.8c6.5-7.4,12.1-14.9,8.4-25.8
	c-0.6-2,0.9-6.4,2.5-7.1c14.3-6.3,28.3-14.2,43.4-17.3c10.1-2,22.3,1.4,32.5,5.4c10,3.9,19,5.6,29,1.6c0.2-8.2-12.8-15.8-38.4-22.4
	c-13.8-3.6-25.7-1.4-29.1,5.1c-8.1-0.4-16.4-2.4-24-0.9c-7.2,1.4-13.6,6.5-21.4,10.6c-2.5-10.2-4-21.1,1.2-30.8
	c6.4-12,14-23.6,22.8-34.1c9-10.7,20.5-19.3,29.9-29.7c8.3-9.3,12.6-20,11.8-33.7c-1.4-25-17.6-41-31.5-58.8
	c-13.1-16.7-15.7-35.9-15.5-56.5c0.2-26.9,13.4-48.8,25.2-71.2c9.1-17.3,16.2-34.5,15.5-54.6c-0.4-9.8,1-19.7,1.6-29.5
	c-1.2-0.3-2.5-0.6-3.7-0.9c-1.3,3.6-2.6,7.2-4,10.8c-3.2,7.8-4.8,17.2-10.2,23.1c-13.4,14.8-21.6,31.6-26.3,50.7
	c-1.3,5.1-4,10.1-6.9,14.6c-10.8,16.3-14.4,34.9-17,53.7c-3.6,27,4.7,51.1,20.5,72.3c11.8,15.9,16.9,34.4,23.9,52.3
	c0.8,2,0.5,4.7-0.2,6.8c-4.3,13.2-11.5,25-23.7,31.7c-22.8,12.4-31.7,33.1-36.1,56.6c-3.2,17.4-3.1,34.9,4.3,51.7
	c0.7,1.7-0.2,4.4-1,6.4c-2.1,5.3-3.9,11-7,15.7c-11.8,17.8-12.6,37.8-12.1,57.9c0.2,9-2.2,16.2-7.1,23.2
	c-20.2,29.4-39.3,59.6-60.5,88.2c-20.3,27.4-17,55.2-6.1,84.1c0.9,2.3,3.1,4.1,4.4,6.3c1.2,1.9,2,4,3.8,7.6
	c-11.3-1.7-21.7,1.9-30-8.2c-3.8-4.6-10.5-6.7-16.9-8.9c7.7,12.8,17.4,23.8,17.5,39.6c0.1,16.5-10.2,26-21.5,34.8
	c4.6,6.5,9.2,12.9,14.8,20.9c0.9-0.5,3.8-1.9,6.2-3.8c7.5-5.9,15.9-9.6,25.5-7.7c3.6,0.7,6.6,4,10.3,6.4
	c-14,11.9-26.3,22.6-38.9,32.8c-1.8,1.5-5.5,1.6-7.9,1c-17.4-4.4-31.7-13.1-40.2-29.8c-8.1-16-15.4-32.2-15-50.6
	c0.3-15.2,1.6-30.5,1.3-45.7c-0.3-11.3,3.6-20.4,8.4-30.5c8.4-17.7,14.2-36.8,18.9-55.9c4.7-19.2,7.2-38.9,9.7-58.5
	c2.2-16.8,4.1-33.7,4.3-50.6c0.3-18.7,5.7-36.2,9.5-54.1c5.8-28.1,17.4-54,29.5-79.6c7.5-15.9,17.8-31.2,29.5-44.3
	c20.8-23.3,32.9-50.8,44.4-78.9c9.3-22.6,19.1-45,26.7-68.1c5.5-16.7,8-34.4,11.3-51.8c2.9-15.5,2.9-31.9,8-46.5
	c6.2-17.6,16.1-34,24.9-50.7c4.4-8.3,9.9-16,15-23.9c5.1-8,11.2-14.5,21.5-15.5c5.4-0.5,10.9-1.3,16-3.1c7.5-2.6,15.6-4.7,18.2-14
	c0.6-2.1,1.7-4.1,2.5-6.2c1.2,1,2.3,2,3.5,2.9c-1.2,3-2.1,6.2-3.7,9c-10.2,17.9-15.6,37.6-19.5,57.5c-1.5,7.6-0.1,16.1,1.6,23.9
	c1.9,8.8,16.3,14.2,26.2,9.7c10.9-4.9,21.3-11.1,31.9-16.7c9.1-4.8,18.1-10,27.5-14.3c9.8-4.5,19.8-3.4,30.3-1.7
	c10.8,1.8,22.1,0.1,33.2,0.2c14.9,0.2,29.7,0.5,44.6,0.9c7,0.2,14.1,0.8,21.1,1.2c0.3-0.9,0.7-1.7,1-2.6c-2.2-1.6-4.3-4.1-6.7-4.6
	c-12.6-2.1-25.4-3.4-38-5.6c-5-0.9-9.7-3.2-14.5-6.9c4-0.9,8-2.8,12-2.6c19.2,0.7,38.4,1.7,57.5,3.2c1.7,0.1,4,4.2,4.2,6.6
	c0.3,2.6-1.8,5.4-2.2,8.2c-0.4,3.7-0.1,7.4-0.1,11.1c5.1-0.7,11.5,0.4,14.9-2.3c10.1-8,18.9-17.6,28.5-26.4
	c5.9-5.4,12-10.4,19.1-16.4c-1.2-2-2.9-4.7-5.5-9.1c4.5-2.7,8.6-6.2,13.4-7.8c17.4-5.6,30.5-17.2,41.9-30.4
	c6.5-7.5,11.1-16.7,15.9-25.4c6.3-11.6,14.3-18.8,28.8-17.2c10.2,1.1,20.5,0.2,30.8,0.2c0.3,0.7,0.6,1.5,0.9,2.2
	c-3.5,1.8-6.8,4.1-10.5,5.4c-15.7,5.6-30.2,13.2-40.4,26.7c-5.1,6.7-9.1,14.4-12.9,22c-0.9,1.8,1.3,5,2.1,7.6
	c2.2-0.9,5.3-1.1,6.4-2.7c20.1-27.8,49.7-40.7,80.7-51.2c14.1-4.8,28.4-8.9,43.9-13.8c-0.8,9.7-3.4,17.5-9.3,23.9
	c-5.1,5.5-10.3,10.8-15.7,16c-15.7,15.2-31.5,30.3-48,46.1c-1.7-2.9-4-6.8-6.9-12c-2.5,2.2-5.3,4-7.2,6.5
	c-12.9,16.5-24,34.1-31.2,54.1c-1.6,4.5-7.9,8.9-12.9,10.2c-8.1,2.1-13.3,5.2-14.8,13.9c-4.4,24.6-7.1,49.7-21.5,71.2
	c-9.2,13.6-18.9,26.8-28.9,39.7c-2.4,3.1-7.1,4.3-11.8,6.9c0.8,1.7,1.3,4.6,3.1,5.9c19.5,14.7,21.7,36,21.2,57.8
	c-0.4,19.5-3.6,39.1-3,58.5c1.1,35.7,5.1,71.1,22,103.6c1,2,0,5-0.1,7.6c-2.3-0.6-5-0.5-6.7-1.8c-12.6-9.1-25.9-11.4-40.8-5.8
	c-1.6,0.6-7.1-4-7.5-6.6c-1.8-10.9-8.9-18.3-19.5-15.4c-16.8,4.6-32.1,2.5-47.4-5c-15.7-7.7-29.8-2.1-42.2,7.5
	c-13.6,10.6-28.7,11.5-44.6,9.3c-8.8-1.2-15-6.7-19.2-14.2c-3.4-6.1-5.9-5-10.2-0.6c-7.3,7.6-15.6,14.3-23.2,21.6
	c-10.7,10.4-22,20.4-31.5,31.8c-4.4,5.3-5.9,13.4-7.9,20.4c-4.4,15.7-8.4,31.6-12.2,47.5c-1.8,7.4-2.8,15.1-3.6,22.7
	c-0.8,8-1.2,16-1.4,24.1c-0.1,3.9,0.8,7.8,1.2,11.6c0.9,0.2,1.8,0.4,2.7,0.6c3.4-9.7,7.4-19.2,10.1-29.1
	c7.8-28.7,9.7-59.1,24.2-85.8c4.6-8.3,11.7-15.9,19.1-21.9c10.6-8.5,24-13.7,28.5-26.4c11.4,5.4,22,10.4,32.6,15.4
	c-6.3,6.9-13.2,14.1-19.6,21.7c-16.1,18.8-24.5,41.2-30.4,64.9c-4.8,19.5-12,38.4-17,57.8c-3.2,12.4-4.7,25.4-6.4,38.1
	c-0.5,3.4,0.8,7,3.3,10.9c3.4-6.5,7.6-12.8,10.1-19.6c11-30.1,22.1-60.2,31.9-90.7c9.2-28.5,23-54,43.3-75.8
	c3.7-3.9,11.9-3.6,18-5.2c5.2-1.4,10.4-2.9,15.6-4.4c2.8-0.8,5.5-2.5,8.2-2.5c9.6,0.1,19.3,1,28.9,1.3c5.7,0.2,8.5,3.4,8.8,8.6
	c0.7,11.1,0.6,22.3,1.4,33.4c1.9,24.3-8,46.1-14.1,68.6c-7.6,28.3-20.6,54.1-35.8,79c-2.6,4.3-4.2,9.4-5.6,14.3
	c-0.5,1.6,0.7,4.8,2.1,5.6c1.3,0.7,4.4-0.2,5.7-1.5c12.6-12.2,24-24.8,29.2-42.7c6.9-23.6,21.4-42.8,40.7-58.2
	c11.6-9.3,13.3-22.7,11.3-35.9c-3.5-22.6-8.4-44.9-12.7-67.3c14.5-2,22.4,2.9,26.3,19.1c3.8,15.8,5.1,32.3,7.8,48.4
	c3.2,19.2-7.4,32.5-18.5,46c-18.5,22.6-37.1,45.3-54.4,68.8c-20.2,27.5-39.2,56-58.6,84.1c-1.3,1.9-2.3,3.9-3.4,5.9
	c0.6,0.6,1.2,1.2,1.8,1.9c7.6-7,16-13.4,22.6-21.3c8.4-10.1,14.3-22.4,23-32.2c8.7-9.8,19.8-17.3,29.3-26.4
	c14.8-14.2,29.2-28.8,43.7-43.4c7.6-7.6,15.3-15.1,22.6-23c8.8-9.6,6.8-21.4,5.9-32.9c-0.9-11.1-1.8-22.3-3-33.4
	c-1.2-10.8-2.9-21.5-4.1-32.3c-0.7-6.1-0.9-12.2-1.3-18.2c1.2-0.4,2.4-0.7,3.6-1.1c8.3,15.2,17.6,29.9,24.8,45.6
	c11.4,24.8,8.9,50.8-1.9,74.4c-10.1,21.9-22,43.4-42.3,59c-10.3,7.9-17.7,19.5-24.9,27.8c3.1-2.1,8.6-5.4,13.7-9.2
	c14.6-10.9,29.7-21.2,43.4-33.1c12.1-10.5,22.9-22.6,33.7-34.5c3.3-3.6,4.8-8.9,6.9-13.5c1.4-3,2.3-6.2,3.4-9.4
	c0.7-0.1,1.5-0.1,2.3-0.2c0.9,2.7,2.7,5.5,2.4,8.1c-1.7,14.7-2.8,29.7-6.3,44c-2.6,10.9-13.2,16.3-22.1,22.1
	c-14.5,9.3-28.9,19-44.1,27c-19.3,10.1-39.3,18.7-59,28c-2.6,1.2-5.1,2.7-7.7,3.9c-10.1,4.7-20.1,9.4-30.2,14.2
	c-1.8,0.8-3.4,2-5.1,3c0.3,0.7,0.5,1.3,0.7,2c10-1,20.1-2.5,30.1-3c18.8-0.9,37.7-0.7,56.5-1.9c11.6-0.7,23.1-2.8,34.6-4.8
	c6.1-1.1,11.9-2.7,16,3.8c5.6,8.9,11.8,17.5,16.6,26.9c13.2,25.9,15.3,54.3,17.1,82.8c1.2,18.3,3.9,36.6,5.5,54.9
	c0.9,9.7,0.6,19.4,1.4,29.1c0.5,6.2,1.7,12.5,3.7,18.4c0.7,2.2,4.5,3.4,6.9,5.1c1.1-2.3,3-4.5,3.3-7c2.5-17.2,4-34.5,1-51.9
	c-0.2-0.9,0.6-2,1.8-3.1c4.6,10,9.4,20,8.2,31.4c-2.4,23.1-4.6,46.4-8.1,69.3c-2.6,17.4-3.9,35.4-13.6,51.1
	c-0.7,1.2-1.6,2.3-2.6,3.8c-10.7-15.7-19.8-32.1-31.8-45.9c-11.7-13.5-23.8-28-42.5-32.9c-0.7,0.7-1.4,1.3-2.2,2
	c2.5,3.1,4.5,6.7,7.5,9.1c28.8,24.1,45.6,55.7,56.9,90.6c1.4,4.2,0.2,9.2,0.2,16.1c-3.6-2.7-4.7-3.2-5.3-4.1
	c-8.5-12.9-16.6-26.1-25.3-38.8c-10.8-15.8-21.2-32.1-33.4-46.8c-19-22.9-44-37.8-71.8-47.7c-5.4-1.9-11.4-2.1-17.4-1.5
	c14.5,9.7,29,19.3,43.4,29.1c28.5,19.4,49.1,45.6,65.3,75.6c12.1,22.4,23,45.4,35.6,67.4c4.5,7.9,12.4,14,19.2,20.5
	c23.2,22.5,49.2,43.1,53.2,80.7c-2.4-3.7-3.8-6.1-5.5-8.3c-6.8-9.2-12.6-19.4-20.6-27.4c-15.7-15.4-32.6-29.5-49-44.1
	c-7.9-7-17.3-9.5-28.7-9.3c0.9,3.7,0.8,7.4,2.5,9.5c9.5,11.7,18.6,24.1,29.6,34.3c17.9,16.7,32.8,35.6,36.6,59.6
	c2.3,14.6-0.5,31.1-4.8,45.6c-8.8,29.3-20.3,57.9-30.6,86.8c-2.6,7.3-4.9,14.7-7,22.1c-0.5,1.9,0.4,4.1,0.7,6.2
	c1.9-0.7,3.9-1.3,5.7-2.3c2.6-1.5,5-3.3,8.3-5.5c0,6.5,0,11.7,0,17.3c-16,8.6-31.7,11.3-48.7,1.1c-11.9-7.2-25.2-12.2-38-18
	c-14.9-6.7-20.6-20.2-24.9-34.3c-2.9-9.6-5.4-19.4-6.5-29.3c-0.9-8.1,0.6-16.5,0.8-24.8c0.1-3.2-0.7-6.5-1.1-9.7
	c-0.9-0.1-1.9-0.2-2.8-0.3c-2.8,11.7-7.9,23.4-7.9,35.1c0,17,2.9,34.2,5.9,51.1c2.3,13.2,11.5,22.1,22.3,29.3
	c15.2,10.2,30.1,21.2,46.2,29.7c17.4,9.2,35.4,17.3,48.5,32.2c10.1,11.5,20.3,23.7,26.8,37.3c7,14.8-11.2,40-27.8,41.8
	c-4.3,0.5-8.6,1.6-12.8,1.4c-3.7-0.2-7.9-1.1-10.8-3.2c-10.2-7.2-19.8-15.1-29.6-22.7c2.6,10.7,8.2,20.2,18.2,26.9
	c4.3,2.9,9.2,5,13.1,8.3c21.1,17.7,36.8,9,53.2-5.2c7.4-6.4,11.1-17,16.4-25.8c11.9-19.5,22-40.3,42.5-53c4.7-2.9,8.3-7.4,12.8-11.5
	c0.2,1.1,0.9,2.6,0.9,4.1c-0.6,21.4,1.2,42.7-6.6,63.8c-5.2,13.8-8.1,28.3-15.8,41.4C963.1,2116.9,932.3,2126,897.8,2114.3z
	 M377.5,1325c-4.6-3.4-4.7-8-0.8-12.6c3.7-4.4,7.7-5.2,12.8-2.5c13.5,7.2,15.3,12,8.7,27.8C390.8,1333.3,383.8,1329.6,377.5,1325z
	 M381.6,1340.9c-0.2,1-0.4,2-0.6,3c-7.4,1.4-14.7,2.9-22.1,4.3c-0.7-0.5-1.4-1.1-2.1-1.6c3.3-3.6,6.1-9.4,9.9-10.1
	C371.3,1335.6,376.6,1339.2,381.6,1340.9z M418.6,1231.4c2.8-1.6,8.2,1.2,11.9,1.9c-6.6,14.6-12.6,27.9-18.8,41.6
	c-11.8-7-10.9-19.2-9.2-28.8C403.4,1240.3,412.2,1235.1,418.6,1231.4z M415.6,1204.7c7.7-26.4,23.6-49.9,40-74
	c1.6,1.4,2.6,1.9,2.8,2.6c3.8,18.2,7.6,36.3,11,54.5c1.6,8.4-1.7,14.9-9.2,19.7c-5.2,3.4-9.7,7.9-13,10.6
	C435.9,1213.3,426.1,1209.2,415.6,1204.7z M411.1,1297.5c-0.6,4.7-1.1,8-1.5,11.2c-4.3-1.2-8.6-2.5-12.9-3.7
	c0.2-1.3,0.4-2.6,0.5-3.8C401.2,1300.2,405.1,1299.1,411.1,1297.5z M369.3,1395.5c13.7-13.9,13.7-13.9,23.5-8.2
	C387.6,1400.8,379.6,1403.9,369.3,1395.5z M942.7,1131.6c-0.2-7.1,1.1-14.2,3.7-21.9c3.5,11.7,7.7,23.3,10.4,35.2
	c4.3,18.4,7.5,37,11.3,55.5c0.3,1.4,0.3,3.1,1.1,4.1c7.4,8.4,7.1,18,5.2,28.2c-2.3,11.8,0.4,24.8-10.3,35c0.6-9.7,1.4-19.3,1.6-28.9
	c0.1-6.5,0-13.2-1.3-19.5c-1.8-8.6-4.9-17-7.5-25.4c-0.9-3-1.5-6.6-3.6-8.7C937.7,1169.6,943.3,1150,942.7,1131.6z M1039.7,2246.7
	c11.3,8.6,19,21.9,28.2,33.1c3.7,4.5,7.5,9,11,13.7c4.8,6.4,10.3,12.6,13.6,19.7c1.6,3.6-1,9.1-1.7,13.7c-3.5-1.1-7.1-2.2-10.6-3.2
	c-3-0.9-6-1.6-9-2.4c0.5,3.1,0.1,6.9,1.9,9.1c2.8,3.5,6.7,6.2,10.6,8.5c10.6,6.3,11.3,9.4,3.5,20.7c-8.5-5.6-17-11.3-25.8-17.1
	c-5.4,6.1-4,11.1,0.5,15c5,4.3,10.9,7.4,16.1,11.5c2.5,2,4.3,4.9,6.4,7.4c-2,1.5-3.9,4.1-5.9,4.2c-3.3,0.1-7.6-0.4-9.7-2.4
	c-6.6-6.4-12.2-13.8-18.4-20.6c-2.1-2.3-4.8-3.9-7.2-5.9c-0.8,0.3-1.6,0.7-2.5,1c0.8,3.3,1.1,6.9,2.6,9.9c5.1,9.6,11,18.9,15.9,28.6
	c1.3,2.6,0.5,6.3,0.7,9.5c-2.9-0.4-6-0.4-8.7-1.3c-2.9-1-6-2.4-8.2-4.6c-12-11.9-24.2-23.6-35.4-36.2c-15.2-17.1-20.2-38.6-22-60.6
	c-1.5-17.9-10.3-30.7-23.5-41.2c-10.9-8.7-18.4-19.6-23-32.6c-1.9-5.5,1-8.1,6.2-10.1c18-6.7,36.6-6.7,55.3-6.6
	c2.4,0,5.9,3.4,6.9,6.1C1014,2229.1,1027,2237.2,1039.7,2246.7z M1109.2,1721c-12.3,0.3-21.5,5.7-27.5,16.4
	c-2.8,4.9-5.6,6.1-9.7,1.2c-17-20.3-34.3-40.3-51.1-60.8c-8.2-9.9-10.7-40-4.7-50.2c7.9,12.8,15.6,25.5,23.5,38
	c6,9.5,13.5,17.3,25.3,19.1c5.9,0.9,11.7,1.9,12.5-7c0.2-2,2.9-3.8,4.1-5.2c10.6,15.9,20.9,31.2,31.5,47.1
	C1111.3,1720.3,1110.3,1720.9,1109.2,1721z M1041.4,1310.3c7.1,7.7,5.5,18,5.1,27.9c-0.4,9.8,0.3,19.8,1.5,29.6
	c2.5,19.6,11.8,36.6,23.8,51.7c8.3,10.4,18.6,19.5,29.2,27.7c22.4,17.3,36,40.6,47.9,65.4c3.4,6.9,8,13.3,11.5,20.1
	c1.8,3.4,4.1,7.7,3.4,10.9c-4.4,19.2-9.2,38.4-14.6,57.4c-5.7,19.7-22.2,31-36.4,43.8c-5.2,4.7-13-0.3-13.6-8.1
	c-0.5-7.1-1-14.3-1.8-21.4c-2.2-19.5-13.9-28.4-33.2-25.7c-1.9,0.3-3.7,0.6-5.6,1c-0.4-0.7-0.8-1.4-1.1-2.2c4.3-2.8,8.5-5.7,13-8.3
	c14.9-8.5,31.1-15.1,42.4-28.7c2.1-2.5,3.5-7.5,2.6-10.5c-6.2-20.3-13.1-40.3-19.8-60.4c-0.9-2.7-1.7-6-3.7-7.7
	c-12.3-10.8-24.4-22.1-40.3-27.3c-0.9,0.7-1.8,1.4-2.8,2.2c2.9,4.7,5.1,10.1,8.9,13.9c13.5,13.4,16.9,31.2,20.8,48.3
	c1.3,5.6-4.5,12.9-7,19.4c-0.9,0-1.7,0-2.6,0c-1.3-2.6-2.7-5.2-3.8-7.8c-9.4-22.8-18.8-45.6-28.1-68.5c-2.4-5.9-7.1-6.5-12.1-5.1
	c-6.9,1.9-13.7,4.2-20.4,6.8c-6.1,2.4-8.8,0.6-8.8-5.7c-0.1-6.9,0.2-13.8-0.2-20.7c-1.6-27.7-0.2-54.9,9.8-81.3
	c2.4-6.3,0.4-14.2,0.4-21.4c0-15.7,0-31.3,0-47c0.7-0.4,1.5-0.7,2.3-1.1C1019.2,1288.4,1030.9,1298.8,1041.4,1310.3z M1046.7,812.4
	c1,0.1,2.1,0.1,3.1,0.2c0.9-7.1,1.7-14.3,2.8-21.4c4.4-29.4,8.9-58.8,7.3-88.7c-0.3-6.8,1.2-13.6,1.9-20.4c0.7-0.1,1.4-0.1,2.1-0.2
	c0.6,4.5,1.7,9,1.7,13.4c-0.2,11.8,2.8,22.5,8.3,33c2,3.7,1.8,9.5,0.5,13.7c-2.8,9.2-2.4,17.3,5,23.7c7,6.1,8.2,11.5,4.2,20.6
	c-20.6,46.5-40.1,93.4-60.2,140.1c-11,25.6-22.5,50.9-33.8,76.4c-0.5,1-1.2,1.9-2.2,3.5c-3.9-6.5-8.5-4.9-12.1-0.6
	c-3.8,4.5-6.7,9.9-10,14.8c-1.3,2-2.8,4-4.1,6c-1-0.3-2-0.7-3-1c2.1-8.6,3.2-17.5,6.6-25.6c5.2-12.3,11.8-24.1,17.9-36
	c18.1-35.3,30.1-72,27.3-112.3c-0.3-4.6-0.3-9.2-0.8-13.8c-0.1-1.5-1.1-3-3.1-4.5c-2.8,17.4-3.5,35.5-8.8,52.1
	c-5.4,16.7-15.1,32.1-23.2,47.9c-8.1,15.7-16.5,31.3-33.8,40.2c-0.2-1.5-0.6-2.6-0.3-3c15.1-17.7,23.6-39.2,33-59.9
	c5.3-11.6,7.3-24.6,10.8-37c4.8-17.4,10.5-34.7,14.1-52.3c2.7-13,2.6-26.6,3.8-40c0.8-8.6,2-17.2,2.4-25.9c0.4-10.3,0.1-20.7,0.1-31
	c-1.1-0.2-2.1-0.3-3.1-0.5c-1.2,1.3-2.8,2.5-3.6,4c-5.4,10.7-8.3,21.3-8.5,34.1c-0.4,21-5.2,42.1-9.8,62.8
	c-6.8,30.8-19.1,59.2-42.8,81.1c-6.6,6.1-14,11.2-21.6,17.3c-4-10.8-3.4-16.4,4.7-23.9c23.1-21.6,33.9-49.8,39-81.1
	c2.4-15.1-1.6-31.4,8.1-45.6c3-4.4,1.5-11.7,2.3-17.6c2.9-19.8,5.9-39.6,8.8-59.4c-1.1-0.3-2.2-0.6-3.2-0.9
	c-1.8,6.9-3.7,13.9-5.6,20.8c-5,18.5-10.1,37.1-15.1,55.6c-3,11.3-6.2,22.7-8.9,34.1c-5,21.8-15.4,40.6-31.3,56.6
	c4.7-13.1,10.3-26,13.8-39.4c2.8-10.7,2.8-22.1,4.3-33.1c4-28.1,6.3-56.7,13-84.1c4.7-18.9,15.7-36.2,23.8-54.3
	c10.2-22.7,21.8-44.8,23.8-70.2c0.2-2.4,0.9-5.4,2.5-7.1c17.3-19.1,34.8-37.9,52.2-56.8c0.7,0.4,1.3,0.8,2,1.2
	c-0.8,2.5-1.1,5.4-2.4,7.6c-5.6,8.7-10.2,18.5-17.5,25.5c-13.3,12.9-17.9,29.4-21.6,46.1c-6.2,27.7-11.5,55.6-16.5,83.6
	c-1.6,9-0.9,18.4-0.8,27.5c0,2,1.7,4,3.1,7.2c9.4-14.4,11-29.8,14-44.7c4.9-24.1,9.7-48.2,13.8-72.5c2.7-15.9,14-26.6,22.3-39
	c16.9-25.3,35-49.8,52.6-74.6c1.1-1.5,2.4-2.8,3.7-4.2c0.7,0.3,1.3,0.6,2,1c-10.4,31.3-20.7,62.5-31.8,96.2
	c-2.9-7.3-4.9-12.4-6.7-16.9c-10.1,41.1-15.1,82.9-16.2,125.4C1045.9,728.1,1042.8,770.3,1046.7,812.4z M1091.2,601.4
	c4.1-26.8,10.3-53.4,17.5-79.6c5.2-18.9,13.6-36.9,21-56.4c8.1,3.7,14.3,5.8,19.7,9.3c1.9,1.2,2.8,6.1,2.2,8.7
	c-5.2,20.3-11.2,40.3-16.5,60.5c-7.2,27.4-14,54.9-20.8,82.4c-1.3,5.3-2,10.7-3.6,15.8c-0.6,1.9-2.8,4-4.8,4.8
	c-4.2,1.7-8.7,2.6-15.1,4.4C1090.7,634.9,1088.7,617.8,1091.2,601.4z M1152.9,730.1c-10.7-1.4-21-5.6-31.5-8.2
	c-4.7-1.2-9.6-2-14.4-2.3c-9.9-0.7-16.1-6.2-16.2-16.1c-0.1-6.3,0.7-12.6,1.9-18.8c1.8-9.3,4-18.5,6.6-27.6c0.9-3,3.5-5.4,5.3-8.1
	c1.1,0.5,2.1,1,3.2,1.6c-1,4.8-2.1,9.7-3,14.5c-2.1,11.5-4.3,23.1-6,34.7c-0.3,2.2,1.3,6.3,2.9,6.7c3.4,1,9.2,1.8,10.8-0.1
	c8.5-10.3,20.8-8.3,31.4-9.6c33-3.9,65.9-0.6,98.6,4.5c2.2,0.4,4.6,0.1,6.9,0.3c2,0.1,3.9,0.5,6.4,0.9
	C1223.4,721.2,1190.5,735.2,1152.9,730.1z M1261.7,682.3c-26.8-1.6-52.4-3.2-79.3-4.9c0-11.9,0.6-24-0.2-36
	c-0.8-12.8,3.1-22,14.7-28.3c10.5-5.7,20.4-12.6,30.5-19.2c2.4-1.6,4.1-4.3,7.3-7.9C1243.7,617.8,1252.4,649,1261.7,682.3z
	 M1341.3,388.2c-8,33.2-23.8,62.7-43.2,90.5c-16.4,23.6-33.4,46.8-50.1,70.2c-1,1.4-1.9,2.8-4,6.1c-4.2-13.1-8.2-23.5-11-34.2
	c-6.1-23.6-11.1-47.5-17.6-71c-4.4-16-10.1-31.7-15.8-47.3c-1.7-4.5-1.6-6.9,1.8-10.5c24.6-26.4,56.9-35,90.8-39.9
	c7.7-1.1,15.4-1.8,23.1-3c6.6-1,11.9,0.4,15.4,6.7c1.1,2,2.4,4.5,4.3,5.3C1349.2,367.5,1343.6,378.5,1341.3,388.2z M1347.8,79.3
	c-7.6,17.6-3,36-3.7,54c-1.1,27.5-2.9,55.1-3.6,82.6c-0.4,18.3,0.5,36.7,1,55c0.3,12.9,1.1,25.9,1,38.8c0,2.5-2.6,6.2-4.9,7.2
	c-6.5,2.9-13.3,5.5-20.2,6.8c-19.4,3.8-39,6.8-58.5,10.1c-1.6,0.3-3.3,0-6.4,0c20.5-24.8,29.4-53.3,40.1-80.9
	c4.2-11,8.2-22.1,13.3-32.6c7.2-15,4-30.4,3.6-45.8c-0.4-18.9-2.5-37.9-1.2-56.7c1.1-15.6,9.2-29.1,20.6-40.7
	c6.9-7,11.7-16,17.6-23.9c2.3-3.1,5-5.9,7.8-8.6c6.4-6.2,13-12.3,19.5-18.5c0.7,0.5,1.4,1,2.1,1.5c-3.1,4.8-5.8,10-9.4,14.3
	C1357.4,53.1,1353.3,66.5,1347.8,79.3z M1362.1,123.5c0.4,20.5-0.8,41.1-1.7,61.7c-0.4,8.3-1.7,16.6-2.7,24.9c-1,0-1.9-0.1-2.9-0.1
	c-0.3-1-1-2.1-1-3.1c0.9-18.6,2.6-37.1,2.5-55.7c-0.1-16.5-1.6-33.1-3.6-49.5c-1-8.3-2.1-15.8,5.5-21.8c1.7-1.3,3.1-3.6,3.7-5.7
	c2.3-9.1,6.8-5.9,12.7-2.3C1353.1,85.4,1361.7,105.1,1362.1,123.5z M1370.4,92.9c3.1-4.6,4.4-8.8,7.2-10.1
	c12.8-6.2,25.9-11.9,39.2-17.1c2.2-0.8,6.8,0.7,8,2.6c1.1,1.7-0.2,6.3-2,8.1c-12.6,12.1-28.4,17.9-45.2,21.3
	C1375.9,98,1373.5,95.1,1370.4,92.9z M1379.8,116.1c9.5-3.8,18.8-8.1,28.6-11.1c2.6-0.8,6.5,2.3,9.8,3.7c-1.4,3.1-1.9,7.7-4.3,9
	c-10.9,6-22.2,5-33.5,1.7C1380.2,118.3,1379.9,117.2,1379.8,116.1z M1559.1,469.3c1.7,12.3,3.6,24.6,5.8,36.8
	c2.4,13.5,5.6,26.8,7.9,40.3c3.8,22.4,7,45,10.8,67.4c3.1,18.6,6.4,37.3,10.3,55.7c1.5,7.1-0.6,8.7-7.1,8.4
	c-15.8-0.7-31.6-1.5-47.4-1.2c-8.9,0.2-11.5-3.8-10.5-11.4c2.3-17,5.3-33.8,7.4-50.8c2-16.4,3.6-32.8,4.7-49.2
	c1.5-21.3,2.4-42.7,3.4-64.1c0.4-8.8,0.7-17.7,1.2-26.5c1.1-20,2.2-39.9,3.4-59.9c0.1-1.4,0.5-2.7,0.7-4c0.6-0.1,1.1-0.1,1.6-0.2
	c1.2,7.2,2.5,14.4,3.4,21.6C1556.3,444.6,1557.4,457,1559.1,469.3z M1569.5,339.4c-10.3,11.6-22.5,8.3-33.4,9.4
	C1545.9,343.7,1555.2,336.8,1569.5,339.4z M1456.3,650.1c8.4-29.5,17.2-58.7,25.7-88.2c3.3-11.5,5.1-23.6,9.5-34.7
	c11.6-29.1,19.7-59.2,26.8-89.6c1.7-7.4,6.3-14.3,9.6-21.4c1.2,0.4,2.3,0.8,3.5,1.2c-0.7,8.2-1.6,16.4-1.9,24.7
	c-0.8,26.1-0.4,52.2-2,78.2c-1.9,30.2-5.3,60.4-8,90.6c-1.8,19.7-3.6,39.3-5.3,59c-0.4,4.4-1,7.7-6.4,8.4c-18.7,2.5-37.4,5.3-56.2,8
	c-0.8,0.1-1.6-0.2-3.6-0.6C1450.8,673.7,1453,661.7,1456.3,650.1z M1578.6,713.9c-10.7,2.4-22,1.9-33.1,2.9c-3.8,0.3-8,0.5-11.3,2.1
	c-33.3,16.6-66.3,16.2-99.3-0.9c-1.5-0.8-2.6-2-3.9-3c15.3-20.6,39.1-15.1,59.2-20.4c3.6-0.9,7.3-1.3,11.1-1.6
	c7.7-0.6,16.8-3.1,14.4,10.8c4.7-1,8.1-1.8,12.7-2.8c-3.1-8.1,1.8-8.9,8.4-8.2c17.7,1.8,35.4,3.4,53,5.3c2.8,0.3,5.4,1.4,8.1,2.2
	c0.3,0.8,0.7,1.6,1,2.5C1592.3,706.6,1585.9,712.2,1578.6,713.9z"/>
<path opacity="0.1" fill="#FFFFFF" d="M611.9,1663.5c-9.6-38.6-9.9-78.5-13.6-117.8c-1.9-20.9-1.7-42.1-1.5-63.2
	c0.2-19.8,1.5-39.6,2.6-59.4c0.5-9.1-0.7-16.5-7.3-24.3c-15.1-17.9-19.7-40.1-21.3-62.9c0.9-0.4,1.7-0.7,2.6-1.1
	c7.9,18,15.9,35.9,23.8,53.9c1-0.2,2.1-0.4,3.1-0.7c0.9-3.8,2.2-7.4,2.7-11.3c2.6-18.5-4.5-34.3-14-49.5
	c-9.9-15.8-16.5-32.5-17.6-51.6c-0.7-11.4-4.4-22.6-6.8-33.9c-1.1,0.1-2.2,0.2-3.4,0.3c4.1,25.3-7.1,50.9,5,76.9
	c-3.7-1.1-6-1.7-9.3-2.7c-1,4.3-2.8,8.1-2.7,11.9c0.1,8,0.5,16.1,1.8,23.9c2.5,15.2,3.8,31,9.2,45.1c6,15.6,8.8,31.4,10.8,47.6
	c1.1,8.9,2.3,18.5-1.2,26.9c-20.2-5.5-26-24.4-39-36.4c2.8,41.9,18.4,80.8,27.2,121.5c-4.6-3.8-8.6-7.8-12.1-12.3
	c-11.3-14.5-23.3-28.5-33.3-43.9c-12.6-19.4-29.5-36-35.7-59.6c-2.1-7.9-9.1-14.4-13.8-21.6c-1,0.7-2,1.4-3,2.1
	c0.5,1.6,0.7,3.2,1.4,4.7c9.6,19.3,18.2,39.1,29,57.7c29.3,50.8,59.5,101,89,151.6c4.5,7.8,7.3,16.7,10.6,25.2
	c2.7,6.9,4.6,14.2,7.5,21c12.8,29.5,25.8,59,38.9,88.3c3,6.8,7,13.1,10.5,19.7c0.8-0.3,1.6-0.5,2.4-0.8c0-2.8,0.8-5.8-0.1-8.2
	c-9.7-27-19.8-53.8-29.6-80.8C620.3,1687.8,615,1675.9,611.9,1663.5z"/>
<path opacity="0.1" fill="#FFFFFF" d="M607.8,1347.1c4.7-6.2,9.6-12.2,14.2-18.5c7.4-10.2,13.3-22,22.4-30.3
	c12.4-11.3,27.5-19.7,41.1-29.8c8-6,15.5-12.4,16.8-23.8c1.3-12.2,3.2-24.4,6.2-36.3c5-19.7,11-39,16.8-58.5c1-3.2,2.4-6.4,3.9-9.5
	c6.4-13.7,12.8-27.4,19.3-41.1c3.7-7.7,7.4-15.4,11.4-23c4.5-8.6,9.3-17.1,13.7-25.8c0.8-1.6,0.1-3.9,0.1-5.9
	c-4.9,3.1-7.8,6.8-11,10.3c-27.8,30.7-52,63.6-64.7,103.7c-6.9,21.8-16.3,42.9-17,66.4c-0.4,15.8-10.2,26.5-21.2,36.8
	c-12.9,12.1-27.8,22.3-36.3,38.6c-4.5,8.7-10.2,16.7-14.6,25.4c-3.1,6-7.1,12.3-4.4,19.7C605.7,1346.1,606.7,1346.6,607.8,1347.1z"
	/>
<path opacity="0.1" fill="#FFFFFF" d="M639.9,819.4c1,0.5,2,0.9,3,1.4c18.6-13.1,25.4-34.7,35.4-52.7c5.5,0.5,9.9,0.3,13.9,1.5
	c2.5,0.8,5.3,3.6,6,6.1c0.7,2.8-0.4,6.3-1.4,9.2c-7,20.9-13.9,41.9-21.4,62.7c-3.9,10.8-4.6,21.3-2.3,34.4
	c18.4-14,19.7-34,25.6-51.8c6.1-18.4,12.3-36.8,18.8-56.4c28.4,1.8,59.1,8.6,87.1-10c-7-0.7-13.9-1.6-20.9-2.2
	c-12.8-1.3-25.9-1.4-38.5-3.9c-15.4-3.1-30.5-8.2-45.7-12.5c-11.9-3.3-20.7,1.1-25.2,12.5c-0.9,2.4-2.1,4.7-3.4,6.9
	c-8.8,14.1-17.8,28-26.4,42.3C642.3,810.7,641.4,815.2,639.9,819.4z"/>
<path opacity="0.1" fill="#FFFFFF" d="M628.4,1508.5c-1.4-22.4-3-44.8-2.3-67.2c0.8-26.3,4.1-52.6,6.3-78.8c0.2-2.3-0.6-4.7-0.9-7.1
	c-0.9-0.3-1.8-0.6-2.6-1c-1.9,2.7-4.5,5.1-5.5,8.1c-2.2,6.8-4.2,13.8-5.1,20.9c-2.3,18.2-4.8,36.4-5.5,54.7
	c-1.1,26.6-1,53.2-0.7,79.8c0.1,9.1,1.9,18.2,3.3,27.3c4.9,32.5,9.6,65.1,15.2,97.5c3.3,19.1,8.2,38,12.5,56.9
	c0.3,1.4,2.1,2.6,3.2,3.8c0.8-0.2,1.6-0.4,2.5-0.7c-0.5-7.6,0-15.4-1.5-22.8c-6.7-32-11.9-64.1-13.1-96.9
	C633.1,1558.3,629.9,1533.4,628.4,1508.5z"/>
<path opacity="0.1" fill="#FFFFFF" d="M537.3,1609.6c-8.8-12-20.1-22.2-28.2-34.6c-25.5-38.6-48-78.9-67.7-120.8
	c-0.5-1-1.4-1.7-2.5-3.1c-3.3,2.9-6.3,4.8-8.3,7.5c-1.7,2.3-3.8,6.2-2.9,8.3c5.7,13.9,11.3,27.9,18.7,41c9.3,16.5,20,32.2,30.6,47.9
	c12.4,18.6,24.2,37.7,38.3,54.9c12.6,15.5,27.9,28.8,42.2,42.9c2.4,2.3,5.9,3.6,10.7,6.4c-0.9-4-0.8-5.9-1.7-7.1
	C556.8,1638.4,547.6,1623.6,537.3,1609.6z"/>
<path opacity="0.1" fill="#FFFFFF" d="M581.5,838c4,6.2,10.4,4.9,13.5-0.3c3.8-6.4,6.9-13.9,7.7-21.3c0.7-7.3,2.9-13,8.8-16.6
	c4.7-3,10.2-5.1,15.5-6.9c15.4-5.1,27.6-14.2,35.5-29.7c-3.6,1.2-7.1,2.3-10.7,3.6c-6.2,2.2-12.2,5.1-18.6,6.5
	c-10.6,2.3-21.5,3.5-32.2,5.4c-10.2,1.9-19.5-5.3-30.6-1.2c-9.1,3.4-19.9,2.3-31.6,3.3c2.6,1.9,3.6,2.9,4.8,3.4
	c13.8,5.1,20.6,15.4,24.7,29.2C570.9,822.1,576.4,830.2,581.5,838z"/>
<path opacity="0.1" fill="#FFFFFF" d="M801.6,790.5c3,11.5,7.3,23,8.4,34.7c2.2,23.9,1.6,48.1,4,72c1.6,16.6,3.4,33.9,16.1,47.6
	c2.2-0.7,4.5-1.4,8.2-2.5c-2.2-7.9-4.4-14.7-5.7-21.6c-1.9-9.5-4.6-19.2-4.2-28.7c0.8-16.9,3.3-33.8,5.7-50.6
	c2.6-18.2-2.8-34.1-12.3-48.9c-5.4-8.4-14.6-11.4-23.2-9C799.5,785.9,800.9,788.1,801.6,790.5z"/>
<path opacity="0.1" fill="#FFFFFF" d="M619.1,919.6c-0.6-1-1.2-1.9-1.8-2.9c-5.3,1.6-10.7,3.2-16,4.9c-8.3,2.8-14.9-0.7-19.8-6.7
	c-2-2.4-2.6-7.7-1.3-10.7c8.3-19.1,4.7-37.4-3.1-58.4c-10.3,23.6-7.4,49.1-24,67.8c-15.8,17.7-34.6,31-56.7,40
	c24,1.6,44.1-10.7,66-15.9c9.1-2.2,19-4.8,27.7-3.1c7.4,1.4,11.1-0.5,15.7-4.6C610.1,926.4,614.7,923.1,619.1,919.6z"/>
<path opacity="0.1" fill="#FFFFFF" d="M851.7,822.4c0.8,19.5,0.3,39.1,1.8,58.6c1.4,19.1,3.7,38.2,7.2,57c1.6,8.6,7.2,16.5,11.5,26
	c1.8-2.7,2.4-3.2,2.4-3.6c-0.1-1.4-0.2-2.8-0.5-4.2c-7.4-30.6-9.3-61.6-9.9-93.1c-0.3-15.4,6.7-30.6,0.1-46.1
	c-5.2-12.4-8.3-25.7-13.9-37.8c-3-6.5-9.6-11.3-14.5-16.8c-1.2,0.9-2.3,1.7-3.5,2.6c1.2,2.7,2.3,5.4,3.6,8.1
	C843.5,788.8,851,804.6,851.7,822.4z"/>
<path opacity="0.1" fill="#FFFFFF" d="M822.1,1267.3c-18.8-7.2-102.3,4.7-128.8,19.7c-29.2,16.6-57.2,35.4-77.3,63.1
	c0.7,0.9,1.4,1.7,2.1,2.6c3.8-2.7,8.5-4.7,11.3-8.2c21.5-27.9,51.2-43.4,83.8-52.9c26-7.7,53-11.9,79.5-17.7
	C802,1271.9,811.3,1269.7,822.1,1267.3z"/>
<path opacity="0.1" fill="#FFFFFF" d="M438.5,881.2c-3.5-0.6-9.6,0.4-10.6,2.6c-1.6,3.4-1.5,9.4,0.5,12.5c4.9,7.5,11.2,14,17.3,20.6
	c1.5,1.6,4.4,2.6,6.6,2.4c1.2-0.1,2.3-3.2,3-5.1c0.6-1.9,0.6-3.9,0.9-5.9C456.5,903,443.8,882.2,438.5,881.2z"/>
<path opacity="0.1" fill="#FFFFFF" d="M688,256.6c4.2-4.8,6.9-11.8,12-14.8c9.9-5.7,24.8-1.5,32.9,6.9c1.4,1.5,4,2.9,5.7,2.7
	c1.2-0.2,2.5-3.3,2.8-5.3c0.5-3.9-1.2-9.9,0.7-11.4c7.4-5.7,7.5-13.8,9.2-21.5c2.3-10.4-2.6-15.5-13-12.2c-5.3,1.7-12.4,5.4-14,9.9
	c-4.8,13.1-15.7,13.6-26.2,16.6c-6.3,1.8-16.7,0.7-17.1,9.9c-0.7,14.5-8.8,21.9-19.8,28.8c-6.6,4.2-12,10.5-17.9,15.9
	c0.7,0.9,1.4,1.9,2,2.8c1.9-0.7,4-1.1,5.8-2.1c8.3-4.5,16.8-8.7,24.5-14C680.4,265.7,684.2,261,688,256.6z"/>
<path opacity="0.1" fill="#FFFFFF" d="M769.5,363.2l0.3-0.2c-0.1,0-0.2,0-0.3,0C769.5,363,769.5,363.1,769.5,363.2z"/>
<path opacity="0.1" fill="#FFFFFF" d="M770.6,348.9c-3.7-14.7,1.2-26.3,10.9-36.8c11.2,6.6,14.1,6,20.9-3.7c4.1,1,7.9,1.9,11.7,2.9
	c0-3.8,0-7.5,0-12.1c1.3-0.8,3.8-2.4,9.1-5.7c-7.7-3.8-13-8-18.9-9c-11.2-1.8-22.8-1.7-34.2-2.4c-6.1-0.4-8.8,2.2-8.9,8.6
	c-0.3,20.3-0.7,40.6-1.5,60.9c-0.3,7.4,2.3,11.4,9.8,11.4C770,358.2,771.7,353.2,770.6,348.9z"/>
<path opacity="0.1" fill="#FFFFFF" d="M708.4,314.3c4.7,0.2,9.6-4.8,15.2-8c0.8,3.3,1.7,7.4,2.7,11.7c11.9-6,13-17.1,12.8-27.9
	c0-2.6-5.8-6.5-9.4-7.3c-8.9-1.9-18.2-2.6-27.3-3.4C685.8,278,675,279,667,291.9c13,0.5,26.4-6.5,40.4,2
	c-12.5,6.8-28.1,0.4-36.6,16.4c9.6-2.5,17.2-4.4,22.7-5.8C699.5,308.7,703.8,314.2,708.4,314.3z"/>
<path opacity="0.1" fill="#FFFFFF" d="M756.1,387.4c-1.3,0.9-3.9-0.1-5.9-0.1c-10-0.3-19.5,0.8-26.8,9.2c12.6,0.9,24.5,1.8,36.4,2.7
	c0.1,1.2,0.3,2.4,0.4,3.6c-6.3,3-12.6,5.9-18.9,8.9c0.4,1.1,0.7,2.2,1.1,3.3c10,2.7,20.3,3,29.9-1.4c9.4-4.2,10.2-15.2,2.5-21.8
	C769.4,387,764.1,381.7,756.1,387.4z"/>
<path opacity="0.1" fill="#FFFFFF" d="M790.3,236.5c-0.2-1.8,0.3-4.3-0.7-5.4c-6.7-7.2-13.2-14.6-20.8-20.7
	c-3.7-2.9-7.5-0.5-7.4,5.4C761.7,228.6,775.2,238.8,790.3,236.5z"/>
<path opacity="0.1" fill="#FFFFFF" d="M747,366.7c-6.1-3.8-11.3-3.7-17.9,0.9c6.7,1.9,12.6,3,17.9,5.2c14.2,5.9,16.2,5.7,27.2-5.5
	c-1.6-1.4-3.2-2.8-4.8-4.2C762.3,371.6,756.8,372.7,747,366.7z"/>
<path opacity="0.1" fill="#FFFFFF" d="M769.5,363.2C769.5,363.2,769.6,363.2,769.5,363.2c0.1-0.1,0.2-0.1,0.3-0.2L769.5,363.2z"/>
</svg>
