<?xml version="1.0" encoding="utf-8"?>
<!-- Generator: Adobe Illustrator 16.2.1, SVG Export Plug-In . SVG Version: 6.00 Build 0)  -->
<!DOCTYPE svg PUBLIC "-//W3C//DTD SVG 1.1//EN" "http://www.w3.org/Graphics/SVG/1.1/DTD/svg11.dtd">
<svg version="1.1" id="Layer_1" xmlns="http://www.w3.org/2000/svg" xmlns:xlink="http://www.w3.org/1999/xlink" x="0px" y="0px"
	 width="100%" height="100%" viewBox="0 0 220.08 359.766" enable-background="new 0 0 220.08 359.766"
	 xml:space="preserve">
<path fill="#DDDDDD" d="M217.288,94.872c-0.945-0.117-1.883-0.309-2.811-0.525c-0.213-0.051-0.475-0.311-0.537-0.524
	c-0.715-2.521-1.487-5.029-2.059-7.583c-0.396-1.776-0.469-3.621-0.748-5.426c-0.664-4.286-1.377-8.564-2.048-12.85
	c-0.541-3.454-1-6.923-1.595-10.366c-0.271-1.563-0.78-3.084-1.186-4.623c-0.107-0.41-0.234-0.815-0.365-1.268
	c1.975-0.825,3.842-1.582,5.688-2.384c1.44-0.625,2.028-2.909,1.263-4.752c-0.58-1.396-2.689-2.234-4.184-1.606
	c-1.794,0.754-3.523,1.682-5.357,2.312c-1.216,0.417-2.559,0.577-3.853,0.627c-5.571,0.215-11.037-0.526-16.421-1.958
	c-0.748-0.199-1.24-0.506-1.221-1.33c0.072-2.979-0.143-6.004,0.312-8.924c0.451-2.894,1.811-5.564,3.534-8.009
	c1.44-2.044,2.933-4.091,4.039-6.316c0.635-1.28,0.553-2.917,0.782-4.395c0.131-0.848,0.145-1.725,0.373-2.543
	c0.287-1.038,0.414-1.97-0.152-2.989c-0.275-0.497-0.316-1.238-0.202-1.816c0.289-1.442-0.421-3.148-1.823-3.662
	c-0.93-0.339-1.474-0.893-1.973-1.732c-0.662-1.117-1.706-1.866-3.096-1.976c-0.264-0.021-0.517-0.166-0.774-0.254
	c-0.08,0-0.16,0-0.239,0c-0.254,0.298-0.671,0.888-0.736,0.851c-0.892-0.502-1.359,0.212-1.873,0.631
	c-1.146,0.933-2.239,1.929-3.352,2.901c-0.628,0.552-1.417,1.002-1.845,1.681c-1.229,1.956-2.337,3.992-3.448,6.02
	c-1.128,2.061-1.648,4.317-1.576,6.635c0.073,2.386,0.553,4.76,0.59,7.142c0.027,1.726,0.015,3.632-0.66,5.158
	c-2.105,4.771-3.834,9.73-6.827,14.099c-0.899,1.311-1.827,2.269-3.347,2.553c-0.401,0.075-0.948-0.112-1.297-0.363
	c-0.901-0.65-1.652-1.535-2.604-2.088c-2.171-1.261-4.327-2.579-6.982-0.87c-2.076,1.335-2.588,3.192-1.031,5.084
	c0.606,0.736,1.222,1.52,1.99,2.06c1.959,1.376,2.023,4.179,1.282,5.793c-0.629,1.374-1.138,1.566-2.481,0.837
	c-0.385-0.208-0.852-0.307-1.178-0.579c-1.324-1.108-2.531-0.706-3.796,0.13c-1.155,0.766-2.334,1.521-3.579,2.12
	c-1.17,0.564-1.945,1.533-1.967,2.839c-0.006,0.397-0.094,0.792-0.127,1.054c-1.4-0.179-2.623-0.491-3.838-0.459
	c-3.466,0.091-6.928,0.387-10.395,0.472c-1.951,0.049-3.862,0.005-5.744,0.738c-2.959,1.153-5.906,2.334-8.112,4.697
	c-0.945,1.013-1.797,1.139-2.924,0.596c-0.43-0.208-0.863-0.412-1.291-0.626c-1.879-0.941-2.221-2.793-2.078-4.49
	c0.106-1.265,0.873-2.577,2.26-3.278c2.287-1.158,4.044-2.762,4.229-5.559c0.039-0.589,0.36-1.175,0.335-1.753
	c-0.077-1.749,0.855-2.736,2.34-3.337c0.704-0.286,0.927-0.746,0.878-1.487c-0.114-1.728,0.012-3.403,0.869-5
	c0.314-0.582,0.352-1.414,0.256-2.096c-0.301-2.154-0.699-4.295-1.109-6.433c-0.207-1.086-0.32-2.262-0.837-3.198
	c-0.78-1.417-1.017-2.849-0.815-4.381c0.175-1.342-0.123-2.535-0.889-3.615c-1.083-1.529-2.162-3.065-3.315-4.54
	c-0.703-0.9-1.446-1.823-2.348-2.499c-1.254-0.94-2.634-1.739-4.034-2.453c-1.841-0.938-3.751-1.796-5.911-1.228
	c-1.149,0.303-2.254,0.718-3.365-0.162c-0.212-0.168-0.713-0.072-1.041,0.028c-1.061,0.327-2.08,0.855-3.16,1.048
	c-3.316,0.593-5.425,2.764-7.232,5.34c-0.589,0.843-1.137,1.483-2.316,1.243c-0.364-0.073-1.063,0.186-1.182,0.47
	c-0.39,0.939-0.733,1.947-0.824,2.952c-0.138,1.529-0.029,3.079-0.072,4.618c-0.012,0.383-0.09,0.867-0.33,1.121
	c-0.902,0.953-1.2,2.624-2.986,2.59c-0.179-0.003-0.474,0.322-0.532,0.543c-0.449,1.732-1.085,3.462-1.187,5.221
	c-0.072,1.218-0.398,1.994-1.268,2.756c-1.254,1.097-1.443,2.656-0.793,4.155c0.326,0.75,0.599,1.581,0.633,2.388
	c0.113,2.667,1.139,4.747,3.459,6.167c1.21,0.742,2.077,1.714,2.481,3.201c0.703,2.585,2.44,4.215,5.151,4.73
	c0.363,0.069,0.918,0.408,0.962,0.689c0.29,1.842,0.478,3.701,0.657,5.559c0.021,0.231-0.151,0.565-0.34,0.721
	c-2.075,1.708-3.937,3.955-7.139,2.959c-0.263-0.081-0.554-0.071-0.829-0.116c-2.078-0.339-3.98-0.34-5.099,1.958
	c-0.199,0.408-1.006,0.768-1.509,0.738c-1.579-0.09-2.612,0.79-3.687,1.701c-2.317,1.965-3.608,4.681-5.104,7.202
	c-2.487,4.194-3.917,8.704-3.246,13.711c0.141,1.062,0,2.277-0.392,3.272c-1.314,3.339-2.834,6.597-4.21,9.912
	c-0.793,1.909-1.407,3.894-2.199,5.804c-1.313,3.17-3.432,5.802-5.594,8.438c-4.642,5.661-6.276,12.668-8.066,19.505
	c-0.855,3.27-0.72,6.798-1.037,10.207c-0.49,5.259-1.321,10.43-3.704,15.234c-0.528,1.066-1.197,2.215-1.235,3.345
	c-0.132,3.979-0.173,7.975,0.068,11.944c0.124,2.049,0.916,4.057,1.435,6.199c-0.447-0.184-0.992-0.369-1.504-0.621
	c-1.715-0.846-3.366-1.162-4.98,0.267c-1.462,1.293-3.012,2.486-4.473,3.78c-1.328,1.175-0.778,3.831,0.893,4.257
	c0.748,0.191,1.566,0.14,2.353,0.134c1.83-0.009,3.613-0.837,5.504,0.104c1.91,0.951,3.954,1.66,5.987,2.331
	c1.133,0.374,1.483,0.896,0.974,1.971c-0.085,0.18-0.141,0.374-0.209,0.562c-3.999,11.016-7.987,22.033-12,33.044
	c-3.632,9.964-7.299,19.914-10.933,29.877c-1.786,4.896-3.56,9.799-5.29,14.715c-1.732,4.922-3.372,9.875-5.122,14.789
	C1.268,297.542,0.57,298.629,0,299.76c0,0.4,0,0.801,0.003,1.199c0.427,1.604,0.866,3.207,1.278,4.816
	c0.28,1.09,0.521,2.19,0.826,3.488c2.961-1.956,5.658-3.801,8.425-5.532c0.982-0.615,1.586-1.381,1.94-2.447
	c0.576-1.739,1.204-3.461,1.808-5.19c2.256-6.467,4.481-12.945,6.775-19.398c3.376-9.495,6.844-18.957,10.191-28.463
	c2.129-6.049,4.103-12.154,6.161-18.229c0.424-1.253,0.907-2.485,1.452-3.971c0.276,0.533,0.42,0.766,0.522,1.016
	c0.718,1.771,1.424,3.546,2.139,5.316c1.809,4.486,4.601,8.552,5.442,13.465c0.354,2.066,1.571,3.774,4.04,3.924
	c1.128,0.069,1.571,0.742,1.387,1.775c-0.37,2.089-0.478,4.145-0.272,6.287c0.268,2.786-1.495,4.863-3.173,6.854
	c-1.592,1.889-3.393,3.615-4.851,5.597c-1.396,1.896-2.045,4.166-1.484,6.538c0.353,1.493,1.086,2.893,1.532,4.371
	c0.573,1.895,1.036,3.824,1.529,5.743c0.057,0.226,0.059,0.495-0.009,0.716c-0.746,2.423-1.444,4.857-3.293,6.764
	c-0.767,0.791-1.432,1.704-2.017,2.641c-0.798,1.277-1.442,2.651-2.213,3.948c-1.028,1.728-0.77,3.807,0.393,5.476
	c1.157,1.66,2.851,3.052,3.019,5.294c0.02,0.266,0.197,0.519,0.295,0.78c0.858,2.293,3.989,2.134,5.467,0.833
	c0.508-0.447,1.105-0.883,1.737-1.082c1.092-0.344,2.236-0.561,3.375-0.698c0.341-0.041,0.963,0.281,1.068,0.576
	c0.871,2.429,2.939,3.33,5.097,4.109c0.378,0.137,0.869,0.106,1.271,0.009c2.357-0.574,4.697-1.214,7.057-1.768
	c0.443-0.105,1.103-0.102,1.412,0.154c2.356,1.963,5.175,2.97,7.975,4.029c2.709,1.027,5.546,1.827,7.48,4.22
	c1.803,2.235,4.087,3.169,6.939,2.634c0.062-0.013,0.14,0.062,0.273,0.128c0.092,0.465,0.232,0.966,0.283,1.476
	c0.334,3.297-0.535,6.354-2.106,9.188c-2.326,4.197-3.579,8.566-2.682,13.389c0.294,1.575,0.858,2.992,2.327,3.86
	c1.184,0.698,2.352,1.343,3.219,2.534c0.465,0.641,1.543,1.093,2.375,1.146c1.405,0.091,2.439,0.601,3.267,1.672
	c0.118,0.154,0.237,0.344,0.401,0.419c2.223,1.026,4.261-0.061,5.436-1.709c1.701-2.385,2.854-5.046,3.285-7.975
	c0.393-2.68,0.978-5.354,0.414-8.076c-0.6-2.902-1.223-5.8-1.865-8.694c-0.4-1.798-0.326-3.538,0.408-5.247
	c0.121-0.282,0.082-0.645,0.077-0.97c-0.009-0.646-0.095-1.293-0.05-1.933c0.021-0.287,0.354-0.541,0.419-0.838
	c0.456-2.066,1.449-2.903,3.508-2.902c2.305,0.001,5.734-2.322,6.627-4.45c0.887-2.11,1.811-4.204,2.746-6.371
	c0.448,0.638,0.911,1.421,1.495,2.099c1.087,1.262,2.281,2.433,3.364,3.699c0.976,1.145,1.57,2.438,1.617,4.021
	c0.074,2.586,0.211,5.17,2.246,7.199c1.236,1.234,2.354,2.596,3.445,3.964c1.357,1.7,2.889,3.158,4.872,4.113
	c1.695,0.816,2.968,0.122,3.202-1.814c0.041-0.344,0.006-0.696,0.006-1.045c0.084,0.088,0.169,0.177,0.253,0.265
	c0.968-0.535,2.13-0.885,2.851-1.652c0.846-0.896,1.511-2.092,1.881-3.274c0.482-1.54,0.508-3.218,0.9-4.793
	c0.377-1.518-0.146-2.747-0.914-3.934c-0.408-0.632-1.015-1.134-1.436-1.76c-0.635-0.945-1.176-1.956-1.781-2.922
	c-0.689-1.098-1.251-2.332-2.146-3.228c-1.385-1.391-2.873-2.617-3.897-4.376c-0.915-1.571-2.241-2.901-3.349-4.365
	c-0.778-1.028-1.239-2.086-0.414-3.382c0.369-0.582,0.523-1.338,0.646-2.037c0.65-3.703,1.438-7.396,1.829-11.128
	c0.294-2.798,0.269-5.67,0.017-8.477c-0.367-4.067-1.195-8.094-1.588-12.16c-0.334-3.488-0.34-7.008-0.465-10.515
	c-0.012-0.337,0.154-0.688,0.264-1.023c1.025-3.13,1.763-6.244-0.258-9.296c-0.166-0.252-0.194-0.593-0.287-0.893
	c0.088-0.065,0.175-0.13,0.263-0.195c1.124,0.664,2.312,1.243,3.36,2.011c2.166,1.587,4.267,1.416,6.477,0.114
	c0.9-0.532,1.943-0.815,2.896-1.264c0.494-0.23,0.916-0.61,1.4-0.86c1.209-0.623,2.438-1.21,3.684-1.825
	c0.418,0.252,0.949,0.81,1.547,0.896c2.613,0.377,5.049,0.134,6.851-2.21c1.252-1.629,2.376-3.25,2.726-5.36
	c0.229-1.388,0.826-2.711,1.201-4.078c0.305-1.109,0.922-2.323,0.711-3.35c-0.795-3.896-0.469-8.118-3.076-11.532
	c-0.094-0.12-0.14-0.288-0.17-0.44c-0.658-3.179-2.021-6.073-3.812-8.729c-1.412-2.091-2.395-4.507-4.684-5.977
	c-2.782-1.785-5.461-3.733-8.147-5.661c-3.007-2.156-4.536-4.925-3.546-8.748c0.479-1.846,0.811-3.732,1.175-5.607
	c0.271-1.385,0.722-2.787,0.681-4.17c-0.113-3.879-2.304-6.832-4.668-9.686c-0.748-0.904-1.338-1.948-1.944-2.961
	c-0.324-0.542-0.496-1.171-0.794-1.731c-1.354-2.549-2.117-5.298-2.075-8.144c0.055-3.738,0.25-7.494,0.723-11.2
	c0.642-5.029,2.298-9.738,5.21-13.977c1.348-1.965,2.844-3.961,3.604-6.173c1.446-4.204,2.477-8.557,3.518-12.888
	c0.181-0.753-0.161-2.049-0.727-2.479c-1.187-0.9-0.968-2.236-1.863-3.456c0.563,0.133,0.783,0.174,0.995,0.236
	c2.199,0.663,4.368,1.471,6.605,1.948c1.6,0.342,3.33,0.508,4.939,0.292c3.977-0.534,7.748-1.857,11.285-3.769
	c2.68-1.448,4.863-3.419,6.299-6.357c-0.93-0.473-1.761-1.148-2.682-1.306c-1.332-0.229-1.674-1.047-1.989-2.126
	c-1.099-3.742-2.269-7.462-3.363-11.205c-0.114-0.394,0.001-0.92,0.167-1.318c0.932-2.229,2.902-3.576,4.565-5.159
	c1.944-1.848,3.819-3.707,4.843-6.256c1.302-3.242,2.575-6.495,3.958-9.702c0.882-2.045,1.222-4.173,1.452-6.355
	c0.035-0.349,0.533-0.737,0.908-0.943c1.346-0.738,2.713-1.442,4.107-2.082c0.604-0.275,1.338-0.605,1.932-0.491
	c1.44,0.278,2.847,0.761,4.242,1.236c3.313,1.129,6.723,1.667,10.209,1.792c0.567,0.02,1.129,0.173,1.686,0.263
	c-1.752,5.605-3.438,11.033-5.145,16.453c-1.305,4.14-2.658,8.262-3.951,12.405c-1.045,3.345-2.179,6.672-2.996,10.073
	c-0.664,2.761-1.274,5.249-4.613,5.958c-1.895,0.402-1.719,1.449-0.635,2.793c0.693,0.857,1.574,1.61,2.49,2.232
	c4.073,2.766,8.58,4.248,13.482,4.893c4.303,0.564,8.161-0.494,11.885-2.333c1.326-0.655,2.59-1.637,3.569-2.744
	c1.438-1.629,2.599-3.505,3.877-5.276c0-0.08,0-0.16,0-0.24C219.687,95.287,218.543,95.027,217.288,94.872z M182.64,25.374
	c-0.168-0.023-0.338-0.048-0.507-0.071c0.2-1.863,0.399-3.728,0.601-5.593c0.078-0.063,0.156-0.128,0.233-0.191
	c0.233,0.432,0.714,0.9,0.654,1.288C183.386,22.342,182.981,23.853,182.64,25.374z M181.509,6.763
	c1.391-0.699,2.797-1.435,4.281-1.853c0.467-0.132,1.6,0.58,1.718,1.076c0.194,0.806-0.567,1.371-1.452,1.545
	c-1.277,0.252-2.548,0.532-3.979,0.833c-0.292-0.175-0.786-0.308-0.932-0.61C181.033,7.523,181.265,6.887,181.509,6.763z
	 M151.115,46.418c1.805-0.499,5.032,1.006,5.456,2.597c0.14,0.526-0.174,1.282-0.516,1.769c-0.113,0.158-1.009-0.12-1.476-0.346
	c-1.328-0.645-2.581-1.402-3.075-2.938C151.388,47.137,151.247,46.783,151.115,46.418z M160.181,77.716
	c-0.951,0.435-1.908,0.766-2.748,1.286c-0.826,0.511-1.531,1.214-2.287,1.834c-0.129-0.056-0.256-0.111-0.383-0.168
	c0.153-7.299,0.309-14.598,0.463-21.896c0.144,0.007,0.287,0.015,0.431,0.021C157.168,65.114,158.681,71.435,160.181,77.716z
	 M152.897,64.212c0.101,0.032,0.199,0.065,0.299,0.098c0,1.854,0.046,3.709-0.01,5.561c-0.08,2.625-0.242,5.248-0.356,7.873
	c-0.123,2.818-0.226,5.637-0.349,8.455c-0.099,2.259-0.18,4.52-0.36,6.773c-0.036,0.447-0.414,1.16-0.755,1.241
	c-1.529,0.361-3.102,0.537-4.782,0.801c0.38-1.101,0.694-2.123,1.906-2.441c1.198-0.315,1.892-0.927,2.01-2.29
	c0.153-1.77,0.563-3.518,0.842-5.279c0.054-0.341,0.009-0.696,0.009-1.384c-1.381,0.654-2.537,1.202-4.02,1.905
	C148.926,78.19,150.321,71.046,152.897,64.212z M115.017,69.575c-1.175,2.039-4.22,4.6-6.145,5.244
	C109.461,73.441,113.035,70.343,115.017,69.575z M108.313,78.283c-1.11,0.767-2.05,1.416-2.989,2.065
	C106.193,78.167,106.588,77.896,108.313,78.283z M110.817,43.3c-0.597-1.44-1.118-2.696-1.638-3.953
	c0.059-0.093,0.117-0.186,0.177-0.277c0.39,0.19,0.931,0.279,1.141,0.591C111.188,40.688,112.039,41.758,110.817,43.3z
	 M103.274,21.659c0.033,0.276,0.046,0.562,0.014,0.837c-0.119,0.99,0.116,1.754,1.048,2.319c0.278,0.168,0.264,0.815,0.383,1.245
	c-0.502,0.008-1.219,0.228-1.461-0.019c-0.591-0.602-1.091-1.371-1.395-2.162c-0.603-1.571-1.051-3.206-1.576-4.858
	C101.861,18.929,103.096,20.1,103.274,21.659z M80.709,23.445c0.612-0.182,1.182-0.59,1.698-0.989
	c1.665-1.291,3.282-2.644,4.95-3.934c0.593-0.46,1.025-0.295,1.562,0.341c0.602,0.713,1.522,1.158,2.306,1.716
	c0.288,0.205,0.571,0.424,0.882,0.586c0.306,0.159,0.645,0.251,0.969,0.373c0.09-0.119,0.181-0.237,0.272-0.355
	c-0.382-0.44-0.738-0.907-1.157-1.31c-0.188-0.18-0.515-0.207-0.754-0.346c-0.695-0.405-1.673-0.971-1.232-1.738
	c0.3-0.52,1.504-0.718,2.297-0.704c1.079,0.021,2.162,0.338,3.22,0.618c0.374,0.1,0.854,0.396,0.983,0.722
	c0.405,1.031,0.725,2.105,0.967,3.188c0.242,1.088-0.434,1.654-1.52,1.348c-0.882-0.249-1.74-0.596-2.635-0.782
	c-4.314-0.897-7.599,0.999-10.408,3.998c-0.657,0.701-1.108,1.042-2.103,0.542c-0.501-0.252-1.309,0.108-2.063,0.201
	C78.119,24.943,78.527,24.098,80.709,23.445z M76.402,75.593c0.104-0.323,0.493-0.586,0.8-0.811
	c2.102-1.545,4.227-3.058,6.311-4.625c0.238-0.179,0.396-0.64,0.375-0.955c-0.129-1.901-0.267-3.804-0.504-5.694
	c-0.336-2.673-0.74-5.337-1.156-7.999c-0.223-1.435-0.445-2.802-1.406-4.088c-1.272-1.699-1.836-3.726-1.316-5.965
	c0.26-1.119,0.172-2.318,0.24-3.482c-0.096-0.022-0.191-0.044-0.288-0.066c-0.188,0.418-0.377,0.836-0.565,1.254
	c-0.145-0.017-0.288-0.034-0.432-0.05c0.037-0.741,0.075-1.482,0.125-2.481c-0.331-0.318-0.657-0.146-1.186,0.386
	c-0.696,0.697-0.761,2.229-2.493,1.73c0.583,2.39-0.096,4.331-1.429,6.288c-0.278-0.413-0.553-0.763-0.762-1.148
	c-0.344-0.629-0.591-1.314-0.973-1.918c-0.995-1.565-1.049-1.973,0.053-3.404c0.207-0.269,0.818-0.226,1.524-0.393
	c-0.076-0.965-0.14-2.286-0.294-3.597c-0.16-1.341,0.294-2.097,1.48-2.658c0.507-0.242,0.975-0.73,1.273-1.222
	c0.975-1.605,1.96-3.026,3.811-3.926c1.388-0.677,2.447-2.113,3.53-3.321c2.735-3.051,6.052-4.66,10.118-3.642
	c1.931,0.483,4.213,0.75,5.324,2.943c0.083,0.165,0.641,0.227,0.913,0.136c1.945-0.642,1.939-0.657,2.977,1.084
	c0.101,0.17,0.179,0.407,0.331,0.479c1.278,0.606,2.579,1.164,3.854,1.775c0.455,0.217,1.008,0.444,1.259,0.834
	c0.628,0.974,1.11,2.044,1.651,3.074c-0.098,0.098-0.196,0.194-0.294,0.291c-0.493-0.19-1.042-0.299-1.465-0.591
	c-0.761-0.524-1.15-0.392-1.255,0.838c-0.462-0.536-0.751-0.873-1.041-1.209c-0.608-0.703-1.233-1.392-2.297-1.209
	c-1.794,0.31-3.204,1.255-4.391,2.555c0.047,0.141,0.096,0.282,0.143,0.425c0.66-0.186,1.314-0.385,1.977-0.551
	c0.98-0.245,1.959-0.531,2.955-0.646c0.246-0.029,0.712,0.488,0.82,0.834c0.873,2.78,1.527,5.598,1.252,8.556
	c-0.137,1.467-0.133,2.946-0.297,4.408c-0.097,0.857-0.299,1.732-0.629,2.525c-0.641,1.547-1.379,3.056-2.124,4.558
	c-1.915,3.863-4.769,6.715-8.887,8.214c-1.463,0.532-2.78,0.437-4.065-0.491c-1.732-1.25-3.509-2.439-5.562-3.589
	c0.17,0.403,0.24,0.906,0.527,1.192c1.097,1.092,2.3,2.079,3.397,3.172c1.262,1.259,2.448,2.594,3.677,3.886
	c0.789,0.83,1.612,1.628,2.391,2.469c0.617,0.667,1.255,1.331,1.771,2.074c1.155,1.661,1.715,1.865,3.604,1.26
	c2.309-0.741,4.646-1.37,7.252-1.441c-0.12,0.341-0.141,0.46-0.198,0.556c-1.497,2.441-3.02,4.866-4.478,7.329
	c-0.319,0.538-0.597,0.628-1.214,0.602c-2.77-0.12-5.571-0.391-8.311-0.113c-3.378,0.342-6.715,1.124-10.052,1.807
	c-2.053,0.42-4.081,0.981-6.106,1.531c-1.6,0.435-2.382-0.188-1.986-1.831C75.142,79.533,75.774,77.561,76.402,75.593z
	 M74.218,74.679c0.14,0.03,0.278,0.062,0.418,0.093c-0.109,0.723-0.12,1.478-0.347,2.16c-0.4,1.201-1.111,2.322-1.357,3.546
	c-0.258,1.281-0.089,2.645-0.179,3.968c-0.028,0.406-0.293,0.797-0.45,1.194c-0.369-0.271-1.05-0.536-1.055-0.814
	c-0.028-1.495,0.001-3.01,0.22-4.487C71.787,78.181,72.843,76.335,74.218,74.679z M39.524,214.91
	c-0.528,1.876-1.089,3.744-1.67,5.604c-1.435,4.596-2.844,9.199-4.344,13.774c-2.036,6.209-4.08,12.417-6.243,18.583
	c-2.349,6.696-4.843,13.34-7.267,20.01c-2.502,6.889-4.991,13.78-7.5,20.666c-0.995,2.732-2.029,5.45-3.045,8.176
	c-0.041,0.11-0.053,0.26-0.133,0.326c-1.891,1.584-3.787,3.163-5.692,4.73c-0.104,0.086-0.293,0.07-0.444,0.101
	c-0.543-2.317-1.15-4.58-1.565-6.878c-0.13-0.718,0.164-1.563,0.43-2.291c2.23-6.092,4.504-12.166,6.755-18.25
	c1.937-5.23,3.893-10.456,5.783-15.705c3.292-9.14,6.545-18.296,9.805-27.447c2.914-8.183,5.819-16.367,8.721-24.554
	c1.024-2.89,2.026-5.787,3.047-8.677c0.085-0.242,0.247-0.457,0.352-0.646c0.686,0.393,1.261,0.806,1.898,1.068
	c1.118,0.461,1.533,1.255,1.22,2.376c-0.679,2.435-0.113,4.82,0.151,7.228C39.847,213.691,39.688,214.327,39.524,214.91z
	 M39.663,201.922c-0.385-0.143-0.711-0.25-1.025-0.384c-3.496-1.487-6.999-2.957-10.481-4.477c-1.611-0.703-3.16-0.606-4.743,0.061
	c-0.541,0.228-1.131,0.413-1.709,0.45c-0.373,0.023-0.978-0.163-1.095-0.426c-0.134-0.302,0.028-0.931,0.288-1.175
	c1.187-1.119,2.398-2.232,3.726-3.171c0.416-0.294,1.238-0.12,1.845-0.008c0.609,0.116,1.184,0.419,1.771,0.646
	c1.032,0.398,2.08,0.762,3.09,1.211c2.038,0.907,4.066,1.838,6.076,2.805c1.102,0.53,2.159,1.153,3.349,1.796
	C40.361,200.218,40.034,201.02,39.663,201.922z M104.225,343.618c-0.541,3.085-1.133,6.167-1.889,9.205
	c-0.267,1.081-1.008,2.071-1.654,3.02c-0.458,0.672-1.125,1.154-2.055,0.694c-0.81-0.399-1.045-0.981-0.803-1.858
	c0.568-2.052,1.084-4.116,1.622-6.178c-0.101-0.092-0.2-0.185-0.3-0.277c-0.244,0.308-0.577,0.581-0.714,0.93
	c-0.705,1.778-1.353,3.579-2.033,5.367c-0.523,1.38-1.123,1.791-2.03,1.421c-0.874-0.357-1.171-1.535-0.671-2.611
	c0.784-1.688,1.15-3.468,1.109-5.328c-0.002-0.091-0.129-0.179-0.389-0.514c-0.275,0.704-0.494,1.247-0.703,1.793
	c-0.408,1.073-0.738,2.186-1.244,3.211c-0.325,0.661-0.908,1.137-1.762,0.595c-0.777-0.494-0.869-1.032-0.523-1.915
	c0.487-1.24,0.75-2.57,1.05-3.878c0.042-0.185-0.255-0.446-0.394-0.674c-0.249,0.162-0.644,0.274-0.72,0.495
	c-0.276,0.8-0.444,1.636-0.653,2.458c-0.16-0.004-0.319-0.008-0.479-0.012c-0.173-1.247-0.343-2.494-0.523-3.739
	c-0.269-1.853,0.684-3.373,1.332-4.98c0.477-1.178,0.891-2.381,1.334-3.571c0.195-0.522,0.277-1.139,0.611-1.547
	c1.166-1.423,1.252-3.146,1.538-4.826c0.063-0.368,0.145-0.887,0.399-1.042c1.309-0.8,2.656-1.545,4.033-2.223
	c0.637-0.312,1.022,0.075,1.184,0.744c0.632,2.62,1.178,5.271,1.978,7.84c0.425,1.369,1.034,2.892,2.045,3.814
	C104.114,341.121,104.465,342.252,104.225,343.618z M118.979,301.758c-0.787,0.202-1.649,0.721-2.349,0.554
	c-3.562-0.854-6.458-2.672-7.943-6.228c-0.102-0.245-0.165-0.508-0.245-0.762c0.07-0.095,0.141-0.19,0.211-0.285
	c0.45,0.271,0.973,0.467,1.339,0.825c2.34,2.301,4.635,4.653,8.146,5.079c0.186,0.021,0.359,0.159,0.539,0.244
	c0.105,0.05,0.211,0.102,0.315,0.153C118.989,301.479,118.983,301.618,118.979,301.758z M114.731,293.468
	c-2.476-0.833-4.829-2.036-7.21-3.13c-0.39-0.18-0.797-0.601-0.94-1.001c-1.192-3.353-1.891-6.812-2.018-10.375
	c-0.085-2.421-0.551-4.761-1.718-6.885c-0.377-0.685-1.091-1.335-1.806-1.65c-1.084-0.479-1.502-1.34-1.927-2.288
	c-1.042-2.328-2.056-4.67-3.165-6.966c-1.727-3.578-3.505-7.132-5.298-10.678c-1.22-2.411-2.811-4.686-3.677-7.212
	c-1.065-3.104-1.583-6.399-2.273-9.625c-0.726-3.387-1.503-6.771-2.02-10.192c-0.424-2.807-1.151-5.575-0.745-8.514
	c0.314-2.275,0.041-4.63,0.081-6.947c0.02-1.129,0.16-2.255,0.266-3.657c-2.256,5.504-2.842,10.974-2.457,16.532
	c0.158,2.31,0.82,4.582,1.256,6.871c0.623,3.287,1.336,6.56,1.842,9.865c0.367,2.398,0.391,4.845,0.693,7.255
	c0.411,3.279,1.427,6.382,3.146,9.218c1.73,2.855,3.322,5.826,5.348,8.458c1.502,1.951,1.81,3.99,1.815,6.24
	c0,0.332-0.09,0.664-0.146,1.053c-1.95-0.687-2.913-2.241-4.064-3.589c-0.283-0.331-0.507-0.789-0.867-0.969
	c-2.53-1.266-3.378-3.827-4.586-6.046c-1.592-2.926-2.925-5.993-4.354-9.008c-0.221-0.466-0.442-0.961-0.512-1.464
	c-0.293-2.101-1.094-3.996-2.25-5.745c-1.287-1.949-2.586-3.895-3.962-5.782c-0.435-0.596-1.132-1-1.837-1.6
	c0.831,3.38,1.514,6.502,2.391,9.567c0.387,1.357,1.049,2.672,1.793,3.878c1.03,1.667,2.137,3.265,2.354,5.284
	c0.029,0.271,0.148,0.542,0.271,0.79c1.437,2.867,2.858,5.742,4.345,8.582c0.28,0.535,0.915,0.874,1.235,1.396
	c0.349,0.572,0.728,1.247,0.74,1.885c0.045,2.525,1.664,3.644,3.717,4.415c0.304,0.113,0.74,0.136,1.025,0.004
	c1.169-0.539,1.691-0.092,2.113,1.028c1.525,4.049,4.394,7.188,7.193,10.363c0.87,0.988,1.826,1.901,2.679,2.989
	c-0.54-0.276-1.09-0.537-1.62-0.83c-1.881-1.039-3.797-2.025-5.615-3.164c-0.892-0.559-1.578-1.438-2.4-2.123
	c-1.223-1.017-2.4-2.126-3.744-2.955c-2.683-1.653-4.987-3.723-7.18-5.951c-1.541-1.563-3.133-3.077-4.701-4.613
	c-0.057-0.057-0.125-0.104-0.174-0.166c-1.672-2.17-3.356-4.332-5.01-6.518c-1.448-1.91-2.978-3.77-4.262-5.786
	c-2.446-3.837-4.754-7.762-7.092-11.666c-1.472-2.458-2.895-4.944-4.422-7.562c-0.37,1.481-0.319,2.506,0.609,3.614
	c2.381,2.845,3.414,6.388,5.137,9.57c1.687,3.116,3.193,6.332,4.732,9.525c0.71,1.472,1.214,3.05,1.99,4.484
	c0.755,1.396,1.78,2.646,2.6,4.011c0.305,0.509,0.35,1.171,0.543,1.754c0.123,0.37,0.228,0.78,0.463,1.073
	c1.924,2.392,3.723,4.906,5.865,7.087c1.734,1.766,3.825,3.208,5.875,4.626c2.025,1.401,4.168,2.643,6.317,3.852
	c0.996,0.561,2.157,0.818,3.195,1.315c2.553,1.223,5.09,2.48,7.599,3.792c0.328,0.171,0.578,0.707,0.652,1.113
	c0.227,1.245,0.352,2.51,0.555,4.062c-1.635,0.568-3.45,1.23-5.286,1.828c-1.812,0.589-3.673,1.037-5.46,1.686
	c-1.574,0.572-1.91,0.544-2.9-0.806c-2.308-3.147-4.636-6.281-6.946-9.427c-0.325-0.442-0.595-0.927-0.907-1.417
	c-0.738,0.085-1.151,0.285-0.883,1.218c0.237,0.825,0.207,1.727,0.321,2.59c0.222,1.677,0.947,3.068,2.271,4.165
	c0.509,0.421,0.986,0.951,1.295,1.53c0.73,1.37,1.377,2.787,1.998,4.211c0.197,0.453,0.352,1.01,0.277,1.479
	c-0.138,0.852,0.279,1.265,0.914,1.615c0.653,0.362,1.108,0.083,1.721-0.271c1.803-1.041,3.702-1.919,5.574-2.839
	c0.673-0.331,1.388-0.575,2.066-0.9c2.003-0.962,3.993-1.95,5.998-2.908c0.191-0.092,0.451-0.04,0.709-0.058
	c0.418,2.604,1.078,5.115,0.484,7.719c-0.053,0.226,0.137,0.62,0.338,0.775c3.013,2.318,6.395,2.928,10.064,2.079
	c0.596-0.139,1.172-0.36,2.08-0.644c-1.242,3.085-1.728,6.133-4.217,8.207c-0.842,0.701-1.827,1.362-2.767,0.801
	c-0.384-0.229-0.201-1.562-0.112-2.375c0.052-0.48,0.319-1.066,0.686-1.34c0.28-0.21,0.874,0.035,1.323,0.005
	c0.5-0.034,0.994-0.148,1.487-0.228c-0.489-2.02-1.667-2.327-3.335-1.157c-1.574,1.105-2.623,2.381-2.967,4.272
	c-0.048,0.271-0.419,0.647-0.688,0.691c-1.996,0.327-4.001,0.583-6.101,0.875c0-2.155-0.103-4.227,0.027-6.285
	c0.136-2.132,0.553-4.246,0.711-6.377c0.032-0.416-0.552-1.258-0.86-1.261c-3.855-0.046-7.614,0.44-11.01,2.475
	c-0.057,0.034-0.073,0.138-0.192,0.375c1.121,0,2.164,0,3.207,0c0.038,0.158,0.076,0.315,0.114,0.473
	c-1.878,0.604-3.755,1.212-5.632,1.816c0.029,0.167,0.059,0.334,0.088,0.501c1.259-0.11,2.539-0.11,3.771-0.355
	c2.325-0.463,4.588-0.208,6.851,0.266c0.552,2.751-0.178,3.615-2.981,5.313c-2.107,1.276-4.412,1.645-6.906,0.93
	c-2.481-0.711-5.01-1.399-7.836-0.704c0.726,0.402,1.424,0.869,2.182,1.192c1.168,0.498,2.436,0.781,3.555,1.36
	c3.018,1.562,6.051,1.25,9.128,0.308c0.253-0.077,0.512-0.142,0.815-0.224c0.54,2.472,0.898,4.936,2.695,6.836
	c-2.237,1.234-4.596,1.455-6.985,1.117c-2.513-0.354-3.9-2.359-5.38-4.122c-1.16-1.38-2.39-2.34-4.279-2.752
	c-4.119-0.897-7.053-3.271-8.664-7.394c-1.655-4.231-4.295-7.75-9.01-9.036c-1.9-0.519-3.458-1.523-4.5-3.165
	c-0.759-1.196-1.776-1.125-2.905-0.975c-1.207,0.159-2.429,0.246-3.622,0.479c-0.693,0.135-1.324,0.577-2.015,0.727
	c-0.748,0.164-1.566,0.314-2.296,0.174c-1.01-0.192-1.704,0.008-2.246,0.871c-0.504,0.804-0.091,1.366,0.344,2.043
	c1.167,1.815,2.736,3.193,4.405,4.521c0.985,0.784,1.914,0.87,2.979,0.396c1.128-0.5,2.216-1.107,3.374-1.516
	c0.656-0.231,1.482-0.369,2.124-0.181c1.958,0.574,4.901,4.06,3.911,6.486c-0.552,1.351-2.31,2.392-3.645,1.873
	c-0.381-0.146-0.647-0.592-0.965-0.9c0.33-0.24,0.64-0.517,0.996-0.706c0.215-0.115,0.502-0.1,0.948-0.176
	c-2.874-1.286-5.619-1.368-8.442-0.692c-1.151,0.275-2.332,0.435-3.508,0.579c-0.257,0.031-0.649-0.158-0.796-0.372
	c-0.121-0.175-0.048-0.578,0.074-0.808c0.33-0.624,0.731-1.211,1.149-1.886c-0.326-0.21-0.63-0.557-0.975-0.603
	c-1.907-0.25-2.95-1.673-4.038-2.972c-0.591-0.706-0.759-1.58-0.314-2.569c0.586-1.303,1.132-2.513,2.222-3.576
	c2.382-2.325,3.569-5.366,4.381-8.561c0.24-0.946,0.697-1.835,0.968-2.774c0.473-1.639,0.042-3.176-0.782-4.586
	c-1.195-2.048-2.012-4.208-2.441-6.546c-0.235-1.285,0.272-2.286,0.957-3.201c2.271-3.034,4.607-6.018,6.923-9.017
	c0.065-0.084,0.181-0.128,0.28-0.194c0.763,2.447-0.813,6.222-3.004,7.365c-0.877,0.457-1.714,1.004-2.516,1.583
	c-0.248,0.18-0.482,0.62-0.45,0.909c0.154,1.364,0.409,2.718,0.614,4.076c0.239,1.58,0.866,2.209,2.486,2.552
	c0.766,0.161,1.517,0.401,2.445,0.653c-0.437-0.492-0.839-0.842-1.11-1.273c-0.604-0.965-1.213-1.939-1.685-2.971
	c-0.365-0.799,0.016-1.471,0.769-1.901c0.207-0.118,0.431-0.206,0.649-0.304c1.444-0.651,2.558-1.562,2.902-3.239
	c0.164-0.798,0.555-1.55,0.844-2.322c0.119-0.024,0.238-0.052,0.357-0.078c0.187,0.459,0.558,0.932,0.527,1.373
	c-0.103,1.423-0.234,2.864-0.58,4.241c-0.459,1.826-0.156,2.685,1.541,3.503c0.214,0.102,0.475,0.374,0.488,0.581
	c0.122,2.088,0.238,4.179,0.268,6.271c0.014,1.06-0.497,1.542-1.702,1.629c-2.652,0.188-5.302,0.688-6.893,3.158
	c-0.577,0.896-0.747,2.049-1.135,3.071c-0.328,0.865-0.702,1.714-1.056,2.569c0.113,0.062,0.227,0.125,0.34,0.187
	c0.765-0.826,1.622-1.586,2.271-2.494c0.755-1.057,1.687-1.731,2.882-2.214c2.717-1.096,5.531-1.738,8.422-2.12
	c0.724-0.095,1.001,0.224,1.329,0.849c0.351,0.668,0.162,1.009-0.27,1.438c-0.713,0.712-1.833,1.161-1.804,2.382
	c0.015,0.618,0.065,1.504,0.456,1.8c1.412,1.07,2.97,1.951,4.484,2.886c0.731,0.451,1.599,0.739,2.211,1.308
	c2.431,2.265,3.903,5.205,5.435,8.084c1.007,1.891,2.475,3.297,4.163,4.559c1.097,0.819,2.207,1.485,3.615,1.511
	c0.494,0.008,0.986,0.046,1.479,0.069c0.006-0.109,0.014-0.22,0.021-0.328c-1.016-0.519-2.085-0.958-3.025-1.569
	c-0.883-0.576-1.686-1.299-2.445-2.04c-2.394-2.339-3.498-5.495-5.144-8.305c-1.536-2.624-3.387-4.828-6.321-5.938
	c-0.516-0.194-1.07-0.441-1.441-0.824c-0.256-0.264-0.453-0.97-0.29-1.192c1.361-1.856,0.49-3.589-0.419-5.124
	c-1.17-1.974-2.334-3.866-2.616-6.222c-0.345-2.89-0.947-5.755-0.295-8.671c0.073-0.329,0.214-0.646,0.333-0.996
	c1.686,1.14,1.478,2.868,1.706,4.444c0.387,2.673,0.755,5.349,1.217,8.009c0.2,1.151,0.991,1.934,2.005,2.541
	c0.406,0.242,0.684,0.749,0.945,1.181c0.735,1.212,1.184,2.604,2.553,3.38c0.332,0.188,0.435,0.874,0.539,1.354
	c0.273,1.264,0.202,2.514,1.395,3.575c1.328,1.181,2.131,2.934,3.384,4.222c0.817,0.842,1.968,1.46,3.083,1.876
	c0.755,0.282,0.709-0.569,0.545-1.031c-0.344-0.968-0.685-1.965-1.213-2.837c-2.682-4.428-5.386-8.842-8.161-13.211
	c-0.945-1.487-1.152-4.562-0.021-6.045c1.409,0.979,2.827,1.973,4.252,2.955c1.28,0.882,2.746,1.577,3.809,2.668
	c1.881,1.929,4.486,2.3,6.689,3.51c0.53,0.291,1.219,0.395,1.839,0.406c2.417,0.043,4.582,0.966,6.777,1.812
	c0.38,0.147,0.808,0.171,1.212,0.251c0.053-0.095,0.105-0.189,0.158-0.286c-0.294-0.264-0.547-0.607-0.887-0.779
	c-3.274-1.664-6.548-3.328-9.85-4.935c-3.032-1.474-5.908-3.131-8.303-5.578c-2.374-2.426-5.084-4.549-7.279-7.118
	c-3.052-3.572-5.787-7.419-8.609-11.183c-1.004-1.339-1.824-2.815-2.812-4.167c-0.999-1.367-1.157-2.875-0.524-4.307
	c0.539-1.221-0.009-2.074-0.707-2.629c-2.881-2.29-4.662-5.344-6.098-8.597c-1.284-2.91-2.213-5.975-3.448-8.909
	c-0.642-1.525-1.654-2.894-2.407-4.38c-0.314-0.62-0.388-1.36-0.577-2.047c-0.409-1.483-0.835-2.964-1.224-4.453
	c-0.111-0.424-0.117-0.875,0.095-1.308c1.532,2.784,3.174,5.513,4.57,8.364c2.044,4.173,3.366,8.626,4.714,13.063
	c0.214,0.706,0.637,1.374,1.074,1.979c1.113,1.542,2.43,2.954,3.407,4.573c1.627,2.697,3.008,5.544,4.584,8.273
	c0.73,1.264,1.677,2.403,2.538,3.59c0.047,0.064,0.217,0.038,0.588,0.092c-0.313-1.192-0.458-2.332-0.907-3.334
	c-1.072-2.394-2.125-4.822-3.484-7.054c-2.261-3.715-3.327-7.822-4.479-11.931c-0.947-3.373-1.989-6.724-3.097-10.047
	c-0.331-0.994-0.996-1.888-1.56-2.794c-1.071-1.723-2.254-3.379-3.259-5.138c-2.091-3.655-2.597-7.7-2.936-11.83
	c-0.275-3.348,0.456-6.559,0.932-9.787c0.268-1.815,1.469-3.488,2.202-5.245c0.386-0.927,0.762-1.874,0.972-2.85
	c0.214-0.985,0.218-2.018,0.454-3.045c1.644,5.453,2.833,11.057,6.262,15.715c0.19-0.058,0.38-0.115,0.57-0.173
	c-0.343-1.714-0.614-3.447-1.041-5.14c-1.16-4.588-2.435-9.146-3.561-13.742c-0.52-2.125-0.25-4.263,0.297-6.394
	c0.584-2.272,2.074-3.948,3.482-5.666c1.125-1.371,2.516-2.522,3.667-3.875c0.701-0.822,1.289-1.721,0.964-3.026
	c-0.529-2.116-0.823-4.291-1.221-6.44c-0.346-1.863-0.832-3.714-1.018-5.593c-0.304-3.074-0.215-6.139,1.272-8.98
	c0.166-0.318,0.293-0.675,0.523-0.938c0.903-1.032,1.682-2.063,1.172-3.58c-0.09-0.271,0.12-0.882,0.348-0.984
	c1.979-0.879,3.933-1.977,6.018-2.396c1.407-0.284,3.099,0.2,4.508,0.744c1.39,0.537,2.64,0.78,4.019,0.228
	c0.033-1.137-1.771-2.191-5.33-3.115c-1.92-0.497-3.571-0.19-4.043,0.714c-1.127-0.061-2.275-0.33-3.326-0.118
	c-0.994,0.2-1.885,0.904-2.971,1.466c-0.347-1.411-0.553-2.933,0.164-4.277c0.891-1.667,1.949-3.28,3.162-4.728
	c1.249-1.488,2.85-2.675,4.146-4.128c1.153-1.292,1.753-2.775,1.643-4.682c-0.2-3.472-2.443-5.697-4.368-8.157
	c-1.817-2.322-2.179-4.979-2.155-7.849c0.032-3.739,1.853-6.776,3.493-9.884c1.264-2.396,2.251-4.794,2.145-7.572
	c-0.052-1.359,0.145-2.729,0.229-4.094c-0.172-0.041-0.344-0.082-0.516-0.123c-0.186,0.499-0.356,1.005-0.558,1.497
	c-0.448,1.089-0.673,2.389-1.419,3.213c-1.861,2.054-2.992,4.391-3.651,7.036c-0.178,0.714-0.553,1.408-0.961,2.029
	c-1.494,2.268-2.001,4.84-2.354,7.454c-0.504,3.749,0.655,7.088,2.852,10.042c1.641,2.204,2.35,4.776,3.321,7.256
	c0.107,0.271,0.063,0.65-0.031,0.94c-0.598,1.835-1.591,3.468-3.295,4.395c-3.159,1.718-4.405,4.59-5.005,7.854
	c-0.444,2.418-0.424,4.846,0.601,7.176c0.102,0.233-0.03,0.614-0.14,0.892c-0.294,0.741-0.54,1.527-0.976,2.18
	c-1.644,2.465-1.752,5.249-1.677,8.036c0.034,1.247-0.309,2.243-0.983,3.227c-2.8,4.083-5.458,8.271-8.403,12.246
	c-2.815,3.802-2.356,7.661-0.846,11.678c0.122,0.322,0.427,0.572,0.615,0.876c0.161,0.262,0.275,0.552,0.521,1.056
	c-1.57-0.23-3.017,0.259-4.164-1.136c-0.524-0.636-1.459-0.936-2.347-1.236c1.075,1.77,2.417,3.301,2.429,5.493
	c0.012,2.297-1.418,3.615-2.988,4.826c0.645,0.907,1.276,1.796,2.061,2.899c0.128-0.075,0.527-0.26,0.863-0.522
	c1.047-0.821,2.209-1.33,3.538-1.068c0.497,0.1,0.923,0.562,1.435,0.895c-1.937,1.646-3.646,3.131-5.403,4.557
	c-0.247,0.202-0.758,0.228-1.098,0.141c-2.419-0.61-4.399-1.818-5.583-4.138c-1.131-2.218-2.135-4.466-2.087-7.021
	c0.04-2.113,0.22-4.229,0.174-6.338c-0.035-1.571,0.502-2.828,1.166-4.233c1.159-2.455,1.977-5.109,2.628-7.756
	c0.654-2.658,0.998-5.399,1.352-8.12c0.304-2.33,0.566-4.682,0.598-7.027c0.036-2.597,0.797-5.02,1.314-7.512
	c0.808-3.898,2.418-7.502,4.09-11.05c1.041-2.208,2.466-4.324,4.093-6.147c2.882-3.229,4.563-7.055,6.163-10.956
	c1.284-3.132,2.648-6.243,3.701-9.453c0.758-2.316,1.111-4.772,1.562-7.183c0.402-2.15,0.397-4.424,1.105-6.457
	c0.855-2.449,2.236-4.721,3.461-7.032c0.611-1.151,1.377-2.222,2.08-3.323c0.709-1.109,1.55-2.015,2.984-2.15
	c0.75-0.071,1.516-0.186,2.225-0.428c1.039-0.356,2.171-0.659,2.524-1.947c0.081-0.295,0.232-0.571,0.35-0.856
	c0.163,0.137,0.325,0.271,0.489,0.407c-0.168,0.416-0.288,0.859-0.509,1.244c-1.421,2.487-2.169,5.215-2.7,7.985
	c-0.202,1.056-0.007,2.236,0.223,3.314c0.264,1.228,2.258,1.971,3.641,1.346c1.516-0.683,2.952-1.538,4.424-2.315
	c1.267-0.669,2.513-1.385,3.812-1.985c1.354-0.625,2.744-0.471,4.209-0.232c1.498,0.244,3.069,0.018,4.609,0.034
	c2.062,0.021,4.124,0.067,6.186,0.126c0.977,0.027,1.953,0.106,2.93,0.162c0.045-0.12,0.091-0.242,0.137-0.364
	c-0.307-0.219-0.59-0.576-0.924-0.632c-1.754-0.292-3.527-0.471-5.279-0.771c-0.694-0.119-1.349-0.451-2.017-0.955
	c0.556-0.129,1.114-0.384,1.665-0.364c2.664,0.096,5.328,0.241,7.986,0.446c0.231,0.018,0.55,0.58,0.588,0.916
	c0.041,0.363-0.256,0.751-0.301,1.141c-0.059,0.51-0.014,1.029-0.014,1.546c0.701-0.091,1.593,0.061,2.068-0.315
	c1.404-1.111,2.63-2.444,3.951-3.661c0.813-0.748,1.672-1.442,2.646-2.276c-0.165-0.271-0.4-0.658-0.766-1.264
	c0.619-0.368,1.197-0.863,1.866-1.08c2.41-0.781,4.23-2.382,5.822-4.222c0.896-1.037,1.536-2.312,2.202-3.529
	c0.876-1.604,1.987-2.607,3.995-2.389c1.41,0.154,2.851,0.03,4.277,0.03c0.041,0.102,0.082,0.202,0.123,0.305
	c-0.484,0.253-0.945,0.566-1.455,0.75c-2.177,0.779-4.185,1.833-5.604,3.71c-0.708,0.936-1.264,2-1.784,3.058
	c-0.121,0.245,0.185,0.699,0.294,1.058c0.305-0.121,0.732-0.15,0.895-0.374c2.791-3.862,6.893-5.653,11.199-7.111
	c1.953-0.662,3.938-1.239,6.096-1.913c-0.105,1.348-0.469,2.423-1.289,3.316c-0.701,0.764-1.432,1.504-2.178,2.225
	c-2.182,2.108-4.375,4.203-6.662,6.396c-0.231-0.399-0.549-0.95-0.963-1.663c-0.351,0.307-0.738,0.555-1.006,0.896
	c-1.793,2.297-3.33,4.729-4.324,7.506c-0.224,0.621-1.103,1.235-1.791,1.41c-1.129,0.286-1.845,0.715-2.059,1.923
	c-0.604,3.409-0.986,6.904-2.99,9.877c-1.271,1.884-2.619,3.719-4.016,5.511c-0.329,0.424-0.988,0.592-1.634,0.956
	c0.117,0.236,0.187,0.638,0.424,0.816c2.711,2.045,3.008,4.991,2.94,8.016c-0.061,2.71-0.5,5.421-0.418,8.12
	c0.152,4.954,0.703,9.867,3.058,14.381c0.144,0.275,0.002,0.699-0.007,1.056c-0.314-0.077-0.689-0.068-0.932-0.243
	c-1.755-1.27-3.6-1.586-5.664-0.807c-0.218,0.081-0.983-0.549-1.043-0.921c-0.243-1.517-1.238-2.542-2.701-2.143
	c-2.334,0.639-4.461,0.353-6.582-0.69c-2.182-1.073-4.137-0.298-5.854,1.038c-1.894,1.472-3.98,1.6-6.188,1.295
	c-1.227-0.17-2.083-0.933-2.664-1.972c-0.475-0.852-0.817-0.698-1.413-0.079c-1.014,1.057-2.16,1.984-3.215,3.004
	c-1.49,1.439-3.051,2.827-4.376,4.409c-0.616,0.736-0.818,1.859-1.09,2.838c-0.606,2.185-1.167,4.384-1.688,6.591
	c-0.243,1.032-0.393,2.094-0.504,3.15c-0.117,1.108-0.166,2.226-0.189,3.339c-0.012,0.537,0.105,1.077,0.164,1.616
	c0.125,0.027,0.25,0.054,0.374,0.081c0.47-1.346,1.024-2.67,1.397-4.043c1.082-3.981,1.345-8.209,3.363-11.903
	c0.633-1.157,1.618-2.208,2.657-3.036c1.478-1.181,3.336-1.908,3.962-3.665c1.583,0.748,3.056,1.442,4.521,2.134
	c-0.873,0.962-1.828,1.963-2.727,3.012c-2.238,2.61-3.396,5.712-4.216,9.01c-0.673,2.703-1.665,5.326-2.364,8.024
	c-0.448,1.727-0.65,3.52-0.895,5.293c-0.064,0.466,0.116,0.966,0.462,1.51c0.472-0.906,1.051-1.771,1.399-2.724
	c1.523-4.181,3.069-8.356,4.433-12.588c1.274-3.95,3.199-7.5,6.015-10.517c0.509-0.545,1.652-0.495,2.5-0.726
	c0.726-0.197,1.449-0.401,2.17-0.611c0.382-0.11,0.759-0.349,1.135-0.344c1.337,0.019,2.672,0.137,4.008,0.182
	c0.797,0.027,1.184,0.473,1.228,1.19c0.094,1.542,0.077,3.09,0.197,4.629c0.264,3.37-1.107,6.394-1.952,9.527
	c-1.059,3.922-2.858,7.514-4.965,10.968c-0.367,0.601-0.589,1.305-0.781,1.988c-0.064,0.229,0.1,0.667,0.292,0.778
	c0.174,0.101,0.614-0.028,0.794-0.204c1.746-1.697,3.334-3.447,4.055-5.926c0.956-3.282,2.97-5.934,5.65-8.082
	c1.61-1.291,1.843-3.148,1.563-4.985c-0.479-3.131-1.167-6.229-1.769-9.346c2.007-0.279,3.115,0.405,3.654,2.653
	c0.527,2.198,0.711,4.477,1.088,6.713c0.449,2.665-1.025,4.505-2.564,6.385c-2.571,3.141-5.148,6.282-7.551,9.549
	c-2.809,3.818-5.434,7.771-8.134,11.668c-0.179,0.257-0.316,0.542-0.472,0.813c0.082,0.086,0.163,0.173,0.245,0.26
	c1.054-0.976,2.223-1.855,3.13-2.953c1.164-1.406,1.988-3.103,3.197-4.463c1.205-1.354,2.748-2.401,4.065-3.665
	c2.055-1.97,4.049-4.004,6.063-6.019c1.055-1.057,2.127-2.098,3.133-3.198c1.216-1.331,0.939-2.977,0.818-4.566
	c-0.118-1.547-0.251-3.095-0.422-4.637c-0.164-1.496-0.403-2.982-0.574-4.478c-0.096-0.841-0.119-1.689-0.176-2.533
	c0.166-0.052,0.33-0.104,0.496-0.156c1.156,2.104,2.439,4.151,3.438,6.327c1.58,3.44,1.242,7.05-0.262,10.328
	c-1.395,3.041-3.047,6.024-5.866,8.19c-1.424,1.095-2.453,2.702-3.462,3.852c0.429-0.288,1.188-0.754,1.898-1.283
	c2.026-1.51,4.117-2.948,6.02-4.6c1.679-1.457,3.176-3.134,4.675-4.783c0.457-0.504,0.673-1.235,0.964-1.879
	c0.188-0.418,0.313-0.865,0.466-1.299c0.104-0.01,0.21-0.019,0.314-0.027c0.121,0.375,0.379,0.766,0.338,1.122
	c-0.236,2.045-0.393,4.118-0.876,6.109c-0.366,1.512-1.835,2.265-3.073,3.061c-2.014,1.296-4.011,2.638-6.126,3.749
	c-2.672,1.404-5.458,2.594-8.192,3.881c-0.361,0.17-0.706,0.373-1.066,0.544c-1.395,0.659-2.793,1.308-4.186,1.969
	c-0.246,0.116-0.469,0.28-0.701,0.423c0.035,0.092,0.07,0.186,0.104,0.279c1.393-0.142,2.783-0.346,4.179-0.411
	c2.613-0.122,5.233-0.103,7.842-0.263c1.608-0.098,3.206-0.386,4.797-0.66c0.846-0.146,1.65-0.38,2.217,0.531
	c0.774,1.242,1.644,2.434,2.306,3.733c1.838,3.601,2.12,7.537,2.375,11.486c0.164,2.544,0.539,5.074,0.766,7.615
	c0.121,1.341,0.082,2.695,0.201,4.037c0.076,0.864,0.241,1.738,0.514,2.558c0.102,0.308,0.623,0.475,0.955,0.705
	c0.158-0.32,0.414-0.629,0.464-0.966c0.351-2.394,0.562-4.794,0.133-7.206c-0.022-0.127,0.08-0.276,0.253-0.431
	c0.641,1.391,1.309,2.772,1.145,4.352c-0.336,3.212-0.633,6.434-1.119,9.623c-0.367,2.416-0.537,4.917-1.881,7.087
	c-0.1,0.164-0.219,0.317-0.367,0.528c-1.482-2.181-2.75-4.451-4.416-6.377c-1.625-1.879-3.308-3.887-5.896-4.561
	c-0.101,0.092-0.2,0.184-0.3,0.275c0.346,0.426,0.631,0.923,1.045,1.267c4.004,3.339,6.334,7.727,7.894,12.582
	c0.188,0.583,0.025,1.276,0.025,2.237c-0.497-0.379-0.656-0.447-0.736-0.569c-1.174-1.794-2.301-3.619-3.511-5.39
	c-1.502-2.198-2.945-4.455-4.639-6.498c-2.635-3.178-6.104-5.24-9.964-6.625c-0.747-0.267-1.584-0.289-2.417-0.203
	c2.009,1.345,4.028,2.672,6.024,4.033c3.949,2.694,6.82,6.334,9.062,10.494c1.674,3.105,3.19,6.301,4.946,9.359
	c0.631,1.099,1.726,1.942,2.662,2.851c3.219,3.124,6.828,5.976,7.387,11.195c-0.34-0.516-0.534-0.842-0.758-1.146
	c-0.939-1.28-1.744-2.699-2.862-3.799c-2.173-2.137-4.522-4.094-6.802-6.124c-1.098-0.977-2.396-1.322-3.986-1.284
	c0.127,0.518,0.107,1.024,0.348,1.318c1.325,1.626,2.584,3.34,4.111,4.76c2.488,2.312,4.546,4.947,5.079,8.267
	c0.325,2.032-0.069,4.32-0.673,6.332c-1.225,4.073-2.819,8.034-4.245,12.049c-0.36,1.01-0.683,2.034-0.97,3.067
	c-0.071,0.259,0.062,0.574,0.103,0.863c0.265-0.104,0.544-0.178,0.787-0.318c0.364-0.209,0.7-0.464,1.146-0.765
	c0,0.898,0,1.619,0,2.395c-2.223,1.191-4.395,1.572-6.759,0.146c-1.656-0.998-3.498-1.692-5.271-2.492
	c-2.068-0.933-2.859-2.803-3.462-4.765c-0.408-1.326-0.744-2.697-0.896-4.072c-0.125-1.131,0.086-2.297,0.106-3.448
	c0.007-0.449-0.102-0.897-0.158-1.348c-0.13-0.013-0.259-0.026-0.388-0.039c-0.391,1.624-1.096,3.247-1.099,4.872
	c-0.004,2.363,0.409,4.743,0.813,7.087c0.317,1.826,1.603,3.073,3.096,4.068c2.116,1.41,4.174,2.943,6.413,4.128
	c2.409,1.274,4.915,2.4,6.737,4.464c1.406,1.591,2.822,3.288,3.718,5.181c0.973,2.061-1.558,5.551-3.854,5.796
	c-0.593,0.063-1.191,0.224-1.777,0.188c-0.512-0.031-1.096-0.156-1.502-0.446c-1.41-1.003-2.754-2.097-4.11-3.146
	c0.364,1.482,1.14,2.803,2.531,3.729c0.598,0.398,1.274,0.698,1.82,1.157c2.924,2.463,5.106,1.245,7.391-0.728
	c1.025-0.885,1.539-2.364,2.277-3.581c1.645-2.709,3.051-5.595,5.895-7.358c0.648-0.404,1.158-1.033,1.777-1.599
	c0.033,0.15,0.127,0.359,0.121,0.565c-0.08,2.972,0.172,5.928-0.922,8.861c-0.715,1.919-1.129,3.922-2.191,5.748
	C123.794,293.827,119.519,295.079,114.731,293.468z M42.512,183.911c-0.638-0.466-0.652-1.109-0.106-1.752
	c0.518-0.61,1.068-0.721,1.776-0.343c1.871,1.001,2.121,1.668,1.209,3.86C44.363,185.056,43.39,184.549,42.512,183.911z
	 M43.088,186.11c-0.03,0.14-0.06,0.279-0.09,0.419c-1.021,0.198-2.042,0.396-3.063,0.594c-0.097-0.073-0.194-0.146-0.29-0.219
	c0.454-0.494,0.85-1.303,1.376-1.4C41.651,185.386,42.394,185.881,43.088,186.11z M48.213,170.921
	c0.394-0.227,1.145,0.167,1.646,0.263c-0.918,2.027-1.753,3.876-2.613,5.776c-1.633-0.971-1.516-2.661-1.283-4.001
	C46.103,172.156,47.33,171.43,48.213,170.921z M47.797,167.208c1.068-3.663,3.275-6.923,5.557-10.265
	c0.222,0.201,0.366,0.266,0.386,0.358c0.522,2.52,1.059,5.035,1.53,7.563c0.218,1.167-0.242,2.066-1.271,2.733
	c-0.724,0.469-1.348,1.091-1.81,1.474C50.616,168.405,49.259,167.829,47.797,167.208z M47.176,180.093
	c-0.087,0.648-0.148,1.104-0.21,1.561c-0.597-0.172-1.193-0.344-1.79-0.515c0.025-0.177,0.05-0.354,0.075-0.53
	C45.799,180.462,46.347,180.315,47.176,180.093z M41.376,193.691c1.908-1.925,1.908-1.925,3.257-1.143
	C43.921,194.436,42.8,194.856,41.376,193.691z M120.97,157.068c-0.029-0.984,0.151-1.975,0.51-3.041
	c0.49,1.626,1.065,3.23,1.449,4.882c0.59,2.55,1.047,5.131,1.562,7.699c0.039,0.194,0.042,0.436,0.158,0.568
	c1.031,1.17,0.99,2.499,0.715,3.916c-0.321,1.644,0.049,3.444-1.434,4.862c0.077-1.34,0.194-2.678,0.221-4.016
	c0.015-0.902,0.004-1.827-0.182-2.702c-0.254-1.196-0.675-2.358-1.044-3.528c-0.131-0.417-0.212-0.921-0.495-1.206
	C120.272,162.34,121.048,159.615,120.97,157.068z M134.424,311.844c1.569,1.187,2.636,3.037,3.921,4.599
	c0.514,0.626,1.039,1.247,1.524,1.896c0.666,0.892,1.435,1.746,1.89,2.739c0.227,0.495-0.142,1.262-0.242,1.907
	c-0.492-0.151-0.981-0.31-1.476-0.451c-0.415-0.119-0.835-0.22-1.253-0.328c0.076,0.428,0.02,0.962,0.259,1.259
	c0.386,0.48,0.931,0.861,1.47,1.181c1.474,0.871,1.571,1.307,0.482,2.876c-1.176-0.781-2.355-1.564-3.576-2.376
	c-0.744,0.853-0.554,1.541,0.073,2.076c0.692,0.591,1.511,1.03,2.229,1.595c0.352,0.274,0.6,0.682,0.894,1.031
	c-0.272,0.205-0.538,0.566-0.818,0.58c-0.452,0.02-1.057-0.049-1.347-0.332c-0.91-0.891-1.689-1.912-2.549-2.855
	c-0.286-0.314-0.663-0.547-0.999-0.818c-0.113,0.046-0.228,0.092-0.341,0.138c0.117,0.459,0.147,0.963,0.363,1.369
	c0.709,1.338,1.522,2.621,2.211,3.97c0.186,0.363,0.071,0.878,0.094,1.323c-0.404-0.056-0.83-0.051-1.209-0.183
	c-0.404-0.141-0.836-0.339-1.133-0.635c-1.666-1.652-3.361-3.281-4.92-5.031c-2.113-2.374-2.805-5.363-3.052-8.407
	c-0.202-2.489-1.435-4.262-3.259-5.721c-1.516-1.21-2.549-2.725-3.189-4.521c-0.27-0.758,0.133-1.124,0.866-1.397
	c2.492-0.93,5.085-0.933,7.675-0.911c0.332,0.003,0.813,0.478,0.963,0.841C130.862,309.397,132.664,310.516,134.424,311.844z
	 M144.08,238.866c-1.704,0.039-2.981,0.794-3.821,2.273c-0.39,0.687-0.779,0.852-1.351,0.168c-2.359-2.817-4.759-5.6-7.093-8.437
	c-1.135-1.381-1.486-5.553-0.651-6.965c1.099,1.774,2.163,3.533,3.267,5.27c0.836,1.314,1.87,2.402,3.516,2.655
	c0.818,0.125,1.625,0.263,1.738-0.971c0.024-0.278,0.404-0.524,0.565-0.718c1.472,2.202,2.896,4.337,4.367,6.538
	C144.358,238.772,144.222,238.862,144.08,238.866z M134.666,181.865c0.989,1.075,0.769,2.5,0.712,3.871
	c-0.055,1.366,0.038,2.753,0.214,4.112c0.353,2.719,1.642,5.085,3.302,7.175c1.149,1.446,2.588,2.71,4.059,3.846
	c3.107,2.399,4.992,5.633,6.65,9.071c0.465,0.964,1.105,1.841,1.602,2.792c0.245,0.469,0.576,1.065,0.473,1.515
	c-0.607,2.671-1.277,5.331-2.033,7.965c-0.785,2.739-3.084,4.299-5.057,6.077c-0.727,0.655-1.801-0.038-1.881-1.118
	c-0.074-0.988-0.135-1.98-0.248-2.966c-0.312-2.707-1.923-3.943-4.607-3.562c-0.259,0.037-0.517,0.088-0.775,0.132
	c-0.053-0.102-0.105-0.2-0.159-0.301c0.601-0.384,1.183-0.794,1.799-1.146c2.067-1.178,4.32-2.093,5.892-3.977
	c0.295-0.353,0.486-1.037,0.357-1.456c-0.859-2.813-1.816-5.597-2.754-8.385c-0.126-0.375-0.236-0.829-0.509-1.069
	c-1.709-1.498-3.382-3.072-5.597-3.789c-0.129,0.101-0.256,0.201-0.385,0.302c0.405,0.648,0.707,1.4,1.235,1.923
	c1.876,1.855,2.344,4.33,2.882,6.705c0.176,0.782-0.624,1.785-0.977,2.687c-0.12,0-0.239-0.001-0.358-0.001
	c-0.178-0.362-0.378-0.716-0.532-1.087c-1.307-3.165-2.613-6.331-3.906-9.503c-0.332-0.815-0.983-0.898-1.68-0.71
	c-0.958,0.261-1.906,0.578-2.828,0.945c-0.847,0.336-1.219,0.086-1.228-0.793c-0.009-0.96,0.03-1.922-0.024-2.878
	c-0.224-3.845-0.022-7.614,1.362-11.283c0.329-0.871,0.051-1.97,0.051-2.964c0-2.173,0-4.348,0-6.521
	c0.104-0.049,0.212-0.099,0.316-0.148C131.585,178.831,133.203,180.277,134.666,181.865z M135.399,112.758
	c0.145,0.009,0.289,0.018,0.433,0.025c0.128-0.992,0.239-1.986,0.386-2.975c0.605-4.084,1.229-8.162,1.02-12.318
	c-0.047-0.938,0.166-1.889,0.259-2.834c0.099-0.008,0.194-0.015,0.292-0.023c0.082,0.621,0.242,1.244,0.23,1.865
	c-0.027,1.64,0.385,3.125,1.155,4.577c0.271,0.51,0.247,1.313,0.07,1.896c-0.388,1.271-0.327,2.403,0.696,3.29
	c0.974,0.843,1.142,1.591,0.58,2.858c-2.86,6.45-5.567,12.966-8.362,19.445c-1.53,3.548-3.127,7.067-4.697,10.598
	c-0.063,0.143-0.168,0.266-0.312,0.486c-0.543-0.906-1.178-0.676-1.676-0.086c-0.529,0.629-0.927,1.369-1.387,2.058
	c-0.186,0.28-0.383,0.554-0.574,0.831c-0.138-0.046-0.273-0.091-0.41-0.136c0.293-1.188,0.445-2.434,0.912-3.548
	c0.715-1.713,1.637-3.342,2.487-4.997c2.515-4.894,4.171-9.992,3.787-15.589c-0.044-0.638-0.048-1.277-0.106-1.912
	c-0.02-0.21-0.147-0.41-0.434-0.623c-0.383,2.418-0.486,4.926-1.225,7.23c-0.743,2.322-2.094,4.454-3.221,6.647
	c-1.121,2.184-2.291,4.342-4.688,5.581c-0.023-0.212-0.088-0.363-0.04-0.419c2.098-2.458,3.269-5.443,4.583-8.319
	c0.732-1.604,1.017-3.417,1.494-5.138c0.668-2.415,1.451-4.81,1.951-7.259c0.369-1.811,0.361-3.697,0.53-5.551
	c0.108-1.198,0.284-2.394,0.335-3.595c0.059-1.432,0.014-2.869,0.014-4.305c-0.146-0.023-0.291-0.046-0.436-0.069
	c-0.169,0.184-0.392,0.342-0.498,0.557c-0.744,1.489-1.154,2.952-1.186,4.736c-0.051,2.915-0.723,5.844-1.363,8.717
	c-0.949,4.27-2.648,8.212-5.941,11.263c-0.91,0.842-1.937,1.558-2.992,2.396c-0.551-1.497-0.471-2.282,0.646-3.324
	c3.211-3,4.71-6.91,5.417-11.259c0.34-2.094-0.227-4.361,1.131-6.334c0.415-0.604,0.205-1.625,0.324-2.448
	c0.398-2.75,0.814-5.497,1.225-8.245c-0.149-0.04-0.3-0.08-0.449-0.121c-0.256,0.961-0.51,1.923-0.771,2.883
	c-0.698,2.572-1.405,5.144-2.097,7.718c-0.422,1.575-0.864,3.148-1.23,4.736c-0.699,3.02-2.139,5.631-4.351,7.861
	c0.651-1.819,1.433-3.606,1.915-5.469c0.386-1.485,0.382-3.067,0.602-4.599c0.557-3.9,0.871-7.863,1.809-11.67
	c0.647-2.623,2.183-5.026,3.31-7.532c1.414-3.145,3.027-6.218,3.31-9.749c0.028-0.339,0.129-0.746,0.346-0.985
	c2.398-2.645,4.828-5.264,7.249-7.889c0.091,0.053,0.183,0.105,0.274,0.16c-0.109,0.353-0.148,0.751-0.34,1.052
	c-0.771,1.211-1.417,2.569-2.426,3.545c-1.852,1.792-2.479,4.079-2.997,6.404c-0.856,3.847-1.603,7.722-2.288,11.604
	c-0.22,1.243-0.123,2.547-0.117,3.822c0.002,0.277,0.235,0.554,0.437,0.994c1.307-1.998,1.522-4.143,1.944-6.206
	c0.683-3.345,1.348-6.696,1.916-10.063c0.375-2.21,1.944-3.691,3.097-5.408c2.351-3.508,4.853-6.913,7.297-10.357
	c0.149-0.209,0.339-0.388,0.511-0.581c0.092,0.044,0.186,0.089,0.279,0.133c-1.438,4.34-2.873,8.681-4.42,13.352
	c-0.404-1.02-0.682-1.723-0.928-2.342c-1.395,5.71-2.092,11.511-2.248,17.402C135.287,101.062,134.854,106.913,135.399,112.758z
	 M141.576,83.476c0.575-3.721,1.427-7.416,2.431-11.047c0.727-2.621,1.889-5.12,2.915-7.832c1.122,0.511,1.988,0.81,2.733,1.296
	c0.262,0.171,0.395,0.843,0.3,1.212c-0.724,2.811-1.554,5.595-2.286,8.403c-0.995,3.806-1.938,7.623-2.893,11.438
	c-0.182,0.729-0.279,1.484-0.506,2.199c-0.086,0.269-0.39,0.551-0.66,0.661c-0.58,0.233-1.205,0.359-2.101,0.611
	C141.51,88.127,141.224,85.752,141.576,83.476z M150.144,101.342c-1.48-0.199-2.908-0.776-4.371-1.141
	c-0.653-0.163-1.328-0.281-2-0.326c-1.369-0.094-2.229-0.862-2.244-2.24c-0.01-0.868,0.096-1.753,0.261-2.608
	c0.248-1.289,0.558-2.57,0.919-3.831c0.118-0.411,0.48-0.752,0.732-1.125c0.146,0.072,0.295,0.145,0.441,0.218
	c-0.139,0.673-0.29,1.343-0.412,2.019c-0.291,1.602-0.598,3.201-0.826,4.812c-0.043,0.301,0.187,0.868,0.399,0.929
	c0.476,0.136,1.278,0.243,1.495-0.016c1.186-1.424,2.885-1.158,4.352-1.332c4.58-0.543,9.146-0.086,13.688,0.626
	c0.312,0.05,0.64,0.012,0.958,0.036c0.271,0.02,0.536,0.072,0.889,0.121C159.931,100.1,155.358,102.045,150.144,101.342z
	 M165.244,94.696c-3.726-0.229-7.279-0.447-11.003-0.677c0-1.645,0.084-3.326-0.021-4.995c-0.113-1.774,0.43-3.049,2.047-3.927
	c1.461-0.793,2.838-1.746,4.228-2.667c0.333-0.222,0.565-0.597,1.017-1.091C162.743,85.75,163.955,90.085,165.244,94.696z
	 M176.285,53.885c-1.113,4.603-3.31,8.708-5.992,12.563c-2.278,3.278-4.633,6.501-6.952,9.75c-0.136,0.189-0.258,0.389-0.557,0.843
	c-0.588-1.812-1.137-3.258-1.52-4.743c-0.848-3.276-1.543-6.595-2.436-9.858c-0.605-2.223-1.396-4.397-2.197-6.559
	c-0.23-0.622-0.22-0.963,0.244-1.46c3.415-3.661,7.895-4.855,12.607-5.534c1.066-0.154,2.141-0.255,3.205-0.415
	c0.918-0.14,1.656,0.05,2.133,0.925c0.15,0.276,0.334,0.624,0.592,0.738C177.381,51.01,176.612,52.536,176.285,53.885z
	 M177.19,11.004c-1.049,2.442-0.416,4.992-0.515,7.497c-0.149,3.823-0.407,7.644-0.501,11.467c-0.062,2.543,0.073,5.093,0.135,7.639
	c0.045,1.794,0.151,3.588,0.137,5.381c-0.002,0.347-0.355,0.857-0.676,1.003c-0.897,0.404-1.842,0.761-2.806,0.947
	c-2.694,0.521-5.407,0.947-8.116,1.403c-0.224,0.037-0.459,0.006-0.89,0.006c2.84-3.438,4.082-7.394,5.567-11.233
	c0.586-1.52,1.135-3.062,1.841-4.525c1.003-2.078,0.553-4.225,0.501-6.357c-0.062-2.625-0.352-5.265-0.167-7.87
	c0.151-2.171,1.28-4.04,2.86-5.645c0.953-0.968,1.623-2.215,2.446-3.315c0.319-0.427,0.696-0.816,1.08-1.189
	c0.894-0.865,1.806-1.71,2.711-2.563c0.099,0.068,0.195,0.139,0.293,0.209c-0.432,0.666-0.804,1.382-1.307,1.987
	C178.521,7.372,177.951,9.232,177.19,11.004z M179.175,17.14c0.061,2.85-0.111,5.706-0.234,8.557
	c-0.051,1.157-0.242,2.308-0.369,3.461c-0.133-0.005-0.266-0.011-0.4-0.016c-0.046-0.143-0.139-0.288-0.134-0.431
	c0.118-2.576,0.36-5.15,0.348-7.725c-0.012-2.293-0.229-4.593-0.497-6.873c-0.135-1.158-0.291-2.198,0.764-3.024
	c0.236-0.184,0.436-0.501,0.51-0.793c0.32-1.26,0.949-0.823,1.756-0.313C177.92,11.85,179.121,14.586,179.175,17.14z
	 M180.323,12.898c0.435-0.64,0.617-1.225,0.996-1.407c1.781-0.861,3.601-1.646,5.441-2.369c0.301-0.117,0.948,0.098,1.113,0.362
	c0.146,0.233-0.03,0.878-0.279,1.118c-1.748,1.681-3.943,2.488-6.27,2.952C181.089,13.601,180.763,13.198,180.323,12.898z
	 M181.627,16.113c1.315-0.527,2.61-1.121,3.964-1.535c0.366-0.112,0.899,0.323,1.355,0.508c-0.191,0.429-0.266,1.065-0.594,1.247
	c-1.506,0.836-3.086,0.689-4.646,0.231C181.681,16.413,181.653,16.263,181.627,16.113z M206.517,65.14
	c0.233,1.709,0.504,3.414,0.81,5.111c0.338,1.869,0.778,3.721,1.096,5.594c0.528,3.114,0.972,6.244,1.494,9.36
	c0.435,2.587,0.888,5.172,1.429,7.737c0.206,0.979-0.078,1.201-0.988,1.159c-2.19-0.1-4.387-0.209-6.576-0.169
	c-1.23,0.021-1.602-0.533-1.461-1.58c0.316-2.354,0.738-4.695,1.027-7.053c0.279-2.271,0.498-4.551,0.654-6.833
	c0.205-2.961,0.327-5.928,0.477-8.892c0.062-1.226,0.096-2.453,0.162-3.678c0.148-2.77,0.307-5.538,0.469-8.308
	c0.011-0.188,0.066-0.375,0.102-0.562c0.077-0.007,0.152-0.014,0.229-0.021c0.162,0.998,0.349,1.992,0.474,2.994
	C206.131,61.712,206.284,63.432,206.517,65.14z M207.957,47.109c-1.424,1.614-3.119,1.15-4.64,1.299
	C204.681,47.704,205.972,46.754,207.957,47.109z M192.255,90.232c1.159-4.088,2.393-8.154,3.573-12.236
	c0.462-1.599,0.711-3.273,1.319-4.811c1.604-4.044,2.74-8.211,3.718-12.44c0.237-1.034,0.875-1.978,1.327-2.964
	c0.16,0.055,0.322,0.108,0.481,0.162c-0.091,1.142-0.229,2.283-0.261,3.427c-0.105,3.618-0.062,7.245-0.283,10.856
	c-0.258,4.197-0.734,8.383-1.117,12.572c-0.248,2.73-0.506,5.459-0.734,8.19c-0.053,0.612-0.143,1.067-0.894,1.167
	c-2.602,0.344-5.196,0.736-7.795,1.104c-0.106,0.015-0.224-0.034-0.498-0.082C191.481,93.506,191.797,91.849,192.255,90.232z
	 M209.229,99.082c-1.483,0.336-3.058,0.265-4.59,0.396c-0.533,0.046-1.113,0.067-1.574,0.297c-4.623,2.303-9.209,2.246-13.781-0.118
	c-0.202-0.105-0.365-0.283-0.541-0.423c2.126-2.866,5.433-2.093,8.222-2.834c0.496-0.131,1.019-0.182,1.534-0.223
	c1.066-0.084,2.326-0.429,2.005,1.5c0.646-0.141,1.122-0.243,1.765-0.384c-0.432-1.123,0.248-1.232,1.166-1.141
	c2.453,0.249,4.908,0.475,7.36,0.732c0.384,0.041,0.755,0.201,1.131,0.307c0.046,0.115,0.091,0.229,0.136,0.345
	C211.123,98.072,210.239,98.853,209.229,99.082z"/>
<path fill="#DDDDDD" d="M75.055,230.885c-1.327-5.362-1.374-10.893-1.882-16.357c-0.269-2.906-0.233-5.848-0.203-8.773
	c0.028-2.75,0.207-5.5,0.367-8.247c0.074-1.265-0.101-2.284-1.016-3.367c-2.096-2.479-2.729-5.567-2.961-8.729
	c0.119-0.051,0.238-0.103,0.357-0.155c1.103,2.494,2.205,4.986,3.309,7.479c0.144-0.03,0.287-0.062,0.432-0.092
	c0.129-0.521,0.305-1.034,0.379-1.562c0.364-2.57-0.623-4.76-1.945-6.866c-1.375-2.188-2.293-4.513-2.449-7.16
	c-0.092-1.582-0.616-3.14-0.946-4.708c-0.155,0.014-0.31,0.026-0.466,0.041c0.564,3.512-0.985,7.063,0.698,10.669
	c-0.515-0.147-0.827-0.237-1.29-0.37c-0.145,0.593-0.385,1.121-0.381,1.646c0.01,1.108,0.067,2.228,0.248,3.318
	c0.349,2.107,0.524,4.302,1.279,6.266c0.831,2.163,1.224,4.365,1.504,6.604c0.155,1.241,0.326,2.567-0.164,3.735
	c-2.806-0.765-3.604-3.389-5.42-5.05c0.392,5.822,2.56,11.216,3.779,16.858c-0.64-0.525-1.198-1.088-1.68-1.707
	c-1.567-2.011-3.236-3.958-4.624-6.089c-1.748-2.687-4.101-4.998-4.96-8.268c-0.287-1.091-1.262-2.001-1.922-2.994
	c-0.141,0.097-0.281,0.192-0.42,0.289c0.064,0.217,0.097,0.447,0.196,0.646c1.326,2.677,2.531,5.424,4.021,8.008
	c4.061,7.047,8.263,14.014,12.359,21.042c0.631,1.084,1.009,2.318,1.467,3.497c0.375,0.962,0.637,1.971,1.047,2.916
	c1.776,4.096,3.575,8.183,5.396,12.258c0.421,0.94,0.968,1.823,1.456,2.733c0.112-0.036,0.225-0.072,0.336-0.108
	c0-0.382,0.105-0.801-0.016-1.139c-1.351-3.743-2.742-7.473-4.111-11.209C76.216,234.261,75.482,232.612,75.055,230.885z"/>
<path fill="#DDDDDD" d="M74.484,186.974c0.658-0.855,1.332-1.698,1.97-2.568c1.033-1.41,1.844-3.056,3.108-4.206
	c1.726-1.571,3.815-2.737,5.701-4.14c1.116-0.83,2.156-1.724,2.328-3.304c0.182-1.69,0.447-3.39,0.865-5.035
	c0.693-2.728,1.532-5.42,2.328-8.12c0.132-0.451,0.336-0.885,0.536-1.313c0.886-1.903,1.775-3.804,2.676-5.699
	c0.511-1.073,1.033-2.143,1.58-3.198c0.62-1.198,1.292-2.37,1.898-3.575c0.111-0.219,0.017-0.542,0.017-0.817
	c-0.678,0.424-1.081,0.945-1.521,1.432c-3.856,4.263-7.222,8.824-8.978,14.399c-0.954,3.03-2.263,5.958-2.355,9.218
	c-0.062,2.198-1.417,3.681-2.939,5.106c-1.786,1.674-3.855,3.093-5.032,5.362c-0.624,1.201-1.415,2.316-2.029,3.523
	c-0.428,0.839-0.989,1.712-0.606,2.729C74.183,186.836,74.334,186.905,74.484,186.974z"/>
<path fill="#DDDDDD" d="M78.932,113.731c0.141,0.063,0.28,0.127,0.421,0.19c2.576-1.823,3.529-4.813,4.907-7.31
	c0.767,0.072,1.38,0.037,1.923,0.215c0.345,0.112,0.742,0.5,0.832,0.84c0.102,0.384-0.062,0.869-0.199,1.28
	c-0.973,2.907-1.934,5.817-2.969,8.701c-0.535,1.493-0.633,2.961-0.316,4.769c2.547-1.95,2.738-4.72,3.548-7.185
	c0.84-2.557,1.705-5.104,2.614-7.822c3.944,0.248,8.197,1.188,12.096-1.393c-0.969-0.104-1.936-0.219-2.906-0.312
	c-1.783-0.174-3.597-0.189-5.344-0.542c-2.142-0.432-4.229-1.138-6.338-1.73c-1.645-0.464-2.879,0.155-3.491,1.739
	c-0.128,0.332-0.29,0.658-0.478,0.96c-1.218,1.956-2.47,3.893-3.658,5.867C79.263,112.518,79.141,113.151,78.932,113.731z"/>
<path fill="#DDDDDD" d="M77.336,209.38c-0.188-3.104-0.423-6.225-0.324-9.329c0.116-3.652,0.575-7.296,0.868-10.942
	c0.025-0.322-0.078-0.653-0.121-0.979c-0.122-0.044-0.244-0.088-0.367-0.132c-0.261,0.372-0.631,0.709-0.762,1.122
	c-0.301,0.946-0.578,1.919-0.701,2.9c-0.314,2.524-0.666,5.056-0.768,7.593c-0.151,3.689-0.136,7.389-0.102,11.083
	c0.012,1.266,0.268,2.533,0.457,3.792c0.683,4.516,1.326,9.038,2.104,13.538c0.458,2.655,1.136,5.271,1.74,7.899
	c0.047,0.201,0.288,0.356,0.438,0.533c0.114-0.031,0.229-0.062,0.343-0.093c-0.064-1.056,0.003-2.138-0.212-3.161
	c-0.933-4.443-1.648-8.899-1.812-13.454C77.992,216.288,77.546,212.84,77.336,209.38z"/>
<path fill="#DDDDDD" d="M64.689,223.408c-1.224-1.661-2.784-3.087-3.915-4.802c-3.535-5.358-6.669-10.952-9.395-16.769
	c-0.063-0.135-0.191-0.237-0.345-0.425c-0.46,0.404-0.878,0.669-1.147,1.042c-0.235,0.326-0.527,0.865-0.409,1.151
	c0.797,1.926,1.571,3.879,2.592,5.688c1.292,2.287,2.78,4.466,4.243,6.653c1.723,2.575,3.359,5.23,5.312,7.624
	c1.753,2.147,3.873,3.999,5.861,5.949c0.333,0.326,0.818,0.495,1.485,0.885c-0.125-0.555-0.117-0.812-0.233-0.987
	C67.406,227.403,66.122,225.35,64.689,223.408z"/>
<path fill="#DDDDDD" d="M70.829,116.308c0.56,0.863,1.44,0.68,1.874-0.039c0.533-0.887,0.964-1.935,1.065-2.95
	c0.101-1.018,0.409-1.798,1.216-2.307c0.657-0.416,1.412-0.706,2.156-0.951c2.144-0.706,3.824-1.972,4.922-4.122
	c-0.495,0.164-0.992,0.32-1.484,0.495c-0.86,0.303-1.697,0.712-2.582,0.904c-1.473,0.32-2.981,0.48-4.464,0.754
	c-1.419,0.264-2.71-0.738-4.245-0.171c-1.266,0.469-2.762,0.313-4.391,0.454c0.361,0.257,0.5,0.404,0.668,0.466
	c1.922,0.701,2.862,2.14,3.432,4.057C69.356,114.111,70.127,115.224,70.829,116.308z"/>
<path fill="#DDDDDD" d="M101.374,109.719c0.419,1.6,1.018,3.188,1.165,4.814c0.303,3.321,0.228,6.678,0.557,9.995
	c0.228,2.307,0.47,4.709,2.238,6.613c0.299-0.091,0.626-0.19,1.133-0.344c-0.299-1.099-0.61-2.034-0.798-2.996
	c-0.259-1.318-0.644-2.666-0.583-3.983c0.106-2.35,0.455-4.692,0.794-7.025c0.366-2.52-0.394-4.737-1.714-6.792
	c-0.746-1.16-2.024-1.578-3.225-1.248C101.092,109.08,101.287,109.385,101.374,109.719z"/>
<path fill="#DDDDDD" d="M76.048,127.638c-0.082-0.132-0.164-0.265-0.246-0.396c-0.741,0.226-1.486,0.438-2.22,0.682
	c-1.154,0.384-2.066-0.1-2.743-0.929c-0.272-0.334-0.36-1.074-0.184-1.479c1.149-2.649,0.649-5.188-0.426-8.111
	c-1.425,3.272-1.024,6.818-3.331,9.407c-2.191,2.46-4.803,4.303-7.864,5.552c3.328,0.224,6.123-1.479,9.164-2.204
	c1.257-0.3,2.632-0.667,3.842-0.432c1.022,0.197,1.539-0.071,2.18-0.636C74.803,128.578,75.437,128.12,76.048,127.638z"/>
<path fill="#DDDDDD" d="M108.329,114.148c0.105,2.711,0.046,5.431,0.244,8.134c0.194,2.651,0.508,5.307,0.997,7.917
	c0.226,1.199,0.998,2.296,1.596,3.605c0.255-0.379,0.335-0.442,0.333-0.505c-0.008-0.194-0.029-0.393-0.075-0.583
	c-1.026-4.248-1.293-8.556-1.37-12.919c-0.037-2.132,0.929-4.246,0.017-6.4c-0.727-1.715-1.147-3.566-1.934-5.248
	c-0.419-0.896-1.328-1.563-2.016-2.334c-0.16,0.121-0.32,0.242-0.48,0.361c0.166,0.374,0.319,0.756,0.498,1.123
	C107.198,109.478,108.233,111.672,108.329,114.148z"/>
<path fill="#DDDDDD" d="M104.231,175.9c-2.606-1.004-14.196,0.646-17.884,2.738c-4.056,2.298-7.941,4.911-10.723,8.762
	c0.095,0.12,0.19,0.24,0.287,0.359c0.527-0.374,1.183-0.648,1.562-1.138c2.99-3.868,7.111-6.018,11.63-7.349
	c3.606-1.062,7.352-1.65,11.034-2.453C101.434,176.537,102.729,176.238,104.231,175.9z"/>
<path fill="#DDDDDD" d="M50.988,122.315c-0.48-0.087-1.33,0.054-1.476,0.354c-0.229,0.472-0.212,1.3,0.073,1.734
	c0.682,1.036,1.558,1.95,2.407,2.866c0.205,0.222,0.617,0.362,0.918,0.34c0.16-0.012,0.325-0.444,0.415-0.712
	c0.088-0.258,0.083-0.547,0.119-0.823C53.48,125.335,51.71,122.446,50.988,122.315z"/>
<path fill="#DDDDDD" d="M85.615,35.616c0.582-0.67,0.956-1.638,1.668-2.051c1.371-0.794,3.449-0.214,4.562,0.951
	c0.196,0.206,0.55,0.408,0.793,0.371c0.167-0.026,0.348-0.461,0.383-0.73c0.071-0.538-0.173-1.372,0.098-1.581
	c1.03-0.794,1.041-1.915,1.272-2.983c0.313-1.449-0.357-2.156-1.8-1.699c-0.74,0.233-1.716,0.751-1.945,1.376
	c-0.668,1.813-2.175,1.888-3.635,2.305c-0.877,0.25-2.316,0.098-2.375,1.371c-0.093,2.007-1.228,3.036-2.748,4.003
	c-0.921,0.587-1.661,1.462-2.482,2.208c0.095,0.129,0.19,0.259,0.284,0.388c0.269-0.095,0.556-0.154,0.802-0.29
	c1.146-0.627,2.325-1.21,3.406-1.938C84.554,36.873,85.086,36.224,85.615,35.616z"/>
<path fill="#DDDDDD" d="M96.926,50.407l0.042-0.033c-0.014,0-0.024-0.002-0.037-0.002C96.93,50.383,96.927,50.395,96.926,50.407z"/>
<path fill="#DDDDDD" d="M97.072,48.421c-0.514-2.038,0.16-3.654,1.511-5.104c1.561,0.914,1.952,0.835,2.905-0.514
	c0.564,0.14,1.092,0.268,1.619,0.396c0-0.521,0-1.041,0-1.677c0.182-0.113,0.531-0.333,1.26-0.792
	c-1.062-0.524-1.804-1.112-2.618-1.243c-1.558-0.25-3.159-0.24-4.742-0.338c-0.842-0.052-1.225,0.31-1.237,1.188
	c-0.037,2.816-0.099,5.634-0.204,8.447c-0.039,1.029,0.313,1.584,1.365,1.587C96.996,49.717,97.223,49.021,97.072,48.421z"/>
<path fill="#DDDDDD" d="M88.438,43.631c0.649,0.026,1.327-0.667,2.116-1.114c0.107,0.463,0.24,1.034,0.377,1.628
	c1.655-0.827,1.802-2.373,1.78-3.879c-0.005-0.359-0.802-0.907-1.31-1.018c-1.24-0.267-2.522-0.356-3.791-0.466
	c-2.307-0.199-3.799-0.062-4.915,1.729c1.803,0.067,3.671-0.902,5.614,0.28c-1.729,0.941-3.906,0.05-5.074,2.282
	c1.332-0.342,2.39-0.615,3.148-0.809C87.201,42.844,87.804,43.605,88.438,43.631z"/>
<path fill="#DDDDDD" d="M95.066,53.77c-0.178,0.126-0.537-0.011-0.812-0.018c-1.387-0.036-2.708,0.108-3.718,1.278
	c1.742,0.127,3.397,0.248,5.053,0.369c0.019,0.165,0.037,0.33,0.057,0.495c-0.873,0.411-1.746,0.822-2.62,1.234
	c0.05,0.151,0.101,0.304,0.15,0.454c1.393,0.378,2.812,0.411,4.148-0.194c1.299-0.589,1.422-2.103,0.341-3.026
	C96.906,53.714,96.179,52.985,95.066,53.77z"/>
<path fill="#DDDDDD" d="M99.809,32.824c-0.028-0.251,0.043-0.601-0.099-0.753c-0.927-0.994-1.831-2.032-2.888-2.873
	c-0.515-0.409-1.039-0.071-1.023,0.744C95.834,31.735,97.713,33.146,99.809,32.824z"/>
<path fill="#DDDDDD" d="M93.804,50.895c-0.84-0.521-1.569-0.512-2.48,0.131c0.934,0.267,1.746,0.418,2.491,0.728
	c1.976,0.821,2.251,0.795,3.782-0.758c-0.224-0.198-0.444-0.39-0.665-0.584C95.92,51.578,95.156,51.731,93.804,50.895z"/>
<path fill="#DDDDDD" d="M96.927,50.407c0.002,0.001,0.004,0.003,0.005,0.005c0.012-0.014,0.023-0.024,0.036-0.038L96.927,50.407z"/>
</svg>
